<?xml version="1.0" encoding="UTF-8" standalone="no"?>
<!-- Generator: Adobe Illustrator 23.0.0, SVG Export Plug-In . SVG Version: 6.00 Build 0)  -->

<svg
   xmlns:dc="http://purl.org/dc/elements/1.1/"
   xmlns:cc="http://creativecommons.org/ns#"
   xmlns:rdf="http://www.w3.org/1999/02/22-rdf-syntax-ns#"
   xmlns:svg="http://www.w3.org/2000/svg"
   xmlns="http://www.w3.org/2000/svg"
   xmlns:sodipodi="http://sodipodi.sourceforge.net/DTD/sodipodi-0.dtd"
   xmlns:inkscape="http://www.inkscape.org/namespaces/inkscape"
   version="1.1"
   x="0px"
   y="0px"
   viewBox="0 0 1125 2436"
   style="enable-background:new 0 0 1125 2436;"
   xml:space="preserve"
   id="svg5617"
   sodipodi:docname="Sin título-1.svg"
   inkscape:version="0.92.3 (2405546, 2018-03-11)"><metadata
   id="metadata5623"><rdf:RDF><cc:Work
       rdf:about=""><dc:format>image/svg+xml</dc:format><dc:type
         rdf:resource="http://purl.org/dc/dcmitype/StillImage" /></cc:Work></rdf:RDF></metadata><defs
   id="defs5621">
	
	
	
	
	
		
	
	
	
	
	
	
	
	
	
	
	
	
	
		
	
	
	
	
	
	
	
	
	
		
	
		
	
	
	
		
	
	
	
	
	
		
	
		
	
	
	
		
	
	
	
	
	
	
	
	
	
		
	
		
	
	
	
	
	
</defs><sodipodi:namedview
   pagecolor="#ffffff"
   bordercolor="#666666"
   borderopacity="1"
   objecttolerance="10"
   gridtolerance="10"
   guidetolerance="10"
   inkscape:pageopacity="0"
   inkscape:pageshadow="2"
   inkscape:window-width="1366"
   inkscape:window-height="705"
   id="namedview5619"
   showgrid="false"
   inkscape:zoom="0.27401839"
   inkscape:cx="836.58766"
   inkscape:cy="703.6801"
   inkscape:window-x="-8"
   inkscape:window-y="-8"
   inkscape:window-maximized="1"
   inkscape:current-layer="svg5617" />
<style
   type="text/css"
   id="style5307">
	.st0{fill:#FFFFFF;stroke:#FBAE17;stroke-width:6;stroke-miterlimit:10;}
	.st1{fill:#FBAE17;}
	.st2{fill:#FBCD17;}
	.st3{fill:#FBE517;}
	.st4{fill:#E2E2E2;}
	.st5{fill:#CCCCCC;}
	.st6{fill:#FFFFFF;stroke:#000000;stroke-miterlimit:10;}
	.st7{fill:#FFFFFF;}
	.st8{fill:#B3B3B3;}
	.st9{fill:none;stroke:#FBAE17;stroke-width:2;stroke-miterlimit:10;}
</style>
<rect
   ry="0"
   y="1456.7791"
   x="98.259109"
   height="933.93726"
   width="933.93726"
   id="rect6323"
   style="fill:#00ffff;fill-opacity:1;stroke:#000000;stroke-width:49.9651413;stroke-linecap:round;stroke-linejoin:round;stroke-miterlimit:4;stroke-dasharray:none;stroke-opacity:0" /><rect
   style="fill:#00ffff;fill-opacity:1;stroke:#000000;stroke-width:12.49128532;stroke-linecap:round;stroke-linejoin:round;stroke-miterlimit:4;stroke-dasharray:none;stroke-opacity:0"
   id="rect6321"
   width="233.48431"
   height="233.48431"
   x="848.63116"
   y="856.87683"
   ry="0" /><path
   style="fill:#ffffff;stroke:#fbae17;stroke-width:6;stroke-miterlimit:10"
   inkscape:connector-curvature="0"
   id="path5309"
   d="m 641.24,735.21 46.05,10.16 9.38,-20.79 c 26.66,-10.62 41.97,-37.74 37.27,-63.67 -3.82,-21.06 -20.47,-39.37 -42.98,-44.14 -22.14,-4.69 -44.31,4.9 -56.43,21.84 -15.28,21.35 -13.15,52.36 6.24,73.63 0.16,7.67 0.31,15.32 0.47,22.97 z"
   class="st0" /><path
   style="fill:#fbae17"
   inkscape:connector-curvature="0"
   id="path5311"
   d="m 635.92,739.57 54.31,11.98 c -0.24,3.54 -1.23,11.79 -6.42,14.07 -2.25,0.99 -4.47,0.49 -5.41,0.28 -7.11,-1.59 -20.87,-4.54 -39.02,-8.61 0,0 -9.84,-2.17 -3.46,-17.72 z"
   class="st1" /><path
   style="fill:#fbcd17"
   inkscape:connector-curvature="0"
   id="path5313"
   d="m 640.11,757.47 38.82,8.56 c -0.27,2.98 -1.21,9.93 -5.02,11.98 -1.65,0.89 -3.24,0.54 -3.91,0.39 -5.08,-1.14 -14.92,-3.24 -27.89,-6.15 0.01,0.01 -7.03,-1.55 -2,-14.78 z"
   class="st2" /><path
   style="fill:#fbe517"
   inkscape:connector-curvature="0"
   id="path5315"
   d="m 642.54,772.37 28.7,6.33 c -0.26,2.48 -1.1,8.27 -3.97,10.05 -1.25,0.78 -2.42,0.51 -2.91,0.4 -3.76,-0.85 -11.03,-2.39 -20.62,-4.55 0,0 -5.2,-1.15 -1.2,-12.23 z"
   class="st3" /><ellipse
   style="fill:#e2e2e2;stroke-width:0.99997473"
   id="ellipse5317"
   ry="43.498901"
   rx="43.998886"
   cy="808.36896"
   cx="-507.13361"
   class="st4"
   transform="rotate(-77.560685)" /><circle
   style="fill:#cccccc"
   id="circle5319"
   r="9.5"
   cy="665.65002"
   cx="656.41998"
   class="st5" /><circle
   style="fill:#cccccc"
   id="circle5321"
   r="9.5"
   cy="671.03998"
   cx="680.83002"
   class="st5" /><circle
   style="fill:#cccccc"
   id="circle5323"
   r="9.5"
   cy="676.21002"
   cx="704.27002"
   class="st5" /><path
   style="fill:#ffffff;stroke:#000000;stroke-miterlimit:10"
   inkscape:connector-curvature="0"
   id="path5325"
   d="M 701.09,715.52"
   class="st6" /><path
   style="fill:#ffffff"
   inkscape:connector-curvature="0"
   id="path5327"
   d="M 634.27,710.92"
   class="st7" /><g
   id="g5341">
		<path
   inkscape:connector-curvature="0"
   id="path5329"
   d="m 392.46,678.27 c 0,-1.65 1.34,-2.99 2.99,-2.99 h 14.63 c 11.97,0 17.84,6.22 17.84,17.63 v 7.03 c 0,11.41 -5.88,17.63 -17.84,17.63 h -2.67 c -1.65,0 -2.99,1.34 -2.99,2.99 v 23.06 c 0,1.65 -1.34,2.99 -2.99,2.99 h -5.98 c -1.65,0 -2.99,-1.34 -2.99,-2.99 z m 17.63,29.11 c 3.81,0 5.88,-1.63 5.88,-6.73 v -8.46 c 0,-5.1 -2.07,-6.73 -5.88,-6.73 h -2.67 c -1.65,0 -2.99,1.34 -2.99,2.99 v 15.93 c 0,1.65 1.34,2.99 2.99,2.99 h 2.67 z" />
		<path
   inkscape:connector-curvature="0"
   id="path5331"
   d="m 437.45,675.28 h 5.98 c 1.65,0 2.99,1.34 2.99,2.99 v 55.16 c 0,1.65 1.34,2.99 2.99,2.99 h 13.71 c 1.65,0 2.99,1.34 2.99,2.99 v 4.21 c 0,1.65 -1.34,2.99 -2.99,2.99 h -25.68 c -1.65,0 -2.99,-1.34 -2.99,-2.99 v -65.35 c 0.01,-1.65 1.35,-2.99 3,-2.99 z" />
		<path
   inkscape:connector-curvature="0"
   id="path5333"
   d="m 471.45,729.7 v -51.43 c 0,-1.65 1.34,-2.99 2.99,-2.99 h 5.98 c 1.65,0 2.99,1.34 2.99,2.99 v 52.24 c 0,5.1 2.29,6.93 6.09,6.93 3.8,0 6.09,-1.83 6.09,-6.93 v -52.24 c 0,-1.65 1.34,-2.99 2.99,-2.99 h 5.55 c 1.65,0 2.99,1.34 2.99,2.99 v 51.43 c 0,11.41 -6.09,17.94 -17.84,17.94 -11.74,0 -17.83,-6.52 -17.83,-17.94 z" />
		<path
   inkscape:connector-curvature="0"
   id="path5335"
   d="m 514.75,729.7 v -37.5 c 0,-11.41 6.09,-17.94 17.84,-17.94 11.75,0 17.84,6.52 17.84,17.94 v 3.12 c 0,1.65 -1.34,2.99 -2.99,2.99 h -5.33 c -1.65,0 -2.99,-1.34 -2.99,-2.99 v -3.84 c 0,-5.1 -2.39,-7.03 -6.2,-7.03 -3.81,0 -6.2,1.94 -6.2,7.03 v 39.03 c 0,5.1 2.39,6.93 6.2,6.93 3.81,0 6.2,-1.83 6.2,-6.93 v -10.97 c 0,-1.65 -1.34,-2.99 -2.99,-2.99 v 0 c -1.65,0 -2.99,-1.34 -2.99,-2.99 v -4.21 c 0,-1.65 1.34,-2.99 2.99,-2.99 h 11.31 c 1.65,0 2.99,1.34 2.99,2.99 v 20.35 c 0,11.41 -6.09,17.94 -17.84,17.94 -11.75,0 -17.84,-6.52 -17.84,-17.94 z" />
		<path
   inkscape:connector-curvature="0"
   id="path5337"
   d="m 561.15,675.28 h 5.98 c 1.65,0 2.99,1.34 2.99,2.99 v 23.06 c 0,1.65 1.34,2.99 2.99,2.99 h 6.85 c 1.65,0 2.99,-1.34 2.99,-2.99 v -23.06 c 0,-1.65 1.34,-2.99 2.99,-2.99 h 5.98 c 1.65,0 2.99,1.34 2.99,2.99 v 65.35 c 0,1.65 -1.34,2.99 -2.99,2.99 h -5.98 c -1.65,0 -2.99,-1.34 -2.99,-2.99 V 717.5 c 0,-1.65 -1.34,-2.99 -2.99,-2.99 h -6.85 c -1.65,0 -2.99,1.34 -2.99,2.99 v 26.12 c 0,1.65 -1.34,2.99 -2.99,2.99 h -5.98 c -1.65,0 -2.99,-1.34 -2.99,-2.99 v -65.35 c 0,-1.65 1.34,-2.99 2.99,-2.99 z" />
		<path
   inkscape:connector-curvature="0"
   id="path5339"
   d="m 610.22,685.47 h -6.53 c -1.65,0 -2.99,-1.34 -2.99,-2.99 v -4.21 c 0,-1.65 1.34,-2.99 2.99,-2.99 h 31.01 c 1.65,0 2.99,1.34 2.99,2.99 v 4.21 c 0,1.65 -1.34,2.99 -2.99,2.99 h -6.53 c -1.65,0 -2.99,1.34 -2.99,2.99 v 55.16 c 0,1.65 -1.34,2.99 -2.99,2.99 h -5.98 c -1.65,0 -2.99,-1.34 -2.99,-2.99 v -55.16 c -0.01,-1.65 -1.35,-2.99 -3,-2.99 z" />
	</g><g
   id="g5347">
		<g
   id="g5345">
			<path
   style="fill:#fbae17"
   inkscape:connector-curvature="0"
   id="path5343"
   d="m 712.37,727.75 c 2.35,3.21 4.7,6.42 7.06,9.63 0.95,1.3 2.61,1.96 4.1,1.08 1.28,-0.76 2.04,-2.79 1.08,-4.1 -2.35,-3.21 -4.7,-6.42 -7.06,-9.63 -0.95,-1.3 -2.61,-1.96 -4.1,-1.08 -1.29,0.75 -2.05,2.78 -1.08,4.1 z"
   class="st1" />
		</g>
	</g><g
   id="g5353">
		<g
   id="g5351">
			<path
   style="fill:#fbae17"
   inkscape:connector-curvature="0"
   id="path5349"
   d="m 736.8,699.66 c 3.45,1.99 6.9,3.98 10.35,5.96 3.35,1.93 6.38,-3.25 3.03,-5.18 -3.45,-1.99 -6.9,-3.98 -10.35,-5.96 -3.35,-1.93 -6.38,3.25 -3.03,5.18 z"
   class="st1" />
		</g>
	</g><g
   id="g5359">
		<g
   id="g5357">
			<path
   style="fill:#fbae17"
   inkscape:connector-curvature="0"
   id="path5355"
   d="m 744.52,669.76 c 3.98,0.2 7.95,0.39 11.93,0.59 3.86,0.19 3.85,-5.81 0,-6 -3.98,-0.2 -7.95,-0.39 -11.93,-0.59 -3.86,-0.19 -3.85,5.81 0,6 z"
   class="st1" />
		</g>
	</g><g
   id="g5365">
		<g
   id="g5363">
			<path
   style="fill:#fbae17"
   inkscape:connector-curvature="0"
   id="path5361"
   d="m 736.67,634.33 c 3.55,-1.79 7.11,-3.58 10.66,-5.37 3.45,-1.74 0.41,-6.92 -3.03,-5.18 -3.55,1.79 -7.11,3.58 -10.66,5.37 -3.45,1.74 -0.41,6.91 3.03,5.18 z"
   class="st1" />
		</g>
	</g><path
   style="fill:#ffffff;stroke:#fbae17;stroke-width:6;stroke-miterlimit:10"
   inkscape:connector-curvature="0"
   id="path5367"
   d="m 651.24,988.21 46.05,10.16 9.38,-20.79 c 26.66,-10.62 41.97,-37.74 37.27,-63.67 -3.82,-21.06 -20.47,-39.37 -42.98,-44.14 -22.14,-4.69 -44.31,4.9 -56.43,21.84 -15.28,21.35 -13.15,52.36 6.24,73.63 0.16,7.67 0.31,15.32 0.47,22.97 z"
   class="st0" /><g
   id="g5375">
		<path
   style="fill:#fbae17"
   inkscape:connector-curvature="0"
   id="path5369"
   d="m 645.92,992.57 54.31,11.98 c -0.24,3.54 -1.23,11.79 -6.42,14.07 -2.25,0.99 -4.47,0.49 -5.41,0.28 -7.11,-1.59 -20.87,-4.54 -39.02,-8.61 0,0 -9.84,-2.17 -3.46,-17.72 z"
   class="st1" />
		<path
   style="fill:#fbae17"
   inkscape:connector-curvature="0"
   id="path5371"
   d="m 650.11,1010.47 38.82,8.56 c -0.27,2.98 -1.21,9.93 -5.02,11.98 -1.65,0.89 -3.24,0.54 -3.91,0.39 -5.08,-1.14 -14.92,-3.24 -27.89,-6.15 0.01,0.01 -7.03,-1.55 -2,-14.78 z"
   class="st1" />
		<path
   style="fill:#fbae17"
   inkscape:connector-curvature="0"
   id="path5373"
   d="m 652.54,1025.37 28.7,6.33 c -0.26,2.48 -1.1,8.27 -3.97,10.05 -1.25,0.78 -2.42,0.51 -2.91,0.4 -3.76,-0.85 -11.03,-2.39 -20.62,-4.55 0,0 -5.2,-1.15 -1.2,-12.23 z"
   class="st1" />
	</g><ellipse
   style="fill:#e2e2e2;stroke-width:1.00002003"
   id="ellipse5377"
   ry="43.500874"
   rx="44.000881"
   cy="812.36157"
   cx="-816.79309"
   class="st4"
   transform="rotate(-81.963889)" /><path
   style="fill:#ffffff;stroke:#000000;stroke-miterlimit:10"
   inkscape:connector-curvature="0"
   id="path5379"
   d="M 711.09,968.52"
   class="st6" /><path
   style="fill:#ffffff"
   inkscape:connector-curvature="0"
   id="path5381"
   d="M 644.27,963.92"
   class="st7" /><g
   id="g5395">
		<path
   inkscape:connector-curvature="0"
   id="path5383"
   d="m 402.46,931.27 c 0,-1.65 1.34,-2.99 2.99,-2.99 h 14.63 c 11.97,0 17.84,6.22 17.84,17.63 v 7.03 c 0,11.41 -5.88,17.63 -17.84,17.63 h -2.67 c -1.65,0 -2.99,1.34 -2.99,2.99 v 23.06 c 0,1.65 -1.34,2.99 -2.99,2.99 h -5.98 c -1.65,0 -2.99,-1.34 -2.99,-2.99 z m 17.63,29.11 c 3.81,0 5.88,-1.63 5.88,-6.73 v -8.46 c 0,-5.1 -2.07,-6.73 -5.88,-6.73 h -2.67 c -1.65,0 -2.99,1.34 -2.99,2.99 v 15.93 c 0,1.65 1.34,2.99 2.99,2.99 h 2.67 z" />
		<path
   inkscape:connector-curvature="0"
   id="path5385"
   d="m 447.45,928.28 h 5.98 c 1.65,0 2.99,1.34 2.99,2.99 v 55.16 c 0,1.65 1.34,2.99 2.99,2.99 h 13.71 c 1.65,0 2.99,1.34 2.99,2.99 v 4.21 c 0,1.65 -1.34,2.99 -2.99,2.99 h -25.68 c -1.65,0 -2.99,-1.34 -2.99,-2.99 v -65.35 c 0.01,-1.65 1.35,-2.99 3,-2.99 z" />
		<path
   inkscape:connector-curvature="0"
   id="path5387"
   d="m 481.45,982.7 v -51.43 c 0,-1.65 1.34,-2.99 2.99,-2.99 h 5.98 c 1.65,0 2.99,1.34 2.99,2.99 v 52.24 c 0,5.1 2.29,6.93 6.09,6.93 3.8,0 6.09,-1.83 6.09,-6.93 v -52.24 c 0,-1.65 1.34,-2.99 2.99,-2.99 h 5.55 c 1.65,0 2.99,1.34 2.99,2.99 v 51.43 c 0,11.41 -6.09,17.94 -17.84,17.94 -11.74,0 -17.83,-6.52 -17.83,-17.94 z" />
		<path
   inkscape:connector-curvature="0"
   id="path5389"
   d="m 524.75,982.7 v -37.5 c 0,-11.41 6.09,-17.94 17.84,-17.94 11.75,0 17.84,6.52 17.84,17.94 v 3.12 c 0,1.65 -1.34,2.99 -2.99,2.99 h -5.33 c -1.65,0 -2.99,-1.34 -2.99,-2.99 v -3.84 c 0,-5.1 -2.39,-7.03 -6.2,-7.03 -3.81,0 -6.2,1.94 -6.2,7.03 v 39.03 c 0,5.1 2.39,6.93 6.2,6.93 3.81,0 6.2,-1.83 6.2,-6.93 v -10.97 c 0,-1.65 -1.34,-2.99 -2.99,-2.99 v 0 c -1.65,0 -2.99,-1.34 -2.99,-2.99 v -4.21 c 0,-1.65 1.34,-2.99 2.99,-2.99 h 11.31 c 1.65,0 2.99,1.34 2.99,2.99 v 20.35 c 0,11.41 -6.09,17.94 -17.84,17.94 -11.75,0 -17.84,-6.52 -17.84,-17.94 z" />
		<path
   inkscape:connector-curvature="0"
   id="path5391"
   d="m 571.15,928.28 h 5.98 c 1.65,0 2.99,1.34 2.99,2.99 v 23.06 c 0,1.65 1.34,2.99 2.99,2.99 h 6.85 c 1.65,0 2.99,-1.34 2.99,-2.99 v -23.06 c 0,-1.65 1.34,-2.99 2.99,-2.99 h 5.98 c 1.65,0 2.99,1.34 2.99,2.99 v 65.35 c 0,1.65 -1.34,2.99 -2.99,2.99 h -5.98 c -1.65,0 -2.99,-1.34 -2.99,-2.99 V 970.5 c 0,-1.65 -1.34,-2.99 -2.99,-2.99 h -6.85 c -1.65,0 -2.99,1.34 -2.99,2.99 v 26.12 c 0,1.65 -1.34,2.99 -2.99,2.99 h -5.98 c -1.65,0 -2.99,-1.34 -2.99,-2.99 v -65.35 c 0,-1.65 1.34,-2.99 2.99,-2.99 z" />
		<path
   inkscape:connector-curvature="0"
   id="path5393"
   d="m 620.22,938.47 h -6.53 c -1.65,0 -2.99,-1.34 -2.99,-2.99 v -4.21 c 0,-1.65 1.34,-2.99 2.99,-2.99 h 31.01 c 1.65,0 2.99,1.34 2.99,2.99 v 4.21 c 0,1.65 -1.34,2.99 -2.99,2.99 h -6.53 c -1.65,0 -2.99,1.34 -2.99,2.99 v 55.16 c 0,1.65 -1.34,2.99 -2.99,2.99 h -5.98 c -1.65,0 -2.99,-1.34 -2.99,-2.99 v -55.16 c -0.01,-1.65 -1.35,-2.99 -3,-2.99 z" />
	</g><g
   id="g5401">
		<g
   id="g5399">
			<path
   style="fill:#fbae17"
   inkscape:connector-curvature="0"
   id="path5397"
   d="m 722.37,980.75 c 2.35,3.21 4.7,6.42 7.06,9.63 0.95,1.3 2.61,1.96 4.1,1.08 1.28,-0.76 2.04,-2.79 1.08,-4.1 -2.35,-3.21 -4.7,-6.42 -7.06,-9.63 -0.95,-1.3 -2.61,-1.96 -4.1,-1.08 -1.29,0.75 -2.05,2.78 -1.08,4.1 z"
   class="st1" />
		</g>
	</g><g
   id="g5407">
		<g
   id="g5405">
			<path
   style="fill:#fbae17"
   inkscape:connector-curvature="0"
   id="path5403"
   d="m 746.8,952.66 c 3.45,1.99 6.9,3.98 10.35,5.96 3.35,1.93 6.38,-3.25 3.03,-5.18 -3.45,-1.99 -6.9,-3.98 -10.35,-5.96 -3.35,-1.93 -6.38,3.25 -3.03,5.18 z"
   class="st1" />
		</g>
	</g><g
   id="g5413">
		<g
   id="g5411">
			<path
   style="fill:#fbae17"
   inkscape:connector-curvature="0"
   id="path5409"
   d="m 754.52,922.76 c 3.98,0.2 7.95,0.39 11.93,0.59 3.86,0.19 3.85,-5.81 0,-6 -3.98,-0.2 -7.95,-0.39 -11.93,-0.59 -3.86,-0.19 -3.85,5.81 0,6 z"
   class="st1" />
		</g>
	</g><g
   id="g5419">
		<g
   id="g5417">
			<path
   style="fill:#fbae17"
   inkscape:connector-curvature="0"
   id="path5415"
   d="m 746.67,887.33 c 3.55,-1.79 7.11,-3.58 10.66,-5.37 3.45,-1.74 0.41,-6.92 -3.03,-5.18 -3.55,1.79 -7.11,3.58 -10.66,5.37 -3.45,1.74 -0.41,6.91 3.03,5.18 z"
   class="st1" />
		</g>
	</g><path
   style="fill:#b3b3b3"
   inkscape:connector-curvature="0"
   id="path5421"
   d="m 683.65,949.09 c 7.79,1.82 9.42,-10.15 9.42,-10.15 l -14.47,-3.39 c 0,0.01 -3.86,11.46 5.05,13.54 z"
   class="st8" /><rect
   style="fill:#b3b3b3;stroke-width:0.99997145"
   id="rect5423"
   height="24.999285"
   width="7.9997716"
   class="st8"
   transform="rotate(15.986322)"
   y="674.43994"
   x="898.99792" /><rect
   style="fill:#b3b3b3;stroke-width:0.99997145"
   id="rect5425"
   height="24.999285"
   width="7.9997716"
   class="st8"
   transform="rotate(15.986322)"
   y="674.43726"
   x="928.99738" /><path
   style="fill:#ffffff;stroke:#fbae17;stroke-width:6;stroke-miterlimit:10"
   inkscape:connector-curvature="0"
   id="path5427"
   d="m 723.24,1241.21 46.05,10.16 9.38,-20.79 c 26.66,-10.62 41.97,-37.74 37.27,-63.67 -3.82,-21.06 -20.47,-39.37 -42.98,-44.14 -22.14,-4.69 -44.31,4.9 -56.43,21.84 -15.28,21.35 -13.15,52.36 6.24,73.63 0.16,7.67 0.31,15.32 0.47,22.97 z"
   class="st0" /><g
   id="g5435">
		<path
   style="fill:#fbae17"
   inkscape:connector-curvature="0"
   id="path5429"
   d="m 717.92,1245.57 54.31,11.98 c -0.24,3.54 -1.23,11.79 -6.42,14.07 -2.25,0.99 -4.47,0.49 -5.41,0.28 -7.11,-1.59 -20.87,-4.54 -39.02,-8.61 0,0 -9.84,-2.17 -3.46,-17.72 z"
   class="st1" />
		<path
   style="fill:#fbae17"
   inkscape:connector-curvature="0"
   id="path5431"
   d="m 722.11,1263.47 38.82,8.56 c -0.27,2.98 -1.21,9.93 -5.02,11.98 -1.65,0.89 -3.24,0.54 -3.91,0.39 -5.08,-1.14 -14.92,-3.24 -27.89,-6.15 0.01,0.01 -7.03,-1.55 -2,-14.78 z"
   class="st1" />
		<path
   style="fill:#fbae17"
   inkscape:connector-curvature="0"
   id="path5433"
   d="m 724.54,1278.37 28.7,6.33 c -0.26,2.48 -1.1,8.27 -3.97,10.05 -1.25,0.78 -2.42,0.51 -2.91,0.4 -3.76,-0.85 -11.03,-2.39 -20.62,-4.55 0,0 -5.2,-1.15 -1.2,-12.23 z"
   class="st1" />
	</g><ellipse
   style="fill:#e2e2e2;stroke-width:1.00002003"
   id="ellipse5437"
   ry="43.500874"
   rx="44.000881"
   cy="919.02765"
   cx="-1057.2396"
   class="st4"
   transform="rotate(-81.963889)" /><path
   style="fill:#ffffff;stroke:#000000;stroke-miterlimit:10"
   inkscape:connector-curvature="0"
   id="path5439"
   d="M 783.09,1221.52"
   class="st6" /><path
   style="fill:#ffffff"
   inkscape:connector-curvature="0"
   id="path5441"
   d="M 716.27,1216.92"
   class="st7" /><g
   id="g5455">
		<path
   inkscape:connector-curvature="0"
   id="path5443"
   d="m 478.46,1184.27 c 0,-1.65 1.34,-2.99 2.99,-2.99 h 14.63 c 11.97,0 17.84,6.22 17.84,17.63 v 7.03 c 0,11.41 -5.88,17.63 -17.84,17.63 h -2.67 c -1.65,0 -2.99,1.34 -2.99,2.99 v 23.06 c 0,1.65 -1.34,2.99 -2.99,2.99 h -5.98 c -1.65,0 -2.99,-1.34 -2.99,-2.99 z m 17.63,29.11 c 3.81,0 5.88,-1.63 5.88,-6.73 v -8.46 c 0,-5.1 -2.07,-6.73 -5.88,-6.73 h -2.67 c -1.65,0 -2.99,1.34 -2.99,2.99 v 15.93 c 0,1.65 1.34,2.99 2.99,2.99 h 2.67 z" />
		<path
   inkscape:connector-curvature="0"
   id="path5445"
   d="m 523.45,1181.28 h 5.98 c 1.65,0 2.99,1.34 2.99,2.99 v 55.16 c 0,1.65 1.34,2.99 2.99,2.99 h 13.71 c 1.65,0 2.99,1.34 2.99,2.99 v 4.21 c 0,1.65 -1.34,2.99 -2.99,2.99 h -25.68 c -1.65,0 -2.99,-1.34 -2.99,-2.99 v -65.35 c 0.01,-1.65 1.35,-2.99 3,-2.99 z" />
		<path
   inkscape:connector-curvature="0"
   id="path5447"
   d="m 557.45,1235.7 v -51.43 c 0,-1.65 1.34,-2.99 2.99,-2.99 h 5.98 c 1.65,0 2.99,1.34 2.99,2.99 v 52.24 c 0,5.1 2.29,6.93 6.09,6.93 3.8,0 6.09,-1.83 6.09,-6.93 v -52.24 c 0,-1.65 1.34,-2.99 2.99,-2.99 h 5.55 c 1.65,0 2.99,1.34 2.99,2.99 v 51.43 c 0,11.41 -6.09,17.94 -17.84,17.94 -11.74,0 -17.83,-6.52 -17.83,-17.94 z" />
		<path
   inkscape:connector-curvature="0"
   id="path5449"
   d="m 600.75,1235.7 v -37.5 c 0,-11.41 6.09,-17.94 17.84,-17.94 11.75,0 17.84,6.52 17.84,17.94 v 3.12 c 0,1.65 -1.34,2.99 -2.99,2.99 h -5.33 c -1.65,0 -2.99,-1.34 -2.99,-2.99 v -3.84 c 0,-5.1 -2.39,-7.03 -6.2,-7.03 -3.81,0 -6.2,1.94 -6.2,7.03 v 39.03 c 0,5.1 2.39,6.93 6.2,6.93 3.81,0 6.2,-1.83 6.2,-6.93 v -10.97 c 0,-1.65 -1.34,-2.99 -2.99,-2.99 v 0 c -1.65,0 -2.99,-1.34 -2.99,-2.99 v -4.21 c 0,-1.65 1.34,-2.99 2.99,-2.99 h 11.31 c 1.65,0 2.99,1.34 2.99,2.99 v 20.35 c 0,11.41 -6.09,17.94 -17.84,17.94 -11.75,0 -17.84,-6.52 -17.84,-17.94 z" />
		<path
   inkscape:connector-curvature="0"
   id="path5451"
   d="m 647.15,1181.28 h 5.98 c 1.65,0 2.99,1.34 2.99,2.99 v 23.06 c 0,1.65 1.34,2.99 2.99,2.99 h 6.85 c 1.65,0 2.99,-1.34 2.99,-2.99 v -23.06 c 0,-1.65 1.34,-2.99 2.99,-2.99 h 5.98 c 1.65,0 2.99,1.34 2.99,2.99 v 65.35 c 0,1.65 -1.34,2.99 -2.99,2.99 h -5.98 c -1.65,0 -2.99,-1.34 -2.99,-2.99 v -26.12 c 0,-1.65 -1.34,-2.99 -2.99,-2.99 h -6.85 c -1.65,0 -2.99,1.34 -2.99,2.99 v 26.12 c 0,1.65 -1.34,2.99 -2.99,2.99 h -5.98 c -1.65,0 -2.99,-1.34 -2.99,-2.99 v -65.35 c 0,-1.65 1.34,-2.99 2.99,-2.99 z" />
		<path
   inkscape:connector-curvature="0"
   id="path5453"
   d="m 696.22,1191.47 h -6.53 c -1.65,0 -2.99,-1.34 -2.99,-2.99 v -4.21 c 0,-1.65 1.34,-2.99 2.99,-2.99 h 31.01 c 1.65,0 2.99,1.34 2.99,2.99 v 4.21 c 0,1.65 -1.34,2.99 -2.99,2.99 h -6.53 c -1.65,0 -2.99,1.34 -2.99,2.99 v 55.16 c 0,1.65 -1.34,2.99 -2.99,2.99 h -5.98 c -1.65,0 -2.99,-1.34 -2.99,-2.99 v -55.16 c -0.01,-1.65 -1.35,-2.99 -3,-2.99 z" />
	</g><path
   style="fill:#b3b3b3"
   inkscape:connector-curvature="0"
   id="path5457"
   d="m 755.65,1202.09 c 7.79,1.82 9.42,-10.15 9.42,-10.15 l -14.47,-3.39 c 0,0.01 -3.86,11.46 5.05,13.54 z"
   class="st8" /><rect
   style="fill:#b3b3b3;stroke-width:0.99997145"
   id="rect5459"
   height="24.999285"
   width="7.9997716"
   class="st8"
   transform="rotate(15.986322)"
   y="897.8186"
   x="1037.8918" /><rect
   style="fill:#b3b3b3;stroke-width:0.99997145"
   id="rect5461"
   height="24.999285"
   width="7.9997716"
   class="st8"
   transform="rotate(15.986322)"
   y="897.81592"
   x="1067.8912" /><path
   style="fill:#ffffff;stroke:#fbae17;stroke-width:6;stroke-miterlimit:10"
   inkscape:connector-curvature="0"
   id="path5463"
   d="m 907.24,1013.21 46.05,10.16 9.38,-20.79 c 26.66,-10.62 41.97,-37.74 37.27,-63.67 -3.82,-21.06 -20.47,-39.37 -42.98,-44.14 -22.14,-4.69 -44.31,4.9 -56.43,21.84 -15.28,21.35 -13.15,52.36 6.24,73.63 0.16,7.67 0.31,15.32 0.47,22.97 z"
   class="st0" /><g
   id="g5471">
		<path
   style="fill:#fbae17"
   inkscape:connector-curvature="0"
   id="path5465"
   d="m 901.92,1017.57 54.31,11.98 c -0.24,3.54 -1.23,11.79 -6.42,14.07 -2.25,0.99 -4.47,0.49 -5.41,0.28 -7.11,-1.59 -20.87,-4.54 -39.02,-8.61 0,0 -9.84,-2.17 -3.46,-17.72 z"
   class="st1" />
		<path
   style="fill:#fbae17"
   inkscape:connector-curvature="0"
   id="path5467"
   d="m 906.11,1035.47 38.82,8.56 c -0.27,2.98 -1.21,9.93 -5.02,11.98 -1.65,0.89 -3.24,0.54 -3.91,0.39 -5.08,-1.14 -14.92,-3.24 -27.89,-6.15 0.01,0.01 -7.03,-1.55 -2,-14.78 z"
   class="st1" />
		<path
   style="fill:#fbae17"
   inkscape:connector-curvature="0"
   id="path5469"
   d="m 908.54,1050.37 28.7,6.33 c -0.26,2.48 -1.1,8.27 -3.97,10.05 -1.25,0.78 -2.42,0.51 -2.91,0.4 -3.76,-0.85 -11.03,-2.39 -20.62,-4.55 0,0 -5.2,-1.15 -1.2,-12.23 z"
   class="st1" />
	</g><ellipse
   style="fill:#e2e2e2;stroke-width:1.00002003"
   id="ellipse5473"
   ry="43.500874"
   rx="44.000881"
   cy="1069.3409"
   cx="-805.75409"
   class="st4"
   transform="rotate(-81.963889)" /><path
   style="fill:#ffffff;stroke:#000000;stroke-miterlimit:10"
   inkscape:connector-curvature="0"
   id="path5475"
   d="M 967.09,993.52"
   class="st6" /><path
   style="fill:#ffffff"
   inkscape:connector-curvature="0"
   id="path5477"
   d="M 900.27,988.92"
   class="st7" /><g
   id="g5491">
		<path
   inkscape:connector-curvature="0"
   id="path5479"
   d="m 964,1025.46 c 0,-0.6 0.52,-1.09 1.17,-1.09 h 5.71 c 4.67,0 6.96,2.26 6.96,6.4 v 2.55 c 0,4.14 -2.29,6.4 -6.96,6.4 h -1.04 c -0.64,0 -1.17,0.49 -1.17,1.09 v 8.37 c 0,0.6 -0.52,1.09 -1.17,1.09 h -2.33 c -0.64,0 -1.17,-0.49 -1.17,-1.09 z m 6.88,10.56 c 1.49,0 2.29,-0.59 2.29,-2.44 v -3.07 c 0,-1.85 -0.81,-2.44 -2.29,-2.44 h -1.04 c -0.64,0 -1.17,0.49 -1.17,1.09 v 5.78 c 0,0.6 0.52,1.09 1.17,1.09 h 1.04 z" />
		<path
   inkscape:connector-curvature="0"
   id="path5481"
   d="m 981.55,1024.37 h 2.33 c 0.64,0 1.17,0.49 1.17,1.09 v 20.03 c 0,0.6 0.52,1.09 1.17,1.09 h 5.35 c 0.64,0 1.17,0.49 1.17,1.09 v 1.53 c 0,0.6 -0.52,1.09 -1.17,1.09 h -10.02 c -0.64,0 -1.17,-0.49 -1.17,-1.09 v -23.73 c 0.01,-0.61 0.53,-1.1 1.17,-1.1 z" />
		<path
   inkscape:connector-curvature="0"
   id="path5483"
   d="m 994.82,1044.13 v -18.67 c 0,-0.6 0.52,-1.09 1.17,-1.09 h 2.33 c 0.64,0 1.17,0.49 1.17,1.09 v 18.97 c 0,1.85 0.89,2.52 2.38,2.52 1.49,0 2.38,-0.67 2.38,-2.52 v -18.97 c 0,-0.6 0.52,-1.09 1.17,-1.09 h 2.17 c 0.64,0 1.17,0.49 1.17,1.09 v 18.67 c 0,4.14 -2.38,6.51 -6.96,6.51 -4.6,0 -6.98,-2.37 -6.98,-6.51 z" />
		<path
   inkscape:connector-curvature="0"
   id="path5485"
   d="m 1011.72,1044.13 v -13.62 c 0,-4.14 2.38,-6.51 6.96,-6.51 4.59,0 6.96,2.37 6.96,6.51 v 1.13 c 0,0.6 -0.52,1.09 -1.17,1.09 h -2.08 c -0.64,0 -1.17,-0.49 -1.17,-1.09 v -1.39 c 0,-1.85 -0.93,-2.55 -2.42,-2.55 -1.49,0 -2.42,0.7 -2.42,2.55 v 14.17 c 0,1.85 0.93,2.52 2.42,2.52 1.49,0 2.42,-0.67 2.42,-2.52 v -3.98 c 0,-0.6 -0.52,-1.09 -1.17,-1.09 v 0 c -0.64,0 -1.17,-0.49 -1.17,-1.09 v -1.53 c 0,-0.6 0.52,-1.09 1.17,-1.09 h 4.42 c 0.64,0 1.17,0.49 1.17,1.09 v 7.39 c 0,4.14 -2.38,6.51 -6.96,6.51 -4.58,0.01 -6.96,-2.36 -6.96,-6.5 z" />
		<path
   inkscape:connector-curvature="0"
   id="path5487"
   d="m 1029.83,1024.37 h 2.33 c 0.64,0 1.17,0.49 1.17,1.09 v 8.37 c 0,0.6 0.52,1.09 1.17,1.09 h 2.67 c 0.64,0 1.17,-0.49 1.17,-1.09 v -8.37 c 0,-0.6 0.52,-1.09 1.17,-1.09 h 2.33 c 0.64,0 1.17,0.49 1.17,1.09 v 23.73 c 0,0.6 -0.52,1.09 -1.17,1.09 h -2.33 c -0.64,0 -1.17,-0.49 -1.17,-1.09 v -9.48 c 0,-0.6 -0.52,-1.09 -1.17,-1.09 h -2.67 c -0.64,0 -1.17,0.49 -1.17,1.09 v 9.48 c 0,0.6 -0.52,1.09 -1.17,1.09 h -2.33 c -0.64,0 -1.17,-0.49 -1.17,-1.09 v -23.73 c 0,-0.6 0.52,-1.09 1.17,-1.09 z" />
		<path
   inkscape:connector-curvature="0"
   id="path5489"
   d="m 1048.97,1028.07 h -2.55 c -0.64,0 -1.17,-0.49 -1.17,-1.09 v -1.53 c 0,-0.6 0.52,-1.09 1.17,-1.09 h 12.1 c 0.64,0 1.17,0.49 1.17,1.09 v 1.53 c 0,0.6 -0.52,1.09 -1.17,1.09 h -2.55 c -0.64,0 -1.17,0.49 -1.17,1.09 v 20.03 c 0,0.6 -0.52,1.09 -1.17,1.09 h -2.33 c -0.64,0 -1.17,-0.49 -1.17,-1.09 v -20.03 c 0.01,-0.6 -0.51,-1.09 -1.16,-1.09 z" />
	</g><g
   id="g5497"
   transform="rotate(-166.73722,941.63359,948.08909)">
		<g
   id="g5495">
			<path
   style="fill:#fbae17"
   inkscape:connector-curvature="0"
   id="path5493"
   d="m 978.37,1005.75 c 2.35,3.21 4.7,6.42 7.06,9.63 0.95,1.3 2.61,1.96 4.1,1.08 1.28,-0.76 2.04,-2.79 1.08,-4.1 -2.35,-3.21 -4.7,-6.42 -7.06,-9.63 -0.95,-1.3 -2.61,-1.96 -4.1,-1.08 -1.29,0.75 -2.05,2.78 -1.08,4.1 z"
   class="st1" />
		</g>
	</g><g
   id="g5503"
   transform="rotate(-166.73722,941.63359,948.08909)">
		<g
   id="g5501">
			<path
   style="fill:#fbae17"
   inkscape:connector-curvature="0"
   id="path5499"
   d="m 1002.8,977.66 c 3.45,1.99 6.9,3.98 10.35,5.96 3.35,1.93 6.38,-3.25 3.03,-5.18 -3.45,-1.99 -6.9,-3.98 -10.35,-5.96 -3.35,-1.93 -6.38,3.25 -3.03,5.18 z"
   class="st1" />
		</g>
	</g><g
   id="g5509"
   transform="rotate(-166.73722,941.63359,948.08909)">
		<g
   id="g5507">
			<path
   style="fill:#fbae17"
   inkscape:connector-curvature="0"
   id="path5505"
   d="m 1010.52,947.76 c 3.98,0.2 7.95,0.39 11.93,0.59 3.86,0.19 3.85,-5.81 0,-6 -3.98,-0.2 -7.95,-0.39 -11.93,-0.59 -3.86,-0.19 -3.85,5.81 0,6 z"
   class="st1" />
		</g>
	</g><g
   id="g5515"
   transform="rotate(-166.73722,941.63359,948.08909)">
		<g
   id="g5513">
			<path
   style="fill:#fbae17"
   inkscape:connector-curvature="0"
   id="path5511"
   d="m 1002.67,912.33 c 3.55,-1.79 7.11,-3.58 10.66,-5.37 3.45,-1.74 0.41,-6.92 -3.03,-5.18 -3.55,1.79 -7.11,3.58 -10.66,5.37 -3.45,1.74 -0.41,6.91 3.03,5.18 z"
   class="st1" />
		</g>
	</g><path
   style="fill:#b3b3b3"
   inkscape:connector-curvature="0"
   id="path5517"
   d="m 939.65,974.09 c 7.79,1.82 9.42,-10.15 9.42,-10.15 l -14.47,-3.39 c 0,0.01 -3.86,11.46 5.05,13.54 z"
   class="st8" /><rect
   style="fill:#b3b3b3;stroke-width:0.99997145"
   id="rect5519"
   height="24.999285"
   width="7.9997716"
   class="st8"
   transform="rotate(15.986322)"
   y="627.96588"
   x="1151.9758" /><rect
   style="fill:#b3b3b3;stroke-width:0.99997145"
   id="rect5521"
   height="24.999285"
   width="7.9997716"
   class="st8"
   transform="rotate(15.986322)"
   y="627.9632"
   x="1181.9752" /><g
   id="g5535"
   transform="matrix(3.2812951,0,0,3.2812951,-76.307164,-1936.7711)"
   inkscape:export-xdpi="90"
   inkscape:export-ydpi="90">
		<path
   inkscape:connector-curvature="0"
   id="path5523"
   d="m 107.54,1249.62 c 0,-1.06 0.92,-1.92 2.06,-1.92 h 10.08 c 8.25,0 12.3,3.99 12.3,11.3 v 4.51 c 0,7.32 -4.05,11.3 -12.3,11.3 h -1.84 c -1.14,0 -2.06,0.86 -2.06,1.92 v 14.79 c 0,1.06 -0.92,1.92 -2.06,1.92 h -4.12 c -1.14,0 -2.06,-0.86 -2.06,-1.92 z m 12.15,18.66 c 2.62,0 4.05,-1.05 4.05,-4.31 v -5.42 c 0,-3.27 -1.42,-4.31 -4.05,-4.31 h -1.84 c -1.14,0 -2.06,0.86 -2.06,1.92 v 10.21 c 0,1.06 0.92,1.92 2.06,1.92 h 1.84 z" />
		<path
   inkscape:connector-curvature="0"
   id="path5525"
   d="m 138.55,1247.7 h 4.12 c 1.14,0 2.06,0.86 2.06,1.92 v 35.37 c 0,1.06 0.92,1.92 2.06,1.92 h 9.45 c 1.14,0 2.06,0.86 2.06,1.92 v 2.7 c 0,1.06 -0.92,1.92 -2.06,1.92 h -17.69 c -1.14,0 -2.06,-0.86 -2.06,-1.92 v -41.9 c -0.01,-1.07 0.92,-1.93 2.06,-1.93 z" />
		<path
   inkscape:connector-curvature="0"
   id="path5527"
   d="m 161.98,1282.59 v -32.97 c 0,-1.06 0.92,-1.92 2.06,-1.92 h 4.12 c 1.14,0 2.06,0.86 2.06,1.92 v 33.5 c 0,3.27 1.57,4.44 4.2,4.44 2.63,0 4.2,-1.18 4.2,-4.44 v -33.5 c 0,-1.06 0.92,-1.92 2.06,-1.92 h 3.82 c 1.14,0 2.06,0.86 2.06,1.92 v 32.97 c 0,7.32 -4.2,11.5 -12.3,11.5 -8.08,0 -12.28,-4.18 -12.28,-11.5 z" />
		<path
   inkscape:connector-curvature="0"
   id="path5529"
   d="m 191.82,1282.59 v -24.05 c 0,-7.32 4.2,-11.5 12.3,-11.5 8.1,0 12.3,4.18 12.3,11.5 v 2 c 0,1.06 -0.92,1.92 -2.06,1.92 h -3.67 c -1.14,0 -2.06,-0.86 -2.06,-1.92 v -2.46 c 0,-3.27 -1.65,-4.51 -4.27,-4.51 -2.62,0 -4.27,1.24 -4.27,4.51 v 25.03 c 0,3.27 1.65,4.44 4.27,4.44 2.62,0 4.27,-1.18 4.27,-4.44 v -7.03 c 0,-1.06 -0.92,-1.92 -2.06,-1.92 v 0 c -1.14,0 -2.06,-0.86 -2.06,-1.92 v -2.7 c 0,-1.06 0.92,-1.92 2.06,-1.92 h 7.8 c 1.14,0 2.06,0.86 2.06,1.92 v 13.04 c 0,7.32 -4.2,11.5 -12.3,11.5 -8.11,0.01 -12.31,-4.17 -12.31,-11.49 z" />
		<path
   inkscape:connector-curvature="0"
   id="path5531"
   d="m 223.8,1247.7 h 4.12 c 1.14,0 2.06,0.86 2.06,1.92 v 14.79 c 0,1.06 0.92,1.92 2.06,1.92 h 4.72 c 1.14,0 2.06,-0.86 2.06,-1.92 v -14.79 c 0,-1.06 0.92,-1.92 2.06,-1.92 H 245 c 1.14,0 2.06,0.86 2.06,1.92 v 41.9 c 0,1.06 -0.92,1.92 -2.06,1.92 h -4.12 c -1.14,0 -2.06,-0.86 -2.06,-1.92 v -16.75 c 0,-1.06 -0.92,-1.92 -2.06,-1.92 h -4.72 c -1.14,0 -2.06,0.86 -2.06,1.92 v 16.75 c 0,1.06 -0.92,1.92 -2.06,1.92 h -4.12 c -1.14,0 -2.06,-0.86 -2.06,-1.92 v -41.9 c -0.01,-1.06 0.92,-1.92 2.06,-1.92 z" />
		<path
   inkscape:connector-curvature="0"
   id="path5533"
   d="m 257.61,1254.23 h -4.5 c -1.14,0 -2.06,-0.86 -2.06,-1.92 v -2.7 c 0,-1.06 0.92,-1.92 2.06,-1.92 h 21.37 c 1.14,0 2.06,0.86 2.06,1.92 v 2.7 c 0,1.06 -0.92,1.92 -2.06,1.92 h -4.5 c -1.14,0 -2.06,0.86 -2.06,1.92 v 35.37 c 0,1.06 -0.92,1.92 -2.06,1.92 h -4.12 c -1.14,0 -2.06,-0.86 -2.06,-1.92 v -35.37 c -0.01,-1.06 -0.93,-1.92 -2.07,-1.92 z" />
	</g><g
   id="g5607"
   transform="matrix(3.2812951,0,0,3.2812951,-76.307164,-1936.7711)"
   inkscape:export-xdpi="90"
   inkscape:export-ydpi="90">
		<path
   style="fill:#ffffff;stroke:#fbae17;stroke-width:6;stroke-miterlimit:10"
   inkscape:connector-curvature="0"
   id="path5537"
   d="m 168.22,1191.05 47.16,0.07 4.71,-22.31 c 23.77,-16.08 32.92,-45.84 22.79,-70.17 -8.23,-19.76 -28.42,-34.07 -51.43,-33.92 -22.63,0.15 -42.23,14.27 -50.45,33.4 -10.36,24.12 -1.64,53.96 21.85,70.59 1.79,7.45 3.58,14.9 5.37,22.34 z"
   class="st0" />
		<g
   id="g5545">
			<path
   style="fill:#fbae17"
   inkscape:connector-curvature="0"
   id="path5539"
   d="m 163.95,1196.44 55.62,0.08 c 0.52,3.51 1.32,11.78 -3.26,15.11 -1.99,1.45 -4.27,1.44 -5.22,1.43 -7.29,-0.04 -21.36,0.03 -39.96,-0.06 0,0.01 -10.08,0 -7.18,-16.56 z"
   class="st1" />
			<path
   style="fill:#fbae17"
   inkscape:connector-curvature="0"
   id="path5541"
   d="m 171.88,1213.03 39.75,0.06 c 0.37,2.97 0.94,9.96 -2.33,12.78 -1.42,1.23 -3.05,1.22 -3.73,1.21 -5.21,-0.03 -15.26,0.03 -28.56,-0.04 -0.01,0 -7.21,-0.01 -5.13,-14.01 z"
   class="st1" />
			<path
   style="fill:#fbae17"
   inkscape:connector-curvature="0"
   id="path5543"
   d="m 177.44,1227.06 29.39,0.04 c 0.27,2.48 0.69,8.31 -1.73,10.67 -1.05,1.02 -2.25,1.02 -2.76,1.01 -3.85,-0.02 -11.29,0.02 -21.11,-0.03 -0.01,0 -5.33,-0.01 -3.79,-11.69 z"
   class="st1" />
		</g>
		
			<ellipse
   style="fill:#e2e2e2"
   id="ellipse5547"
   ry="44"
   rx="43.5"
   cy="1118.38"
   cx="192.17"
   class="st4"
   transform="matrix(0.9972,-0.0753,0.0753,0.9972,-83.648,17.6401)" />
		<path
   style="fill:#ffffff;stroke:#000000;stroke-miterlimit:10"
   inkscape:connector-curvature="0"
   id="path5549"
   d="M 222.47,1159.01"
   class="st6" />
		<path
   style="fill:#ffffff"
   inkscape:connector-curvature="0"
   id="path5551"
   d="M 156.21,1168.81"
   class="st7" />
		<g
   id="g5557">
			<g
   id="g5555">
				<path
   style="fill:#fbae17"
   inkscape:connector-curvature="0"
   id="path5553"
   d="m 136.66,1164.38 c -2.98,2.63 -5.97,5.27 -8.95,7.9 -2.9,2.56 1.36,6.79 4.24,4.24 2.98,-2.63 5.97,-5.27 8.95,-7.9 2.9,-2.56 -1.36,-6.79 -4.24,-4.24 z"
   class="st1" />
			</g>
		</g>
		<g
   id="g5563">
			<g
   id="g5561">
				<path
   style="fill:#fbae17"
   inkscape:connector-curvature="0"
   id="path5559"
   d="m 121.41,1130.12 c -3.79,1.2 -7.59,2.41 -11.38,3.61 -3.67,1.16 -2.1,6.96 1.6,5.79 3.79,-1.2 7.59,-2.41 11.38,-3.61 3.66,-1.16 2.09,-6.96 -1.6,-5.79 z"
   class="st1" />
			</g>
		</g>
		<g
   id="g5569">
			<g
   id="g5567">
				<path
   style="fill:#fbae17"
   inkscape:connector-curvature="0"
   id="path5565"
   d="m 123.42,1099.18 c -3.93,-0.66 -7.85,-1.32 -11.78,-1.98 -3.78,-0.63 -5.4,5.15 -1.6,5.79 3.93,0.66 7.85,1.32 11.78,1.98 3.78,0.63 5.41,-5.15 1.6,-5.79 z"
   class="st1" />
			</g>
		</g>
		<g
   id="g5575">
			<g
   id="g5573">
				<path
   style="fill:#fbae17"
   inkscape:connector-curvature="0"
   id="path5571"
   d="m 141.39,1067.75 c -3.09,-2.51 -6.18,-5.02 -9.27,-7.53 -1.26,-1.02 -3.01,-1.23 -4.24,0 -1.06,1.06 -1.26,3.22 0,4.24 3.09,2.51 6.18,5.02 9.27,7.53 1.26,1.02 3.01,1.23 4.24,0 1.05,-1.05 1.26,-3.21 0,-4.24 z"
   class="st1" />
			</g>
		</g>
		<g
   id="g5581">
			<g
   id="g5579">
				<path
   style="fill:#fbae17"
   inkscape:connector-curvature="0"
   id="path5577"
   d="m 243.19,1169.62 c 2.98,2.63 5.97,5.27 8.95,7.9 2.89,2.55 7.14,-1.68 4.24,-4.24 -2.98,-2.63 -5.97,-5.27 -8.95,-7.9 -2.88,-2.54 -7.14,1.68 -4.24,4.24 z"
   class="st1" />
			</g>
		</g>
		<g
   id="g5587">
			<g
   id="g5585">
				<path
   style="fill:#fbae17"
   inkscape:connector-curvature="0"
   id="path5583"
   d="m 261.09,1136.91 c 3.79,1.2 7.59,2.41 11.38,3.61 3.69,1.17 5.27,-4.62 1.6,-5.79 -3.79,-1.2 -7.59,-2.41 -11.38,-3.61 -3.7,-1.17 -5.28,4.62 -1.6,5.79 z"
   class="st1" />
			</g>
		</g>
		<g
   id="g5593">
			<g
   id="g5591">
				<path
   style="fill:#fbae17"
   inkscape:connector-curvature="0"
   id="path5589"
   d="m 262.26,1105.97 c 3.93,-0.66 7.85,-1.32 11.78,-1.98 3.8,-0.64 2.19,-6.42 -1.6,-5.79 -3.93,0.66 -7.85,1.32 -11.78,1.98 -3.79,0.64 -2.18,6.42 1.6,5.79 z"
   class="st1" />
			</g>
		</g>
		<g
   id="g5599">
			<g
   id="g5597">
				<path
   style="fill:#fbae17"
   inkscape:connector-curvature="0"
   id="path5595"
   d="m 246.94,1073 c 3.09,-2.51 6.18,-5.02 9.27,-7.53 1.26,-1.02 1.06,-3.18 0,-4.24 -1.24,-1.24 -2.98,-1.03 -4.24,0 -3.09,2.51 -6.18,5.02 -9.27,7.53 -1.26,1.02 -1.06,3.18 0,4.24 1.24,1.24 2.98,1.02 4.24,0 z"
   class="st1" />
			</g>
		</g>
		<path
   style="fill:#b3b3b3"
   inkscape:connector-curvature="0"
   id="path5601"
   d="m 191.5,1145.9 c 8,0.11 7.03,-11.93 7.03,-11.93 l -14.86,-0.21 c 0.01,-0.01 -1.31,12 7.83,12.14 z"
   class="st8" />
		<rect
   style="fill:#b3b3b3"
   id="rect5603"
   height="25"
   width="8"
   class="st8"
   transform="matrix(0.998,0.0634,-0.0634,0.998,70.5544,-9.0714)"
   y="1095.35"
   x="174.3" />
		
			<rect
   style="fill:#b3b3b3"
   id="rect5605"
   height="25"
   width="8"
   class="st8"
   transform="matrix(0.998,0.0634,-0.0634,0.998,70.735,-10.9646)"
   y="1097.25"
   x="204.24001" />
	</g><path
   style="fill:none;stroke:#fbae17;stroke-width:2;stroke-miterlimit:10"
   inkscape:connector-curvature="0"
   id="path5609"
   d="m 791,1121 c 3.63,-0.79 11.16,3.11 12,7"
   class="st9" /><path
   style="fill:none;stroke:#fbae17;stroke-width:2;stroke-miterlimit:10"
   inkscape:connector-curvature="0"
   id="path5611"
   d="M 808,1132"
   class="st9" /><path
   style="fill:none;stroke:#fbae17;stroke-width:2;stroke-miterlimit:10"
   inkscape:connector-curvature="0"
   id="path5613"
   d="M 789,1114"
   class="st9" />
<g
   id="Capa_2">
</g>
</svg>