<svg xmlns="http://www.w3.org/2000/svg" xmlns:xlink="http://www.w3.org/1999/xlink" version="1.1" x="0px" y="0px" viewBox="0 0 65 81.25" enable-background="new 0 0 65 65" xml:space="preserve"><path d="M62.863,21.452L33.238,4.702c-0.01-0.005-0.021-0.008-0.03-0.013c-0.054-0.029-0.11-0.051-0.167-0.073  c-0.036-0.014-0.071-0.03-0.107-0.042c-0.055-0.017-0.111-0.026-0.168-0.036c-0.039-0.007-0.077-0.017-0.116-0.021  c-0.059-0.006-0.117-0.004-0.176-0.003c-0.037,0.001-0.074-0.001-0.11,0.002c-0.058,0.005-0.115,0.019-0.173,0.031  c-0.038,0.008-0.076,0.014-0.113,0.025c-0.049,0.014-0.097,0.036-0.146,0.056c-0.045,0.018-0.09,0.036-0.132,0.058  c-0.012,0.006-0.025,0.01-0.038,0.017L2.137,21.452c-0.721,0.408-0.975,1.323-0.567,2.044c0.276,0.488,0.784,0.762,1.307,0.762  c0.25,0,0.503-0.063,0.737-0.195l4.741-2.68v37.609c0,0.828,0.671,1.5,1.5,1.5h6.74h31.813h6.74c0.828,0,1.5-0.672,1.5-1.5V21.383  l4.74,2.68c0.233,0.132,0.486,0.195,0.737,0.195c0.522,0,1.031-0.274,1.307-0.762C63.839,22.774,63.584,21.859,62.863,21.452z   M46.906,44.913H18.094v-4h28.813V44.913z M46.906,37.913H18.094v-4h28.813V37.913z M18.094,47.913h28.813v4H18.094V47.913z   M46.906,30.913H18.094v-2.58h28.813V30.913z M18.094,57.492v-2.579h28.813v2.579H18.094z M53.646,57.492h-3.74V26.833  c0-0.829-0.672-1.5-1.5-1.5H16.594c-0.829,0-1.5,0.671-1.5,1.5v30.659h-3.74V19.687L32.5,7.73l21.146,11.956V57.492z"/><text x="0" y="80" fill="#000000" font-size="5px" font-weight="bold" font-family="'Helvetica Neue', Helvetica, Arial-Unicode, Arial, Sans-serif">Created by Adnen Kadri</text><text x="0" y="85" fill="#000000" font-size="5px" font-weight="bold" font-family="'Helvetica Neue', Helvetica, Arial-Unicode, Arial, Sans-serif">from the Noun Project</text></svg>