<?xml version="1.0" encoding="UTF-8" standalone="no"?>
<!-- Created with Inkscape (http://www.inkscape.org/) -->

<svg
   xmlns:dc="http://purl.org/dc/elements/1.1/"
   xmlns:cc="http://creativecommons.org/ns#"
   xmlns:rdf="http://www.w3.org/1999/02/22-rdf-syntax-ns#"
   xmlns:svg="http://www.w3.org/2000/svg"
   xmlns="http://www.w3.org/2000/svg"
   xmlns:xlink="http://www.w3.org/1999/xlink"
   xmlns:sodipodi="http://sodipodi.sourceforge.net/DTD/sodipodi-0.dtd"
   xmlns:inkscape="http://www.inkscape.org/namespaces/inkscape"
   width="210mm"
   height="297mm"
   viewBox="0 0 744.09448819 1052.3622047"
   id="svg2"
   version="1.1"
   inkscape:version="0.91 r13725"
   sodipodi:docname="organigrama.svg">
  <defs
     id="defs4">
    <linearGradient
       id="linearGradient4946"
       inkscape:collect="always">
      <stop
         id="stop4948"
         offset="0"
         style="stop-color:#8cd34b;stop-opacity:0.72941178" />
      <stop
         id="stop4950"
         offset="1"
         style="stop-color:#ff2929;stop-opacity:0.81960785" />
    </linearGradient>
    <linearGradient
       inkscape:collect="always"
       id="linearGradient4934">
      <stop
         style="stop-color:#7e29ff;stop-opacity:0.72941178"
         offset="0"
         id="stop4936" />
      <stop
         style="stop-color:#8cd34c;stop-opacity:0.72941178"
         offset="1"
         id="stop4938" />
    </linearGradient>
    <linearGradient
       id="linearGradient4924"
       inkscape:collect="always">
      <stop
         id="stop4926"
         offset="0"
         style="stop-color:#2929ff;stop-opacity:0.81960785" />
      <stop
         id="stop4928"
         offset="1"
         style="stop-color:#7e29ff;stop-opacity:0.72941178" />
    </linearGradient>
    <linearGradient
       inkscape:collect="always"
       id="linearGradient4912">
      <stop
         style="stop-color:#ff2929;stop-opacity:1;"
         offset="0"
         id="stop4914" />
      <stop
         style="stop-color:#2929ff;stop-opacity:0.81960785"
         offset="1"
         id="stop4916" />
    </linearGradient>
    <linearGradient
       inkscape:collect="always"
       xlink:href="#linearGradient4912"
       id="linearGradient4918"
       x1="180.33676"
       y1="136.90955"
       x2="712.75161"
       y2="136.90955"
       gradientUnits="userSpaceOnUse"
       gradientTransform="matrix(0.29799773,0,0,0.37347551,-891.63695,-458.69505)" />
    <linearGradient
       inkscape:collect="always"
       xlink:href="#linearGradient4924"
       id="linearGradient4922"
       gradientUnits="userSpaceOnUse"
       gradientTransform="matrix(0,0.29799773,-0.37347551,0,-325.59776,-181.01752)"
       x1="180.33676"
       y1="136.90955"
       x2="522.92279"
       y2="142.31902" />
    <linearGradient
       inkscape:collect="always"
       xlink:href="#linearGradient4934"
       id="linearGradient4932"
       gradientUnits="userSpaceOnUse"
       gradientTransform="matrix(-0.29799773,0,0,-0.37347551,-623.47834,378.96076)"
       x1="187.11636"
       y1="142.31902"
       x2="550.0412"
       y2="126.09061" />
    <linearGradient
       inkscape:collect="always"
       xlink:href="#linearGradient4946"
       id="linearGradient4944"
       gradientUnits="userSpaceOnUse"
       gradientTransform="matrix(0,-0.29799773,0.37347551,0,-1201.6394,89.161387)"
       x1="370.16553"
       y1="136.90955"
       x2="536.48199"
       y2="104.45272" />
  </defs>
  <sodipodi:namedview
     id="base"
     pagecolor="#ffffff"
     bordercolor="#666666"
     borderopacity="1.0"
     inkscape:pageopacity="0.0"
     inkscape:pageshadow="2"
     inkscape:zoom="0.49497475"
     inkscape:cx="-791.95872"
     inkscape:cy="1083.9412"
     inkscape:document-units="px"
     inkscape:current-layer="layer1"
     showgrid="false"
     inkscape:window-width="1366"
     inkscape:window-height="705"
     inkscape:window-x="-8"
     inkscape:window-y="-8"
     inkscape:window-maximized="1" />
  <metadata
     id="metadata7">
    <rdf:RDF>
      <cc:Work
         rdf:about="">
        <dc:format>image/svg+xml</dc:format>
        <dc:type
           rdf:resource="http://purl.org/dc/dcmitype/StillImage" />
        <dc:title></dc:title>
      </cc:Work>
    </rdf:RDF>
  </metadata>
  <g
     inkscape:label="Capa 1"
     inkscape:groupmode="layer"
     id="layer1">
    <g
       id="g4952">
      <ellipse
         ry="199.00005"
         rx="202.26236"
         cy="-221.62289"
         cx="-943.25067"
         id="path4136"
         style="fill:#ff2a2a;fill-opacity:0.81818183;stroke:none;stroke-width:6.80000019;stroke-linecap:round;stroke-linejoin:round;stroke-miterlimit:4;stroke-dasharray:none;stroke-dashoffset:0;stroke-opacity:1" />
      <text
         sodipodi:linespacing="125%"
         id="text4138"
         y="-293.34372"
         x="-1090.9647"
         style="font-style:normal;font-weight:normal;font-size:40px;line-height:125%;font-family:sans-serif;letter-spacing:0px;word-spacing:0px;fill:#000000;fill-opacity:1;stroke:none;stroke-width:1px;stroke-linecap:butt;stroke-linejoin:miter;stroke-opacity:1"
         xml:space="preserve"><tspan
           style="font-style:normal;font-variant:normal;font-weight:normal;font-stretch:normal;font-family:Bahnschrift;-inkscape-font-specification:Bahnschrift"
           y="-293.34372"
           x="-1090.9647"
           id="tspan4140"
           sodipodi:role="line">MARKETING &amp; </tspan><tspan
           style="font-style:normal;font-variant:normal;font-weight:normal;font-stretch:normal;font-family:Bahnschrift;-inkscape-font-specification:Bahnschrift"
           id="tspan4142"
           y="-243.3437"
           x="-1090.9647"
           sodipodi:role="line">COMMUNICATION</tspan></text>
      <text
         transform="scale(0.98102713,1.0193398)"
         sodipodi:linespacing="125%"
         id="text4138-7"
         y="-178.04797"
         x="-972.30829"
         style="font-style:normal;font-weight:normal;font-size:31.14835358px;line-height:125%;font-family:sans-serif;text-align:center;letter-spacing:0px;word-spacing:0px;text-anchor:middle;fill:#1a1a1a;fill-opacity:1;stroke:none;stroke-width:1px;stroke-linecap:butt;stroke-linejoin:miter;stroke-opacity:1"
         xml:space="preserve"><tspan
           style="font-style:normal;font-variant:normal;font-weight:normal;font-stretch:normal;font-family:Bahnschrift;-inkscape-font-specification:Bahnschrift;text-align:center;text-anchor:middle;fill:#1a1a1a"
           id="tspan4142-7"
           y="-178.04797"
           x="-972.30829"
           sodipodi:role="line">CO-FUNDER</tspan><tspan
           id="tspan4171"
           style="font-style:normal;font-variant:normal;font-weight:normal;font-stretch:normal;font-family:Bahnschrift;-inkscape-font-specification:Bahnschrift;text-align:center;text-anchor:middle;fill:#1a1a1a"
           y="-139.11253"
           x="-972.30829"
           sodipodi:role="line">CMO</tspan><tspan
           id="tspan4173"
           style="font-style:normal;font-variant:normal;font-weight:normal;font-stretch:normal;font-family:Bahnschrift;-inkscape-font-specification:Bahnschrift;text-align:center;text-anchor:middle;fill:#1a1a1a"
           y="-100.17709"
           x="-972.30829"
           sodipodi:role="line">Fernanda Mayer</tspan></text>
      <ellipse
         style="fill:#8dd35f;fill-opacity:0.72727272;stroke:none;stroke-width:6.80000019;stroke-linecap:round;stroke-linejoin:round;stroke-miterlimit:4;stroke-dasharray:none;stroke-dashoffset:0;stroke-opacity:1"
         id="ellipse4175"
         cx="-937.14911"
         cy="126.0523"
         rx="202.26236"
         ry="199.00005" />
      <text
         xml:space="preserve"
         style="font-style:normal;font-weight:normal;font-size:40px;line-height:125%;font-family:sans-serif;text-align:start;letter-spacing:0px;word-spacing:0px;text-anchor:start;fill:#000000;fill-opacity:1;stroke:none;stroke-width:1px;stroke-linecap:butt;stroke-linejoin:miter;stroke-opacity:1"
         x="-1070.5383"
         y="46.250271"
         id="text4177"
         sodipodi:linespacing="125%"><tspan
           sodipodi:role="line"
           id="tspan4179"
           x="-1070.5383"
           y="46.250271"
           style="font-style:normal;font-variant:normal;font-weight:normal;font-stretch:normal;font-family:Bahnschrift;-inkscape-font-specification:Bahnschrift;text-align:start;text-anchor:start">SECURITY &amp; </tspan><tspan
           sodipodi:role="line"
           x="-1070.5383"
           y="96.250267"
           id="tspan4181"
           style="font-style:normal;font-variant:normal;font-weight:normal;font-stretch:normal;font-family:Bahnschrift;-inkscape-font-specification:Bahnschrift;text-align:start;text-anchor:start">INFORMATION</tspan></text>
      <text
         xml:space="preserve"
         style="font-style:normal;font-weight:normal;font-size:31.14835358px;line-height:125%;font-family:sans-serif;text-align:center;letter-spacing:0px;word-spacing:0px;text-anchor:middle;fill:#1a1a1a;fill-opacity:1;stroke:none;stroke-width:1px;stroke-linecap:butt;stroke-linejoin:miter;stroke-opacity:1"
         x="-959.95203"
         y="166.99478"
         id="text4183"
         sodipodi:linespacing="125%"
         transform="scale(0.98102713,1.0193398)"><tspan
           sodipodi:role="line"
           x="-959.95203"
           y="166.99478"
           id="tspan4185"
           style="font-style:normal;font-variant:normal;font-weight:normal;font-stretch:normal;font-family:Bahnschrift;-inkscape-font-specification:Bahnschrift;text-align:center;text-anchor:middle;fill:#1a1a1a">CO-FUNDER</tspan><tspan
           sodipodi:role="line"
           x="-959.95203"
           y="205.93024"
           style="font-style:normal;font-variant:normal;font-weight:normal;font-stretch:normal;font-family:Bahnschrift;-inkscape-font-specification:Bahnschrift;text-align:center;text-anchor:middle;fill:#1a1a1a"
           id="tspan4189">CISO</tspan><tspan
           id="tspan4213"
           sodipodi:role="line"
           x="-959.95203"
           y="244.86566"
           style="font-style:normal;font-variant:normal;font-weight:normal;font-stretch:normal;font-family:Bahnschrift;-inkscape-font-specification:Bahnschrift;text-align:center;text-anchor:middle;fill:#1a1a1a">Levi Brittos</tspan></text>
      <g
         transform="translate(-450.50773,-274.96454)"
         id="g4864">
        <ellipse
           ry="199.00005"
           rx="202.26236"
           cy="55.34164"
           cx="-122.74295"
           id="ellipse4191"
           style="fill:#2a2aff;fill-opacity:0.81818183;stroke:none;stroke-width:6.80000019;stroke-linecap:round;stroke-linejoin:round;stroke-miterlimit:4;stroke-dasharray:none;stroke-dashoffset:0;stroke-opacity:1" />
        <text
           sodipodi:linespacing="125%"
           id="text4193"
           y="-18.399473"
           x="-226.01031"
           style="font-style:normal;font-weight:normal;font-size:40px;line-height:125%;font-family:sans-serif;letter-spacing:0px;word-spacing:0px;fill:#000000;fill-opacity:1;stroke:none;stroke-width:1px;stroke-linecap:butt;stroke-linejoin:miter;stroke-opacity:1"
           xml:space="preserve"><tspan
             style="font-style:normal;font-variant:normal;font-weight:normal;font-stretch:normal;font-family:Bahnschrift;-inkscape-font-specification:Bahnschrift"
             id="tspan4197"
             y="-18.399473"
             x="-226.01031"
             sodipodi:role="line">TECH &amp;</tspan><tspan
             style="font-style:normal;font-variant:normal;font-weight:normal;font-stretch:normal;font-family:Bahnschrift;-inkscape-font-specification:Bahnschrift"
             y="31.600527"
             x="-226.01031"
             sodipodi:role="line"
             id="tspan4209">INNOVATION</tspan></text>
        <text
           transform="scale(0.98102713,1.0193398)"
           sodipodi:linespacing="125%"
           id="text4199"
           y="95.64373"
           x="-119.45697"
           style="font-style:normal;font-weight:normal;font-size:31.14835358px;line-height:125%;font-family:sans-serif;text-align:center;letter-spacing:0px;word-spacing:0px;text-anchor:middle;fill:#1a1a1a;fill-opacity:1;stroke:none;stroke-width:1px;stroke-linecap:butt;stroke-linejoin:miter;stroke-opacity:1"
           xml:space="preserve"><tspan
             style="font-style:normal;font-variant:normal;font-weight:normal;font-stretch:normal;font-family:Bahnschrift;-inkscape-font-specification:Bahnschrift;text-align:center;text-anchor:middle;fill:#1a1a1a"
             id="tspan4201"
             y="95.64373"
             x="-119.45697"
             sodipodi:role="line">CO-FUNDER</tspan><tspan
             id="tspan4203"
             style="font-style:normal;font-variant:normal;font-weight:normal;font-stretch:normal;font-family:Bahnschrift;-inkscape-font-specification:Bahnschrift;text-align:center;text-anchor:middle;fill:#1a1a1a"
             y="134.57918"
             x="-119.45697"
             sodipodi:role="line">CTO</tspan><tspan
             id="tspan4205"
             style="font-style:normal;font-variant:normal;font-weight:normal;font-stretch:normal;font-family:Bahnschrift;-inkscape-font-specification:Bahnschrift;text-align:center;text-anchor:middle;fill:#1a1a1a"
             y="173.51462"
             x="-119.45697"
             sodipodi:role="line">Angela Rosa</tspan></text>
      </g>
      <ellipse
         ry="199.00005"
         rx="202.26236"
         cy="126.0523"
         cx="-579.14911"
         id="ellipse4215"
         style="fill:#7f2aff;fill-opacity:0.72727272;stroke:none;stroke-width:6.80000019;stroke-linecap:round;stroke-linejoin:round;stroke-miterlimit:4;stroke-dasharray:none;stroke-dashoffset:0;stroke-opacity:1" />
      <text
         sodipodi:linespacing="125%"
         id="text4217"
         y="70.493919"
         x="-629.80731"
         style="font-style:normal;font-weight:normal;font-size:40px;line-height:125%;font-family:sans-serif;text-align:start;letter-spacing:0px;word-spacing:0px;text-anchor:start;fill:#000000;fill-opacity:1;stroke:none;stroke-width:1px;stroke-linecap:butt;stroke-linejoin:miter;stroke-opacity:1"
         xml:space="preserve"><tspan
           style="font-style:normal;font-variant:normal;font-weight:normal;font-stretch:normal;font-family:Bahnschrift;-inkscape-font-specification:Bahnschrift;text-align:start;text-anchor:start"
           id="tspan4221"
           y="70.493919"
           x="-629.80731"
           sodipodi:role="line">SALES</tspan></text>
      <text
         transform="scale(0.98102713,1.0193398)"
         sodipodi:linespacing="125%"
         id="text4223"
         y="155.10294"
         x="-582.77545"
         style="font-style:normal;font-weight:normal;font-size:31.14835358px;line-height:125%;font-family:sans-serif;text-align:center;letter-spacing:0px;word-spacing:0px;text-anchor:middle;fill:#1a1a1a;fill-opacity:1;stroke:none;stroke-width:1px;stroke-linecap:butt;stroke-linejoin:miter;stroke-opacity:1"
         xml:space="preserve"><tspan
           style="font-style:normal;font-variant:normal;font-weight:normal;font-stretch:normal;font-family:Bahnschrift;-inkscape-font-specification:Bahnschrift;text-align:center;text-anchor:middle;fill:#1a1a1a"
           id="tspan4225"
           y="155.10294"
           x="-582.77545"
           sodipodi:role="line">CO-FUNDER</tspan><tspan
           id="tspan4227"
           style="font-style:normal;font-variant:normal;font-weight:normal;font-stretch:normal;font-family:Bahnschrift;-inkscape-font-specification:Bahnschrift;text-align:center;text-anchor:middle;fill:#1a1a1a"
           y="194.03839"
           x="-582.77545"
           sodipodi:role="line">CSO</tspan><tspan
           style="font-style:normal;font-variant:normal;font-weight:normal;font-stretch:normal;font-family:Bahnschrift;-inkscape-font-specification:Bahnschrift;text-align:center;text-anchor:middle;fill:#1a1a1a"
           y="232.97382"
           x="-582.77545"
           sodipodi:role="line"
           id="tspan4229">Lucas Sanmartino</tspan></text>
      <ellipse
         ry="107.07616"
         rx="111.11677"
         cy="-34.561924"
         cx="-753.57379"
         id="path4860"
         style="fill:#ffdd53;fill-opacity:0.81818183;stroke:none;stroke-width:6.80000019;stroke-linecap:round;stroke-linejoin:round;stroke-miterlimit:4;stroke-dasharray:none;stroke-dashoffset:0;stroke-opacity:1" />
      <g
         transform="matrix(0.70035723,0,0,0.70035723,-963.58959,-204.80378)"
         id="g4884">
        <text
           xml:space="preserve"
           style="font-style:normal;font-weight:normal;font-size:78.04443359px;line-height:125%;font-family:sans-serif;letter-spacing:0px;word-spacing:0px;fill:#000000;fill-opacity:1;stroke:none;stroke-width:1px;stroke-linecap:butt;stroke-linejoin:miter;stroke-opacity:1"
           x="201.65453"
           y="261.87881"
           id="text4964"
           sodipodi:linespacing="125%"
           transform="scale(0.9385196,1.0655078)"><tspan
             sodipodi:role="line"
             id="tspan4966"
             x="201.65453"
             y="261.87881"
             style="font-style:normal;font-variant:normal;font-weight:normal;font-stretch:normal;font-family:Coolvetica;-inkscape-font-specification:Coolvetica">DOUSE</tspan></text>
        <path
           style="fill:#ffa303;fill-opacity:1;fill-rule:evenodd;stroke:#ffa300;stroke-width:9.62197304;stroke-linecap:round;stroke-linejoin:miter;stroke-miterlimit:4;stroke-dasharray:none;stroke-opacity:1"
           d="m 181.25842,216.84367 0,69.70947"
           id="path4968"
           inkscape:connector-curvature="0" />
        <path
           inkscape:connector-curvature="0"
           id="path4970"
           d="m 410.13507,215.11679 0,69.70949"
           style="fill:#ffa303;fill-opacity:1;fill-rule:evenodd;stroke:#ffa300;stroke-width:9.62197304;stroke-linecap:round;stroke-linejoin:miter;stroke-miterlimit:4;stroke-dasharray:none;stroke-opacity:1" />
        <path
           style="fill:none;fill-opacity:1;stroke:#ffa300;stroke-width:8.56380272;stroke-linecap:round;stroke-linejoin:round;stroke-miterlimit:4;stroke-dasharray:none;stroke-dashoffset:0;stroke-opacity:1"
           d="m 297.65562,156.84371 -137.97949,46.92522 8.671,4.59982 130.51282,-43.35469 130.37525,44.07189 5.058,-5.84008 z"
           id="path4972"
           inkscape:connector-curvature="0"
           sodipodi:nodetypes="ccccccc" />
      </g>
      <path
         inkscape:connector-curvature="0"
         id="path4910"
         d="m -759.19587,-303.66505 c -1.33988,-8.85271 -2.64742,-15.62645 -3.19008,-16.52635 -0.28847,-0.47835 -2.47738,-1.10069 -4.86423,-1.38296 -11.74704,-1.38924 -26.84244,-5.17404 -36.3403,-9.11142 -5.37524,-2.22833 -12.70468,-7.06213 -14.29114,-9.42506 -3.06849,-4.57034 -1.54067,-8.91031 4.31061,-12.24477 7.24458,-4.12848 18.98013,-0.39845 33.25143,10.56865 5.1679,3.97139 12.20003,10.19025 14.53358,12.85277 0.87426,0.99752 1.73769,1.51333 1.91871,1.14624 0.31208,-0.63283 -6.27761,-26.1855 -8.24959,-31.98928 -0.91438,-2.69111 -0.98794,-2.73631 -5.31752,-3.26693 -9.26596,-1.1356 -21.75396,-5.16859 -25.71973,-8.30617 -4.32986,-3.42562 -4.67178,-5.65231 -1.30462,-8.49617 2.33118,-1.96888 6.46938,-2.29437 10.52327,-0.8277 3.56129,1.28846 10.28929,5.78887 14.77829,9.88533 2.12938,1.94318 3.99518,3.37818 4.14621,3.18889 0.29729,-0.37259 -9.2771,-24.88571 -11.25555,-28.81735 l -1.20609,-2.39677 -3.19651,1.53637 c -7.80478,3.75132 -19.7128,7.64615 -27.1714,8.88715 -14.8048,2.46328 -21.94394,-1.32745 -19.62752,-10.42179 0.97911,-3.84401 3.30562,-6.77071 7.17862,-9.03053 3.01738,-1.76059 4.00587,-1.93229 11.13786,-1.93456 7.79588,-0.002 15.86257,1.51244 23.4798,4.40949 4.58126,1.74237 4.83314,1.46953 2.23677,-2.42284 -3.78164,-5.66928 -10.15761,-17.81196 -12.69103,-24.16933 -3.11829,-7.82508 -4.45606,-13.19613 -4.51284,-18.11873 -0.0413,-3.58095 0.16337,-4.32458 1.62354,-5.89867 2.25472,-2.43066 6.45193,-2.45254 10.07323,-0.0525 6.94975,4.60596 11.9783,21.92279 13.51482,46.541 0.34114,5.46578 0.72567,7.1375 2.60346,11.31802 l 2.20321,4.905 0.38356,-7.16807 c 0.79243,-14.80953 3.10232,-26.82864 5.97447,-31.0873 1.63144,-2.41899 1.72715,-2.4567 3.37992,-1.33144 6.44209,4.38595 4.36541,19.18894 -5.34902,38.12888 l -2.73527,5.33286 3.46064,9.00767 c 3.35832,8.74132 10.23788,29.74921 10.23788,31.26306 0,0.41203 0.27093,0.74915 0.60205,0.74915 0.33113,0 0.60204,-0.44389 0.60204,-0.98641 0,-0.54252 0.52878,-6.39959 1.17506,-13.01572 2.17987,-22.31566 2.58965,-34.83528 1.54658,-47.25198 -1.09321,-13.01372 -2.96542,-21.79502 -6.64692,-31.17636 -3.87306,-9.86949 -6.2755,-13.6414 -9.1136,-14.30869 -1.2656,-0.29756 -5.41943,-1.72487 -9.23073,-3.1718 -20.27222,-7.6962 -32.52943,-18.30192 -30.16388,-26.09969 0.9744,-3.212 4.37899,-5.88712 8.10601,-6.36921 7.41728,-0.95943 15.10886,4.58333 27.04357,19.48832 l 8.30305,10.36951 -0.47646,-7.68578 c -1.36786,-22.06549 0.75528,-40.28147 5.36886,-46.0636 1.48383,-1.85966 2.07991,-2.1213 4.07047,-1.78669 8.27153,1.39046 10.8964,14.95168 6.29083,32.50126 -1.81431,6.91354 -6.55491,19.79023 -9.69548,26.33551 l -2.08057,4.33611 1.18533,2.08626 c 0.65193,1.14744 2.4033,5.12554 3.89192,8.84022 l 2.7066,6.75395 1.20421,-4.87645 c 3.70364,-14.99791 10.29252,-32.04025 14.75992,-38.17694 3.09439,-4.25062 4.49421,-5.19987 6.49462,-4.40416 1.48452,0.59051 3.5275,5.80753 3.53705,9.03235 0.0146,4.94711 -2.47816,12.18928 -6.75266,19.6179 -2.81202,4.887 -13.73608,18.64545 -17.14635,21.59522 -1.18775,1.02735 -1.27191,1.45746 -0.73212,3.74168 2.6109,11.04841 3.75895,35.58296 2.41572,51.62561 -0.38223,4.56494 -0.85145,10.67667 -1.04273,13.58162 l -0.34778,5.28175 2.46562,-4.07156 c 1.35609,-2.23935 3.48855,-5.46653 4.73878,-7.17151 3.99847,-5.45278 3.85836,-4.83915 2.61274,-11.44283 -1.95325,-10.35509 -2.60983,-17.32783 -2.28162,-24.23019 0.55108,-11.58934 2.47667,-16.09017 6.88157,-16.08472 5.45158,0.007 8.48066,5.75211 7.80605,14.80609 -0.40348,5.4152 -2.67454,15.4979 -4.93133,21.89342 -0.78457,2.22339 -1.30777,4.04253 -1.16268,4.04253 0.14511,0 1.72215,-1.41417 3.50454,-3.14258 3.04738,-2.9551 3.30154,-3.46154 4.2599,-8.48852 3.26448,-17.1234 9.83001,-36.21515 14.69953,-42.74442 3.71315,-4.97875 5.98853,-5.60065 8.443,-2.30763 5.11676,6.86485 3.04484,18.01265 -5.95576,32.04447 -1.90439,2.96893 -4.84978,7.08298 -6.5453,9.14236 -1.69553,2.05936 -3.08278,3.99318 -3.08278,4.29735 0,0.30417 2.14186,-0.77253 4.7597,-2.39266 14.03802,-8.68793 29.77809,-15.07822 37.144,-15.08006 3.27519,-7.3e-4 6.48919,2.66341 6.75996,5.60364 0.50481,5.4814 -3.90949,12.84844 -9.96785,16.63544 -8.10182,5.06432 -16.11207,6.65391 -33.96762,6.74068 l -14.23627,0.0692 -2.62103,2.62025 c -5.88339,5.88165 -14.36093,17.01023 -14.36093,18.85181 0,0.3542 2.37056,-0.17576 5.26791,-1.17768 20.08995,-6.94726 42.67851,-9.27748 48.51577,-5.00485 2.91705,2.13515 3.38988,4.83216 1.58614,9.04721 -3.14159,7.34139 -8.97595,10.70382 -19.64188,11.31992 -9.79165,0.56559 -23.89265,-2.12619 -35.91192,-6.85534 l -2.89319,-1.13837 -0.63772,2.01375 c -2.20929,6.97647 -3.07243,18.62827 -1.71211,23.11242 l 0.59346,1.95628 2.26626,-1.44315 c 3.42132,-2.17867 16.23903,-7.46446 20.28771,-8.36627 5.62006,-1.25183 8.58339,-1.02909 10.0045,0.75195 0.8638,1.08258 1.11144,2.04625 0.82409,3.20677 -1.28521,5.19055 -5.55591,8.50016 -12.58381,9.7519 -4.12988,0.73558 -17.37651,0.26189 -19.36059,-0.69232 -0.84449,-0.40613 -0.93007,-0.1401 -0.55285,1.71852 1.34275,6.61587 3.34098,20.36835 3.08228,21.21326 -0.16519,0.53951 -0.93645,0.98093 -1.71391,0.98093 -1.26764,0 -1.49314,-0.52576 -2.18441,-5.09311 z"
         style="fill:url(#linearGradient4918);fill-opacity:1;stroke:none;stroke-width:6.80000019;stroke-linecap:round;stroke-linejoin:round;stroke-miterlimit:4;stroke-dasharray:none;stroke-dashoffset:0;stroke-opacity:1" />
      <path
         style="fill:url(#linearGradient4922);fill-opacity:1;stroke:none;stroke-width:6.80000019;stroke-linecap:round;stroke-linejoin:round;stroke-miterlimit:4;stroke-dasharray:none;stroke-dashoffset:0;stroke-opacity:1"
         d="m -480.62777,-48.576443 c 8.85271,-1.33988 15.62646,-2.64742 16.52635,-3.19008 0.47835,-0.28847 1.1007,-2.47738 1.38296,-4.86423 1.38925,-11.74704 5.17404,-26.84244 9.11142,-36.3403 2.22833,-5.37524 7.06213,-12.704677 9.42506,-14.291137 4.57034,-3.06849 8.91031,-1.54067 12.24477,4.31061 4.12848,7.244577 0.39845,18.980127 -10.56865,33.251427 -3.97138,5.1679 -10.19025,12.20003 -12.85277,14.53358 -0.99752,0.87426 -1.51333,1.73769 -1.14624,1.91871 0.63284,0.31208 26.1855,-6.27761 31.98928,-8.24959 2.69111,-0.91438 2.73631,-0.98794 3.26693,-5.31752 1.1356,-9.26596 5.16859,-21.75396 8.30617,-25.71973 3.42562,-4.32986 5.65231,-4.67178 8.49617,-1.30462 1.96888,2.33118 2.29437,6.46938 0.8277,10.52327 -1.28846,3.56129 -5.78887,10.28929 -9.88533,14.77829 -1.94318,2.12938 -3.37818,3.99518 -3.18889,4.14621 0.37259,0.29729 24.88571,-9.2771 28.81736,-11.25555 l 2.39677,-1.20609 -1.53637,-3.19651 c -3.75133,-7.80478 -7.64616,-19.7128 -8.88716,-27.171397 -2.46328,-14.8048 1.32745,-21.94394 10.4218,-19.62752 3.84401,0.97911 6.77071,3.30562 9.03053,7.17862 1.76059,3.01738 1.93229,4.00587 1.93456,11.13786 0.002,7.79588 -1.51244,15.862567 -4.40949,23.479797 -1.74237,4.58126 -1.46953,4.83314 2.42284,2.23677 5.66928,-3.78164 17.81196,-10.15761 24.16933,-12.69103 7.82508,-3.11829 13.19613,-4.45606 18.11873,-4.512837 3.58095,-0.0413 4.32458,0.163367 5.89867,1.623537 2.43066,2.25472 2.45254,6.45193 0.0525,10.07323 -4.60596,6.94975 -21.92279,11.9783 -46.541,13.51482 -5.46578,0.34114 -7.1375,0.72567 -11.31802,2.60346 l -4.90501,2.20321 7.16808,0.38356 c 14.80953,0.79243 26.82864,3.10232 31.0873,5.97447 2.41899,1.63144 2.4567,1.72715 1.33144,3.37992 -4.38595,6.44209 -19.18894,4.36541 -38.12889,-5.34902 l -5.33286,-2.73527 -9.00767,3.46064 c -8.74132,3.35832 -29.74921,10.23788 -31.26306,10.23788 -0.41203,0 -0.74915,0.27093 -0.74915,0.60205 0,0.33113 0.44389,0.60204 0.98641,0.60204 0.54252,0 6.39959,0.52878 13.01572,1.17506 22.31566,2.17987 34.83529,2.58965 47.25199,1.54658 13.01372,-1.09321 21.79502,-2.96542 31.17636,-6.64692 9.86949,-3.87306 13.6414,-6.2755 14.30869,-9.1136 0.29756,-1.2656 1.72487,-5.41943 3.1718,-9.23073 7.6962,-20.27222 18.30192,-32.529427 26.09969,-30.163877 3.212,0.9744 5.88712,4.37899 6.36921,8.106007 0.95943,7.41728 -4.58333,15.10886 -19.48832,27.04357 l -10.36951,8.30305 7.68578,-0.47646 c 22.06549,-1.36786 40.28147,0.75528 46.0636,5.36886 1.85966,1.48383 2.1213,2.07991 1.78669,4.07047 -1.39046,8.27153 -14.95168,10.8964 -32.50126,6.29083 -6.91354,-1.81431 -19.79023,-6.55491 -26.33551,-9.69548 l -4.33611,-2.08057 -2.08626,1.18533 c -1.14744,0.65193 -5.12554,2.4033 -8.84022,3.89192 l -6.75395,2.7066 4.87645,1.20421 c 14.99791,3.70364 32.04025,10.29252 38.17694,14.75992 4.25062,3.09439 5.19987,4.49421 4.40416,6.49462 -0.59051,1.48452 -5.80753,3.5275 -9.03235,3.53705 -4.94711,0.0146 -12.18928,-2.47816 -19.6179,-6.75266 -4.887,-2.81202 -18.64545,-13.73608 -21.59522,-17.14635 -1.02735,-1.18775 -1.45746,-1.27191 -3.74168,-0.73212 -11.04841,2.6109 -35.58297,3.75895 -51.62562,2.41572 -4.56494,-0.38223 -10.67667,-0.85145 -13.58162,-1.04273 l -5.28175,-0.34778 4.07156,2.46562 c 2.23935,1.35609 5.46653,3.48855 7.17151,4.73878 5.45278,3.99847 4.83915,3.85836 11.44283,2.61274 10.35509,-1.95325 17.32784,-2.60983 24.2302,-2.28162 11.58934,0.55108 16.09017,2.47667 16.08472,6.88157 -0.007,5.45158 -5.75211,8.48066 -14.80609,7.80605 -5.4152,-0.40348 -15.49791,-2.67454 -21.89343,-4.93133 -2.22339,-0.78457 -4.04253,-1.30777 -4.04253,-1.16268 0,0.14511 1.41417,1.72215 3.14258,3.50454 2.9551,3.04738 3.46154,3.30154 8.48852,4.2599 17.12341,3.26448 36.21516,9.83001 42.74443,14.69953 4.97875,3.7131499 5.60065,5.9885299 2.30763,8.4429999 -6.86485,5.11676 -18.01265,3.04484 -32.04447,-5.95576 -2.96893,-1.90439 -7.08298,-4.8497799 -9.14236,-6.5452999 -2.05937,-1.69553 -3.99319,-3.08278 -4.29736,-3.08278 -0.30417,0 0.77253,2.14186 2.39266,4.7597 8.68794,14.0380199 15.07823,29.77809 15.08007,37.144 7.3e-4,3.27519 -2.66341,6.48919 -5.60364,6.75996 -5.4814,0.50481 -12.84845,-3.90949 -16.63545,-9.96785 -5.06432,-8.10182 -6.65391,-16.1120701 -6.74068,-33.96762 l -0.0692,-14.23627 -2.62025,-2.62103 c -5.88165,-5.88339 -17.01023,-14.36093 -18.85181,-14.36093 -0.3542,0 0.17576,2.37056 1.17768,5.26791 6.94726,20.08995 9.27748,42.6785099 5.00485,48.5157699 -2.13515,2.9170501 -4.83216,3.3898801 -9.04721,1.5861401 -7.34139,-3.1415901 -10.70382,-8.9759501 -11.31992,-19.6418801 -0.56559,-9.7916499 2.12619,-23.8926499 6.85534,-35.9119199 l 1.13837,-2.89319 -2.01375,-0.63772 c -6.97647,-2.20929 -18.62826,-3.07243 -23.11242,-1.71211 l -1.95628,0.59346 1.44315,2.26626 c 2.17867,3.42132 7.46446,16.23903 8.36627,20.28771 1.25183,5.62006 1.0291,8.58339 -0.75195,10.0045 -1.08258,0.8638 -2.04624,1.11144 -3.20677,0.82409 -5.19055,-1.28521 -8.50015,-5.55591 -9.7519,-12.58381 -0.73558,-4.12988 -0.26189,-17.37651 0.69232,-19.36059 0.40613,-0.84449 0.1401,-0.93007 -1.71852,-0.55285 -6.61586,1.34275 -20.36835,3.34098 -21.21325,3.08228 -0.53951,-0.16519 -0.98094,-0.93645 -0.98094,-1.71391 0,-1.26764 0.52576,-1.49314 5.09311,-2.18441 z"
         id="path4920"
         inkscape:connector-curvature="0" />
      <path
         inkscape:connector-curvature="0"
         id="path4930"
         d="m -755.91942,223.93075 c 1.33988,8.85271 2.64742,15.62646 3.19008,16.52635 0.28847,0.47835 2.47738,1.1007 4.86423,1.38296 11.74704,1.38925 26.84244,5.17404 36.3403,9.11142 5.37524,2.22833 12.70468,7.06213 14.29114,9.42506 3.06849,4.57034 1.54067,8.91031 -4.31061,12.24477 -7.24458,4.12848 -18.98013,0.39845 -33.25143,-10.56865 -5.1679,-3.97138 -12.20003,-10.19025 -14.53358,-12.85277 -0.87426,-0.99752 -1.73769,-1.51333 -1.91871,-1.14624 -0.31208,0.63284 6.27761,26.1855 8.24959,31.98928 0.91438,2.69111 0.98794,2.73631 5.31752,3.26693 9.26596,1.1356 21.75396,5.16859 25.71973,8.30617 4.32986,3.42562 4.67178,5.65231 1.30462,8.49617 -2.33118,1.96888 -6.46938,2.29437 -10.52327,0.8277 -3.56129,-1.28846 -10.28929,-5.78887 -14.77829,-9.88533 -2.12938,-1.94318 -3.99518,-3.37818 -4.14621,-3.18889 -0.29729,0.37259 9.2771,24.88571 11.25555,28.81736 l 1.20609,2.39677 3.19651,-1.53637 c 7.80478,-3.75133 19.7128,-7.64616 27.1714,-8.88716 14.8048,-2.46328 21.94394,1.32745 19.62752,10.4218 -0.97911,3.84401 -3.30562,6.77071 -7.17862,9.03053 -3.01738,1.76059 -4.00587,1.93229 -11.13786,1.93456 -7.79588,0.002 -15.86257,-1.51244 -23.4798,-4.40949 -4.58126,-1.74237 -4.83314,-1.46953 -2.23677,2.42284 3.78164,5.66928 10.15761,17.81196 12.69103,24.16933 3.11829,7.82508 4.45606,13.19613 4.51284,18.11873 0.0413,3.58095 -0.16337,4.32458 -1.62354,5.89867 -2.25472,2.43066 -6.45193,2.45254 -10.07323,0.0525 -6.94975,-4.60596 -11.9783,-21.92279 -13.51482,-46.541 -0.34114,-5.46578 -0.72567,-7.1375 -2.60346,-11.31802 l -2.20321,-4.90501 -0.38356,7.16808 c -0.79243,14.80953 -3.10232,26.82864 -5.97447,31.0873 -1.63144,2.41899 -1.72715,2.4567 -3.37992,1.33144 -6.44209,-4.38595 -4.36541,-19.18894 5.34902,-38.12889 l 2.73527,-5.33286 -3.46064,-9.00767 c -3.35832,-8.74132 -10.23788,-29.74921 -10.23788,-31.26306 0,-0.41203 -0.27093,-0.74915 -0.60205,-0.74915 -0.33113,0 -0.60204,0.44389 -0.60204,0.98641 0,0.54252 -0.52878,6.39959 -1.17506,13.01572 -2.17987,22.31566 -2.58965,34.83529 -1.54658,47.25199 1.09321,13.01372 2.96542,21.79502 6.64692,31.17636 3.87306,9.86949 6.2755,13.6414 9.1136,14.30869 1.2656,0.29756 5.41943,1.72487 9.23073,3.1718 20.27222,7.6962 32.52943,18.30192 30.16388,26.09969 -0.9744,3.212 -4.37899,5.88712 -8.10601,6.36921 -7.41728,0.95943 -15.10886,-4.58333 -27.04357,-19.48832 l -8.30305,-10.36951 0.47646,7.68578 c 1.36786,22.06549 -0.75528,40.28147 -5.36886,46.0636 -1.48383,1.85966 -2.07991,2.1213 -4.07047,1.78669 -8.27153,-1.39046 -10.8964,-14.95168 -6.29083,-32.50126 1.81431,-6.91354 6.55491,-19.79023 9.69548,-26.33551 l 2.08057,-4.33611 -1.18533,-2.08626 c -0.65193,-1.14744 -2.4033,-5.12554 -3.89192,-8.84022 l -2.7066,-6.75395 -1.20421,4.87645 c -3.70364,14.99791 -10.29252,32.04025 -14.75992,38.17694 -3.09439,4.25062 -4.49421,5.19987 -6.49462,4.40416 -1.48452,-0.59051 -3.5275,-5.80753 -3.53705,-9.03235 -0.0146,-4.94711 2.47816,-12.18928 6.75266,-19.6179 2.81202,-4.887 13.73608,-18.64545 17.14635,-21.59522 1.18775,-1.02735 1.27191,-1.45746 0.73212,-3.74168 -2.6109,-11.04841 -3.75895,-35.58297 -2.41572,-51.62562 0.38223,-4.56494 0.85145,-10.67667 1.04273,-13.58162 l 0.34778,-5.28175 -2.46562,4.07156 c -1.35609,2.23935 -3.48855,5.46653 -4.73878,7.17151 -3.99847,5.45278 -3.85836,4.83915 -2.61274,11.44283 1.95325,10.35509 2.60983,17.32784 2.28162,24.2302 -0.55108,11.58934 -2.47667,16.09017 -6.88157,16.08472 -5.45158,-0.007 -8.48066,-5.75211 -7.80605,-14.80609 0.40348,-5.4152 2.67454,-15.49791 4.93133,-21.89343 0.78457,-2.22339 1.30777,-4.04253 1.16268,-4.04253 -0.14511,0 -1.72215,1.41417 -3.50454,3.14258 -3.04738,2.9551 -3.30154,3.46154 -4.2599,8.48852 -3.26448,17.12341 -9.83001,36.21516 -14.69953,42.74443 -3.71315,4.97875 -5.98853,5.60065 -8.443,2.30763 -5.11676,-6.86485 -3.04484,-18.01265 5.95576,-32.04447 1.90439,-2.96893 4.84978,-7.08298 6.5453,-9.14236 1.69553,-2.05937 3.08278,-3.99319 3.08278,-4.29736 0,-0.30417 -2.14186,0.77253 -4.7597,2.39266 -14.03802,8.68794 -29.77809,15.07823 -37.144,15.08007 -3.27519,7.3e-4 -6.48919,-2.66341 -6.75996,-5.60364 -0.50481,-5.4814 3.90949,-12.84845 9.96785,-16.63545 8.10182,-5.06432 16.11207,-6.65391 33.96762,-6.74068 l 14.23627,-0.0692 2.62103,-2.62025 c 5.88339,-5.88165 14.36093,-17.01023 14.36093,-18.85181 0,-0.3542 -2.37056,0.17576 -5.26791,1.17768 -20.08995,6.94726 -42.67851,9.27748 -48.51577,5.00485 -2.91705,-2.13515 -3.38988,-4.83216 -1.58614,-9.04721 3.14159,-7.34139 8.97595,-10.70382 19.64188,-11.31992 9.79165,-0.56559 23.89265,2.12619 35.91192,6.85534 l 2.89319,1.13837 0.63772,-2.01375 c 2.20929,-6.97647 3.07243,-18.62826 1.71211,-23.11242 l -0.59346,-1.95628 -2.26626,1.44315 c -3.42132,2.17867 -16.23903,7.46446 -20.28771,8.36627 -5.62006,1.25183 -8.58339,1.0291 -10.0045,-0.75195 -0.8638,-1.08258 -1.11144,-2.04624 -0.82409,-3.20677 1.28521,-5.19055 5.55591,-8.50015 12.58381,-9.7519 4.12988,-0.73558 17.37651,-0.26189 19.36059,0.69232 0.84449,0.40613 0.93007,0.1401 0.55285,-1.71852 -1.34275,-6.61586 -3.34098,-20.36835 -3.08228,-21.21325 0.16519,-0.53951 0.93645,-0.98094 1.71391,-0.98094 1.26764,0 1.49314,0.52576 2.18441,5.09311 z"
         style="fill:url(#linearGradient4932);fill-opacity:1;stroke:none;stroke-width:6.80000019;stroke-linecap:round;stroke-linejoin:round;stroke-miterlimit:4;stroke-dasharray:none;stroke-dashoffset:0;stroke-opacity:1" />
      <path
         style="fill:url(#linearGradient4944);fill-opacity:1;stroke:none;stroke-width:6.80000019;stroke-linecap:round;stroke-linejoin:round;stroke-miterlimit:4;stroke-dasharray:none;stroke-dashoffset:0;stroke-opacity:1"
         d="m -1046.6093,-43.279693 c -8.8528,1.33988 -15.6265,2.64742 -16.5264,3.19008 -0.4783,0.28847 -1.1007,2.47738 -1.383,4.86423 -1.3892,11.74704 -5.174,26.8424399 -9.1114,36.3402999 -2.2283,5.37524 -7.0621,12.7046801 -9.425,14.2911401 -4.5704,3.06849 -8.9103,1.54067 -12.2448,-4.31061 -4.1285,-7.2445801 -0.3985,-18.9801301 10.5686,-33.25143 3.9714,-5.1679 10.1903,-12.20003 12.8528,-14.53358 0.9975,-0.87426 1.5133,-1.73769 1.1463,-1.91871 -0.6329,-0.31208 -26.1855,6.27761 -31.9893,8.24959 -2.6911,0.91438 -2.7363,0.98794 -3.267,5.31752 -1.1356,9.26596 -5.1685,21.7539599 -8.3061,25.71972991 -3.4256,4.32985999 -5.6523,4.67177999 -8.4962,1.30461999 -1.9689,-2.33117999 -2.2944,-6.46938 -0.8277,-10.52327 1.2885,-3.5612899 5.7889,-10.2892899 9.8853,-14.7782899 1.9432,-2.12938 3.3782,-3.99518 3.1889,-4.14621 -0.3726,-0.29729 -24.8857,9.2771 -28.8173,11.25555 l -2.3968,1.20609 1.5364,3.19651 c 3.7513,7.8047799 7.6461,19.7127999 8.8871,27.1714 2.4633,14.8048 -1.3274,21.94394 -10.4218,19.62752 -3.844,-0.97911 -6.7707,-3.30562 -9.0305,-7.17862 -1.7606,-3.01738 -1.9323,-4.00587 -1.9346,-11.13786 -0,-7.7958801 1.5125,-15.86257009 4.4095,-23.4798001 1.7424,-4.5812599 1.4696,-4.8331399 -2.4228,-2.23677 -5.6693,3.78164 -17.812,10.15761 -24.1693,12.69103 -7.8251,3.11829 -13.1962,4.45606 -18.1188,4.51284 -3.5809,0.0413 -4.3246,-0.16337 -5.8986,-1.62354 -2.4307,-2.25472 -2.4526,-6.45192999 -0.053,-10.07323 4.6059,-6.9497499 21.9227,-11.9782999 46.541,-13.5148199 5.4657,-0.34114 7.1375,-0.72567 11.318,-2.60346 l 4.905,-2.20321 -7.1681,-0.38356 c -14.8095,-0.79243 -26.8286,-3.10232 -31.0873,-5.97447 -2.419,-1.63144 -2.4567,-1.72715 -1.3314,-3.37992 4.3859,-6.44209 19.1889,-4.36541 38.1289,5.34902 l 5.3328,2.73527 9.0077,-3.46064 c 8.7413,-3.35832 29.7492,-10.23788 31.263,-10.23788 0.4121,0 0.7492,-0.27093 0.7492,-0.60205 0,-0.33113 -0.4439,-0.60204 -0.9864,-0.60204 -0.5425,0 -6.3996,-0.52878 -13.0157,-1.17506 -22.3157,-2.17987 -34.8353,-2.58965 -47.252,-1.54658 -13.0137,1.09321 -21.795,2.96542 -31.1764,6.64692 -9.8695,3.87306 -13.6414,6.2755 -14.3087,9.1136 -0.2975,1.2656 -1.7248,5.41943 -3.1718,9.23073 -7.6962,20.2722199 -18.3019,32.52943 -26.0997,30.16388 -3.212,-0.9744 -5.8871,-4.3789901 -6.3692,-8.1060101 -0.9594,-7.41728 4.5834,-15.10886 19.4883,-27.0435699 l 10.3696,-8.30305 -7.6858,0.47646 c -22.0655,1.36786 -40.2815,-0.75528 -46.0636,-5.36886 -1.8597,-1.48383 -2.1213,-2.07991 -1.7867,-4.07047 1.3904,-8.27153 14.9517,-10.8964 32.5012,-6.29083 6.9136,1.81431 19.7903,6.55491 26.3356,9.69548 l 4.3361,2.08057 2.0862,-1.18533 c 1.1475,-0.65193 5.1256,-2.4033 8.8402,-3.89192 l 6.754,-2.7066 -4.8765,-1.20421 c -14.9979,-3.70364 -32.0402,-10.29252 -38.1769,-14.75992 -4.2506,-3.09439 -5.1999,-4.49421 -4.4042,-6.49462 0.5906,-1.48452 5.8076,-3.5275 9.0324,-3.53705 4.9471,-0.0146 12.1893,2.47816 19.6179,6.75266 4.887,2.81202 18.6454,13.73608 21.5952,17.14635 1.0274,1.18775 1.4575,1.27191 3.7417,0.73212 11.0484,-2.6109 35.583,-3.75895 51.6256,-2.41572 4.565,0.38223 10.6767,0.85145 13.5816,1.04273 l 5.2818,0.34778 -4.0716,-2.46562 c -2.2393,-1.35609 -5.4665,-3.48855 -7.1715,-4.73878 -5.4528,-3.99847 -4.8391,-3.85836 -11.4428,-2.61274 -10.3551,1.95325 -17.3279,2.60983 -24.2302,2.28162 -11.5894,-0.55108 -16.0902,-2.47667 -16.0847,-6.88157 0.01,-5.45158 5.7521,-8.48066 14.8061,-7.80605 5.4152,0.40348 15.4979,2.67454 21.8934,4.93133 2.2234,0.78457 4.0425,1.30777 4.0425,1.16268 0,-0.14511 -1.4142,-1.72215 -3.1426,-3.50454 -2.9551,-3.04738 -3.4615,-3.30154 -8.4885,-4.2599 -17.1234,-3.26448 -36.2151,-9.83001 -42.7444,-14.69953 -4.9788,-3.71315 -5.6007,-5.98853 -2.3076,-8.443 6.8648,-5.11676 18.0126,-3.04484 32.0444,5.95576 2.969,1.90439 7.083,4.84978 9.1424,6.5453 2.0594,1.69553 3.9932,3.08278 4.2973,3.08278 0.3042,0 -0.7725,-2.14186 -2.3926,-4.7597 -8.688,-14.03802 -15.0782,-29.778087 -15.0801,-37.143997 -7e-4,-3.27519 2.6634,-6.48919 5.6037,-6.75996 5.4814,-0.50481 12.8484,3.90949 16.6354,9.96785 5.0643,8.10182 6.6539,16.112067 6.7407,33.967617 l 0.069,14.23627 2.6202,2.62103 c 5.8817,5.88339 17.0103,14.36093 18.8518,14.36093 0.3542,0 -0.1757,-2.37056 -1.1776,-5.26791 -6.9473,-20.08995 -9.2775,-42.67851 -5.0049,-48.515767 2.1352,-2.91705 4.8322,-3.38988 9.0472,-1.58614 7.3414,3.14159 10.7038,8.975947 11.3199,19.641877 0.5656,9.79165 -2.1261,23.89265 -6.8553,35.91192 l -1.1384,2.89319 2.0138,0.63772 c 6.9765,2.20929 18.6282,3.07243 23.1124,1.71211 l 1.9563,-0.59346 -1.4432,-2.26626 c -2.1786,-3.42132 -7.4644,-16.23903 -8.3662,-20.28771 -1.2519,-5.62006 -1.0291,-8.58339 0.7519,-10.0045 1.0826,-0.8638 2.0463,-1.11144 3.2068,-0.82409 5.1905,1.28521 8.5001,5.55591 9.7519,12.58381 0.7356,4.12988 0.2619,17.37651 -0.6923,19.36059 -0.4062,0.84449 -0.1401,0.93007 1.7185,0.55285 6.6158,-1.34275 20.3683,-3.34098 21.2132,-3.08228 0.5395,0.16519 0.981,0.93645 0.981,1.71391 0,1.26764 -0.5258,1.49314 -5.0931,2.18441 z"
         id="path4942"
         inkscape:connector-curvature="0" />
    </g>
  </g>
</svg>
