<?xml version="1.0" encoding="UTF-8" standalone="no"?>
<!-- Created with Inkscape (http://www.inkscape.org/) -->

<svg
   xmlns:dc="http://purl.org/dc/elements/1.1/"
   xmlns:cc="http://creativecommons.org/ns#"
   xmlns:rdf="http://www.w3.org/1999/02/22-rdf-syntax-ns#"
   xmlns:svg="http://www.w3.org/2000/svg"
   xmlns="http://www.w3.org/2000/svg"
   xmlns:sodipodi="http://sodipodi.sourceforge.net/DTD/sodipodi-0.dtd"
   xmlns:inkscape="http://www.inkscape.org/namespaces/inkscape"
   width="192mm"
   height="157mm"
   viewBox="0 0 680.31491 556.29894"
   id="svg5180"
   version="1.1"
   inkscape:version="0.92.3 (2405546, 2018-03-11)"
   sodipodi:docname="plughtLogo.svg"
   inkscape:export-filename="C:\Users\Renzo\Documents\GitHub\finalProject\webClients\css\images\backgroundLuzMobile.png"
   inkscape:export-xdpi="90"
   inkscape:export-ydpi="90">
  <defs
     id="defs5182" />
  <sodipodi:namedview
     id="base"
     pagecolor="#ffffff"
     bordercolor="#666666"
     borderopacity="1.0"
     inkscape:pageopacity="0.0"
     inkscape:pageshadow="2"
     inkscape:zoom="0.12374369"
     inkscape:cx="7100.4009"
     inkscape:cy="2268.3654"
     inkscape:document-units="px"
     inkscape:current-layer="layer1"
     showgrid="false"
     inkscape:window-width="1366"
     inkscape:window-height="705"
     inkscape:window-x="-8"
     inkscape:window-y="-8"
     inkscape:window-maximized="1"
     showguides="true"
     inkscape:guide-bbox="true">
    <sodipodi:guide
       position="487.83469,195.20084"
       orientation="0,1"
       id="guide29"
       inkscape:locked="false" />
  </sodipodi:namedview>
  <metadata
     id="metadata5185">
    <rdf:RDF>
      <cc:Work
         rdf:about="">
        <dc:format>image/svg+xml</dc:format>
        <dc:type
           rdf:resource="http://purl.org/dc/dcmitype/StillImage" />
        <dc:title />
      </cc:Work>
    </rdf:RDF>
  </metadata>
  <g
     inkscape:label="Capa 1"
     inkscape:groupmode="layer"
     id="layer1"
     transform="translate(0,-496.06332)">
    <text
       xml:space="preserve"
       style="font-style:normal;font-weight:normal;font-size:2.76935196px;line-height:0%;font-family:sans-serif;letter-spacing:0px;word-spacing:0px;fill:#ffffff;fill-opacity:1;stroke:none;stroke-width:0.23077932px;stroke-linecap:butt;stroke-linejoin:miter;stroke-opacity:1;"
       x="-21.812912"
       y="863.32251"
       id="text4976"
       inkscape:export-xdpi="90"
       inkscape:export-ydpi="90"
       transform="scale(1.0072808,0.99277187)"><tspan
         sodipodi:role="line"
         id="tspan4978"
         x="-21.812912"
         y="863.32251"
         style="font-style:normal;font-variant:normal;font-weight:normal;font-stretch:normal;font-size:267.42330933px;line-height:1.25;font-family:'Tw Cen MT Condensed';-inkscape-font-specification:'Tw Cen MT Condensed, ';letter-spacing:-14.29575348px;fill:#ffffff;fill-opacity:1;stroke-width:0.23077932px;"><tspan
   id="tspan4980"
   style="letter-spacing:-20.88845253px;fill:#ffffff;fill-opacity:1;stroke-width:0.23077932px;">P</tspan>LUGHT</tspan></text>
    <path
       style="fill:#003380;fill-opacity:1;fill-rule:evenodd;stroke:#ffaa00;stroke-width:9.19970989;stroke-linecap:butt;stroke-linejoin:miter;stroke-miterlimit:4;stroke-dasharray:none;stroke-opacity:1"
       d="M 537.19899,706.25472 659.79477,732.8542"
       id="path4982"
       inkscape:connector-curvature="0"
       sodipodi:nodetypes="cc" />
    <path
       style="fill:#c1c1c1;fill-opacity:0.96862745;stroke:none;stroke-width:1.01542902;stroke-linecap:square;stroke-linejoin:round;stroke-miterlimit:4;stroke-dasharray:none;stroke-dashoffset:0;stroke-opacity:1"
       d="m 567.61907,804.67972 c 20.27203,0 40.54425,0 60.81649,0 1.32111,17.97934 0.73099,35.65036 -4.57706,52.56038 -17.49823,4.20272 -34.99649,3.70581 -52.49465,0.40268 -3.76068,-17.16806 -5.52205,-34.72307 -3.74478,-52.96306 z"
       id="path4984"
       inkscape:connector-curvature="0"
       sodipodi:nodetypes="ccccc" />
    <path
       style="fill:#fffb48;fill-opacity:0.85955051;fill-rule:evenodd;stroke:none;stroke-width:0.80772763;stroke-linecap:round;stroke-linejoin:round;stroke-miterlimit:4;stroke-dasharray:none;stroke-opacity:1"
       d="m 599.65288,651.49287 c -26.44309,0.063 -52.45197,16.51537 -61.24631,49.06797 -8.35171,30.91427 27.18301,67.00565 29.92234,104.13701 h 60.03796 c 3.08308,-34.65535 44.42267,-74.81093 35.1308,-103.94322 -10.52573,-33.00029 -37.40182,-49.32481 -63.84479,-49.26176 z"
       id="path4986"
       inkscape:connector-curvature="0" />
    <ellipse
       style="fill:#76767b;fill-opacity:1;stroke:none;stroke-width:0.80772763;stroke-linecap:round;stroke-linejoin:round;stroke-miterlimit:4;stroke-dasharray:none;stroke-dashoffset:0;stroke-opacity:1"
       id="ellipse4988"
       cx="586.44415"
       cy="830.72229"
       rx="6.8653865"
       ry="6.4431052" />
    <ellipse
       ry="5.6621227"
       rx="6.0332184"
       cy="831.5033"
       cx="585.61194"
       id="ellipse4990"
       style="fill:#47474b;fill-opacity:1;stroke:none;stroke-width:0.80772763;stroke-linecap:round;stroke-linejoin:round;stroke-miterlimit:4;stroke-dasharray:none;stroke-dashoffset:0;stroke-opacity:1" />
    <ellipse
       ry="6.4431052"
       rx="6.8653865"
       cy="830.72229"
       cx="609.74493"
       id="ellipse4992"
       style="fill:#76767b;fill-opacity:1;stroke:none;stroke-width:0.80772763;stroke-linecap:round;stroke-linejoin:round;stroke-miterlimit:4;stroke-dasharray:none;stroke-dashoffset:0;stroke-opacity:1" />
    <ellipse
       style="fill:#47474b;fill-opacity:1;stroke:none;stroke-width:0.80772763;stroke-linecap:round;stroke-linejoin:round;stroke-miterlimit:4;stroke-dasharray:none;stroke-dashoffset:0;stroke-opacity:1"
       id="ellipse4994"
       cx="608.91272"
       cy="831.5033"
       rx="6.0332184"
       ry="5.6621227" />
    <path
       style="fill:none;fill-rule:evenodd;stroke:#ffaa00;stroke-width:9.07710934;stroke-linecap:square;stroke-linejoin:miter;stroke-miterlimit:4;stroke-dasharray:none;stroke-opacity:1"
       d="m 630.44936,663.24378 c -17.33507,24.65223 -164.36498,31.48343 -96.5046,42.23281"
       id="path4996"
       inkscape:connector-curvature="0"
       sodipodi:nodetypes="cc" />
    <path
       style="fill:none;fill-rule:evenodd;stroke:#ffaa00;stroke-width:9.07710934;stroke-linecap:square;stroke-linejoin:miter;stroke-miterlimit:4;stroke-dasharray:none;stroke-opacity:1"
       d="m 632.17597,817.30292 c 48.72604,0.76947 -19.92092,25.82613 -31.18975,39.54322"
       id="path4998"
       inkscape:connector-curvature="0"
       sodipodi:nodetypes="cc" />
    <path
       style="fill:#353535;fill-opacity:1;fill-rule:evenodd;stroke:none;stroke-width:0.06594495px;stroke-linecap:butt;stroke-linejoin:miter;stroke-opacity:1"
       d="m 597.26445,857.16154 -6.1108,0.91109 c -11.40205,-4.23823 -11.47788,2.64512 -17.76408,9.28955 l -3.89202,-2.70585 c -1.75014,2.32311 -3.50019,4.64614 -5.25036,6.96924 2.51977,1.77687 5.03963,3.55382 7.5595,5.33068 l -10.6,14.26369 c -0.0864,2.25268 3.94145,4.35717 5.16339,3.78423 l 10.71674,-14.26422 c 3.66765,2.56651 4.06879,2.55805 7.73625,5.12455 l -10.68305,14.46294 c 0.56402,2.4262 3.52332,3.90068 5.22653,3.7499 l 10.70758,-14.496 c 2.38168,1.67248 4.76328,3.34504 7.14494,5.0175 l 5.34636,-7.20307 -3.48233,-2.42102 c 5.39648,-8.1562 10.22873,-10.90514 2.75104,-19.32639 l -0.71193,-5.80475 z"
       id="path5000"
       inkscape:connector-curvature="0"
       sodipodi:nodetypes="ccccccccccccccccccc" />
    <path
       sodipodi:nodetypes="cc"
       inkscape:connector-curvature="0"
       id="path5002"
       d="m 662.19173,734.28609 c 34.7681,14.15427 -195.45914,69.59331 -97.97322,74.56513"
       style="fill:none;fill-rule:evenodd;stroke:#ffaa00;stroke-width:9.07710934;stroke-linecap:square;stroke-linejoin:miter;stroke-miterlimit:4;stroke-dasharray:none;stroke-opacity:1" />
    <path
       style="fill:none;stroke:#ffaa00;stroke-width:48.68357086;stroke-linecap:square;stroke-linejoin:miter;stroke-miterlimit:4;stroke-dasharray:none;stroke-opacity:1"
       d="M 978.18579,791.31512 H 1706.2108"
       id="path3087"
       inkscape:connector-curvature="0" />
    <path
       inkscape:connector-curvature="0"
       id="path3089"
       d="M 978.18579,1325.8797 H 1706.2108"
       style="fill:none;stroke:#ffaa00;stroke-width:48.68357086;stroke-linecap:square;stroke-linejoin:miter;stroke-miterlimit:4;stroke-dasharray:none;stroke-opacity:1" />
    <path
       style="fill:#353535;fill-opacity:1;fill-rule:evenodd;stroke:none;stroke-width:0.67146385px;stroke-linecap:butt;stroke-linejoin:miter;stroke-opacity:1"
       d="m 1707.0631,1302.9528 44.436,-44.5308 c 34.2824,-119.0199 91.1123,-77.9916 183.5615,-89.268 l 1.3909,-48.2455 c 29.6138,-0.276 59.2267,-0.5519 88.8416,-0.8278 -0.6924,31.3867 -1.3899,62.7746 -2.0853,94.162 l 180.9476,-0.502 c 18.9705,12.9228 11.8338,58.6421 -0.2545,65.1823 l -181.6594,1.4543 c -1.173,45.565 -3.6697,48.7989 -4.8427,94.3622 l 183.0819,0.02 c 16.4564,19.2992 10.6261,52.4557 -0.9164,65.4916 l -183.5014,-0.02 c -0.7127,29.6241 -1.4275,59.2481 -2.1423,88.8719 l -91.3383,0.1996 1.2443,-43.1676 c -99.4464,-5.1571 -151.1974,17.7833 -174.9168,-94.4089 l -43.2295,-40.9538 z"
       id="path3091"
       inkscape:connector-curvature="0"
       sodipodi:nodetypes="ccccccccccccccccccc" />
    <path
       style="fill:none;stroke:#ffaa00;stroke-width:48.68357086;stroke-linecap:square;stroke-linejoin:miter;stroke-miterlimit:4;stroke-dasharray:none;stroke-opacity:1"
       d="M 978.18579,1860.4443 H 1706.2108"
       id="path3093"
       inkscape:connector-curvature="0" />
    <path
       sodipodi:nodetypes="ccccccccccccccccccc"
       inkscape:connector-curvature="0"
       id="path3095"
       d="m 1707.0631,1837.5173 44.436,-44.5308 c 34.2824,-119.0199 91.1123,-77.9915 183.5615,-89.2679 l 1.3909,-48.2456 c 29.6138,-0.2759 59.2267,-0.5518 88.8416,-0.8278 -0.6924,31.3867 -1.3899,62.7746 -2.0853,94.1621 l 180.9476,-0.502 c 18.9705,12.9228 11.8338,58.642 -0.2545,65.1823 l -181.6594,1.4543 c -1.173,45.565 -3.6697,48.7988 -4.8427,94.3622 l 183.0819,0.02 c 16.4564,19.2992 10.6261,52.4556 -0.9164,65.4916 l -183.5014,-0.02 c -0.7127,29.6242 -1.4275,59.2481 -2.1423,88.872 l -91.3383,0.1996 1.2443,-43.1676 c -99.4464,-5.1571 -151.1974,17.7833 -174.9168,-94.409 l -43.2295,-40.9537 z"
       style="fill:#353535;fill-opacity:1;fill-rule:evenodd;stroke:none;stroke-width:0.67146385px;stroke-linecap:butt;stroke-linejoin:miter;stroke-opacity:1" />
    <path
       inkscape:connector-curvature="0"
       id="path3097"
       d="M 978.18579,2414.1004 H 1706.2108"
       style="fill:none;stroke:#ffaa00;stroke-width:48.68357086;stroke-linecap:square;stroke-linejoin:miter;stroke-miterlimit:4;stroke-dasharray:none;stroke-opacity:1" />
    <path
       style="fill:#353535;fill-opacity:1;fill-rule:evenodd;stroke:none;stroke-width:0.67146385px;stroke-linecap:butt;stroke-linejoin:miter;stroke-opacity:1"
       d="m 1707.0631,2391.1735 44.436,-44.5308 c 34.2824,-119.0199 91.1123,-77.9916 183.5615,-89.2679 l 1.3909,-48.2456 c 29.6138,-0.2759 59.2267,-0.5519 88.8416,-0.8278 -0.6924,31.3867 -1.3899,62.7746 -2.0853,94.162 l 180.9476,-0.502 c 18.9705,12.9229 11.8338,58.6421 -0.2545,65.1823 l -181.6594,1.4544 c -1.173,45.5649 -3.6697,48.7988 -4.8427,94.3622 l 183.0819,0.02 c 16.4564,19.2992 10.6261,52.4557 -0.9164,65.4917 l -183.5014,-0.02 c -0.7127,29.6241 -1.4275,59.2481 -2.1423,88.872 l -91.3383,0.1995 1.2443,-43.1676 c -99.4464,-5.157 -151.1974,17.7833 -174.9168,-94.4089 l -43.2295,-40.9538 z"
       id="path3099"
       inkscape:connector-curvature="0"
       sodipodi:nodetypes="ccccccccccccccccccc" />
    <path
       style="fill:none;stroke:#ffaa00;stroke-width:48.68357086;stroke-linecap:square;stroke-linejoin:miter;stroke-miterlimit:4;stroke-dasharray:none;stroke-opacity:1"
       d="M 978.18579,2967.7566 H 1706.2108"
       id="path3101"
       inkscape:connector-curvature="0" />
    <path
       sodipodi:nodetypes="ccccccccccccccccccc"
       inkscape:connector-curvature="0"
       id="path3103"
       d="m 1707.0631,2944.8297 44.436,-44.5308 c 34.2824,-119.0199 91.1123,-77.9916 183.5615,-89.268 l 1.3909,-48.2455 c 29.6138,-0.276 59.2267,-0.5519 88.8416,-0.8278 -0.6924,31.3867 -1.3899,62.7746 -2.0853,94.162 l 180.9476,-0.502 c 18.9705,12.9228 11.8338,58.6421 -0.2545,65.1823 l -181.6594,1.4543 c -1.173,45.565 -3.6697,48.7989 -4.8427,94.3622 l 183.0819,0.02 c 16.4564,19.2992 10.6261,52.4557 -0.9164,65.4916 l -183.5014,-0.02 c -0.7127,29.6241 -1.4275,59.2481 -2.1423,88.8719 l -91.3383,0.1996 1.2443,-43.1676 c -99.4464,-5.1571 -151.1974,17.7833 -174.9168,-94.4089 l -43.2295,-40.9538 z"
       style="fill:#353535;fill-opacity:1;fill-rule:evenodd;stroke:none;stroke-width:0.67146385px;stroke-linecap:butt;stroke-linejoin:miter;stroke-opacity:1" />
    <path
       inkscape:connector-curvature="0"
       id="path3105"
       d="M 978.18579,3521.4128 H 1706.2108"
       style="fill:none;stroke:#ffaa00;stroke-width:48.68357086;stroke-linecap:square;stroke-linejoin:miter;stroke-miterlimit:4;stroke-dasharray:none;stroke-opacity:1" />
    <path
       style="fill:#353535;fill-opacity:1;fill-rule:evenodd;stroke:none;stroke-width:0.67146385px;stroke-linecap:butt;stroke-linejoin:miter;stroke-opacity:1"
       d="m 1707.0631,3498.4858 44.436,-44.5308 c 34.2824,-119.0199 91.1123,-77.9915 183.5615,-89.2679 l 1.3909,-48.2456 c 29.6138,-0.2759 59.2267,-0.5518 88.8416,-0.8278 -0.6924,31.3867 -1.3899,62.7746 -2.0853,94.1621 l 180.9476,-0.502 c 18.9705,12.9228 11.8338,58.642 -0.2545,65.1823 l -181.6594,1.4543 c -1.173,45.565 -3.6697,48.7988 -4.8427,94.3622 l 183.0819,0.02 c 16.4564,19.2992 10.6261,52.4556 -0.9164,65.4916 l -183.5014,-0.02 c -0.7127,29.6242 -1.4275,59.2481 -2.1423,88.872 l -91.3383,0.1996 1.2443,-43.1676 c -99.4464,-5.1571 -151.1974,17.7833 -174.9168,-94.409 l -43.2295,-40.9537 z"
       id="path3107"
       inkscape:connector-curvature="0"
       sodipodi:nodetypes="ccccccccccccccccccc" />
    <path
       style="fill:none;stroke:#ffaa00;stroke-width:48.68357086;stroke-linecap:square;stroke-linejoin:miter;stroke-miterlimit:4;stroke-dasharray:none;stroke-opacity:1"
       d="M 978.18579,4075.0689 H 1706.2108"
       id="path3109"
       inkscape:connector-curvature="0" />
    <path
       sodipodi:nodetypes="ccccccccccccccccccc"
       inkscape:connector-curvature="0"
       id="path3111"
       d="m 1707.0631,4052.142 44.436,-44.5308 c 34.2824,-119.0199 91.1123,-77.9916 183.5615,-89.2679 l 1.3909,-48.2456 c 29.6138,-0.2759 59.2267,-0.5519 88.8416,-0.8278 -0.6924,31.3867 -1.3899,62.7746 -2.0853,94.162 l 180.9476,-0.502 c 18.9705,12.9229 11.8338,58.6421 -0.2545,65.1823 l -181.6594,1.4544 c -1.173,45.5649 -3.6697,48.7988 -4.8427,94.3622 l 183.0819,0.02 c 16.4564,19.2992 10.6261,52.4557 -0.9164,65.4917 l -183.5014,-0.02 c -0.7127,29.6241 -1.4275,59.2481 -2.1423,88.872 l -91.3383,0.1995 1.2443,-43.1676 c -99.4464,-5.157 -151.1974,17.7833 -174.9168,-94.4089 l -43.2295,-40.9538 z"
       style="fill:#353535;fill-opacity:1;fill-rule:evenodd;stroke:none;stroke-width:0.67146385px;stroke-linecap:butt;stroke-linejoin:miter;stroke-opacity:1" />
    <path
       sodipodi:nodetypes="ccccccccccccccccccc"
       inkscape:connector-curvature="0"
       id="path3081"
       d="m 2041.3382,-127.46299 61.4299,13.56188 c 118.8067,-35.01402 114.7256,34.95959 173.8957,106.8825501 l 41.4417,-24.7416101 c 16.1396,24.8307301 32.2789,49.66071 48.4191,74.49237 -26.8464,16.27516 -53.6965,32.54666 -80.5449,48.81966 l 97.6184,152.35793 c -0.7104,22.94284 -43.1076,41.48094 -55.1174,34.79763 l -98.804,-152.44676 c -39.0637,23.48557 -43.1325,23.11669 -82.1948,46.60137 l 98.3241,154.43876 c -7.4391,24.24727 -38.538,37.13928 -55.7337,34.40548 l -98.5495,-154.79261 c -25.3705,15.31131 -50.7419,30.62072 -76.1133,45.93009 l -49.2301,-76.93579 37.0797,-22.13765 C 1954.1919,67.11814 1907.0443,35.78896 1988.9364,-44.48154 l 11.3237,-58.46176 z"
       style="fill:#353535;fill-opacity:1;fill-rule:evenodd;stroke:none;stroke-width:0.67146385px;stroke-linecap:butt;stroke-linejoin:miter;stroke-opacity:1"
       inkscape:export-xdpi="90"
       inkscape:export-ydpi="90" />
    <path
       style="fill:none;stroke:#ffaa00;stroke-width:47.15623856;stroke-linecap:square;stroke-linejoin:miter;stroke-miterlimit:4;stroke-dasharray:none;stroke-opacity:1"
       d="m 2068.8928,-2780.88 c -0.038,13.6744 -11.2189,40.3274 -1.3565,70.4949 9.7003,29.6718 326.4551,461.3475 280.5089,694.2998 -35.0106,177.5076 -299.7927,207.1959 -420.6233,314.2117 -128.892,114.1557 -112.7871,300.6316 -101.854,329.549 54.9801,145.4191 351.7859,369.105 375.5736,548.04569 56.8137,427.37475 -387.2498,363.90499 -192.3983,689.06355"
       id="path3171"
       inkscape:connector-curvature="0"
       sodipodi:nodetypes="csssssc"
       inkscape:export-xdpi="90"
       inkscape:export-ydpi="90" />
    <path
       sodipodi:nodetypes="csssc"
       inkscape:connector-curvature="0"
       id="path3197"
       d="m 3459.6808,-1694.1435 c -0.831,11.98 -7.4147,40.2031 17.428,65.8074 65.4296,67.4352 205.7375,164.4092 171.1045,256.0115 -54.98,145.4191 -351.7859,369.105 -375.5736,548.04569 -56.8137,427.37475 387.2498,363.90499 192.3983,689.06355"
       style="fill:none;stroke:#ffaa00;stroke-width:47.15623856;stroke-linecap:square;stroke-linejoin:miter;stroke-miterlimit:4;stroke-dasharray:none;stroke-opacity:1"
       inkscape:export-xdpi="90"
       inkscape:export-ydpi="90" />
    <path
       sodipodi:nodetypes="csssssc"
       inkscape:connector-curvature="0"
       id="path6558"
       d="m 4071.0863,-2780.88 c 0.038,13.6744 11.2189,40.3274 1.3565,70.4949 -9.7003,29.6718 -326.4551,461.3475 -280.5089,694.2998 35.0106,177.5076 299.7927,207.1959 420.6233,314.2117 128.892,114.1557 112.7871,300.6316 101.854,329.549 -54.9801,145.4191 -351.7859,369.105 -375.5736,548.04569 -56.8137,427.37475 387.2498,363.90499 192.3983,689.06355"
       style="fill:none;stroke:#ffaa00;stroke-width:47.15623856;stroke-linecap:square;stroke-linejoin:miter;stroke-miterlimit:4;stroke-dasharray:none;stroke-opacity:1"
       inkscape:export-xdpi="90"
       inkscape:export-ydpi="90" />
    <path
       sodipodi:nodetypes="ccccc"
       inkscape:connector-curvature="0"
       id="path3191"
       d="m 3909.9073,-29.877816 c 64.126,45.204552 128.2526,90.409459 192.3795,135.614666 44.2711,-53.927728 81.8091,-111.1419247 102.7258,-176.469539 -45.98,-52.313571 -102.44,-89.761151 -165.1571,-118.331431 -50.1792,45.92134 -94.897,97.524964 -129.9482,159.186304 z"
       style="fill:#c1c1c1;fill-opacity:0.96862745;stroke:none;stroke-width:3.92995644;stroke-linecap:square;stroke-linejoin:round;stroke-miterlimit:4;stroke-dasharray:none;stroke-dashoffset:0;stroke-opacity:1"
       inkscape:export-xdpi="90"
       inkscape:export-ydpi="90" />
    <path
       inkscape:connector-curvature="0"
       id="path3193"
       d="M 3669.648,526.12694 C 3586.1416,466.96222 3540.5554,356.92162 3585.3255,234.33826 3627.8425,117.9244 3820.7288,82.996133 3912.193,-28.35235 l 189.917,133.87868 c -67.5252,116.4995 -26.2994,335.70591 -120.6544,407.13943 -106.8829,80.91786 -228.3016,72.62584 -311.8076,13.46118 z"
       style="fill:#fffb48;fill-opacity:0.85955051;fill-rule:evenodd;stroke:none;stroke-width:3.12610173;stroke-linecap:round;stroke-linejoin:round;stroke-miterlimit:4;stroke-dasharray:none;stroke-opacity:1"
       inkscape:export-xdpi="90"
       inkscape:export-ydpi="90" />
    <path
       inkscape:export-ydpi="90"
       inkscape:export-xdpi="90"
       style="fill:#c1c1c1;fill-opacity:0.96862745;stroke:none;stroke-width:14.13889027;stroke-linecap:square;stroke-linejoin:round;stroke-miterlimit:4;stroke-dasharray:none;stroke-dashoffset:0;stroke-opacity:1"
       d="m 6627.2276,-723.25645 c -282.2546,2.80371 -564.5115,5.60752 -846.7706,8.41111 -15.9072,250.5157 -5.2476,496.47433 70.9978,731.184699 244.2149,56.096014 487.7813,46.757359 730.9577,-1.653501 49.9869,-239.557438 72.0842,-484.226088 44.8151,-737.942308 z"
       id="path6560"
       inkscape:connector-curvature="0"
       sodipodi:nodetypes="ccccc" />
    <path
       style="fill:#fffb48;fill-opacity:0.85955051;fill-rule:evenodd;stroke:none;stroke-width:11.24684429;stroke-linecap:round;stroke-linejoin:round;stroke-miterlimit:4;stroke-dasharray:none;stroke-opacity:1"
       d="m 6160.0238,-2851.7044 c -368.1843,2.7793 -740.1331,233.7888 -882.122,694.7194 -125.3455,406.9048 455.794,960.2884 503.5143,1442.38114 l 835.9319,-8.30072 c 33.0045,-517.37222 522.7756,-1024.80252 402.2162,-1454.07842 -24.282,-86.4612 -57.2619,-164.6217 -97.2842,-234.494 l -51.1976,110.2713 -229.3718,-259.958 76.4584,191.1461 -175.8566,328.77 v -244.665 l -489.3298,267.6046 -175.8566,145.2705 152.9169,-344.0632 435.811,-336.4164 -565.7882,38.2292 z"
       id="path6562"
       inkscape:connector-curvature="0"
       inkscape:export-xdpi="90"
       inkscape:export-ydpi="90" />
  </g>
</svg>
