<?xml version="1.0" encoding="UTF-8" standalone="no"?>
<!-- Generator: Adobe Illustrator 19.0.0, SVG Export Plug-In . SVG Version: 6.00 Build 0)  -->

<svg
   xmlns:dc="http://purl.org/dc/elements/1.1/"
   xmlns:cc="http://creativecommons.org/ns#"
   xmlns:rdf="http://www.w3.org/1999/02/22-rdf-syntax-ns#"
   xmlns:svg="http://www.w3.org/2000/svg"
   xmlns="http://www.w3.org/2000/svg"
   xmlns:sodipodi="http://sodipodi.sourceforge.net/DTD/sodipodi-0.dtd"
   xmlns:inkscape="http://www.inkscape.org/namespaces/inkscape"
   version="1.1"
   id="Capa_1"
   x="0px"
   y="0px"
   viewBox="0 0 512 512"
   style="enable-background:new 0 0 512 512;"
   xml:space="preserve"
   inkscape:version="0.92.3 (2405546, 2018-03-11)"
   sodipodi:docname="houseRooms.svg"><metadata
   id="metadata4374"><rdf:RDF><cc:Work
       rdf:about=""><dc:format>image/svg+xml</dc:format><dc:type
         rdf:resource="http://purl.org/dc/dcmitype/StillImage" /><dc:title /></cc:Work></rdf:RDF></metadata><defs
   id="defs4372" /><sodipodi:namedview
   pagecolor="#ffffff"
   bordercolor="#666666"
   borderopacity="1"
   objecttolerance="10"
   gridtolerance="10"
   guidetolerance="10"
   inkscape:pageopacity="0"
   inkscape:pageshadow="2"
   inkscape:window-width="1366"
   inkscape:window-height="705"
   id="namedview4370"
   showgrid="false"
   inkscape:zoom="0.16296602"
   inkscape:cx="1836.3032"
   inkscape:cy="-1452.7192"
   inkscape:window-x="-8"
   inkscape:window-y="-8"
   inkscape:window-maximized="1"
   inkscape:current-layer="Capa_1"
   showguides="false"
   inkscape:guide-bbox="true"><sodipodi:guide
     position="1800,133.42373"
     orientation="1,0"
     id="guide4716"
     inkscape:locked="false"
     inkscape:label=""
     inkscape:color="rgb(0,0,255)" /><sodipodi:guide
     position="1679.1864,194.16949"
     orientation="0,1"
     id="guide4722"
     inkscape:locked="false" /><sodipodi:guide
     position="2100,-35.79661"
     orientation="1,0"
     id="guide4724"
     inkscape:locked="false"
     inkscape:label=""
     inkscape:color="rgb(0,0,255)" /><sodipodi:guide
     position="2300,-27.613119"
     orientation="1,0"
     id="guide4728"
     inkscape:locked="false"
     inkscape:label=""
     inkscape:color="rgb(0,0,255)" /><sodipodi:guide
     position="2069.4499,-320.61899"
     orientation="0,1"
     id="guide4730"
     inkscape:locked="false" /><sodipodi:guide
     position="2000,84.61017"
     orientation="1,0"
     id="guide4844"
     inkscape:locked="false"
     inkscape:label=""
     inkscape:color="rgb(0,0,255)" /><sodipodi:guide
     position="1931.9322,8.6779661"
     orientation="0,1"
     id="guide4846"
     inkscape:locked="false" /><sodipodi:guide
     position="2327.8644,-128"
     orientation="0,1"
     id="guide4848"
     inkscape:locked="false" /><sodipodi:guide
     position="2050,82.440678"
     orientation="1,0"
     id="guide4858"
     inkscape:locked="false"
     inkscape:label=""
     inkscape:color="rgb(0,0,255)" /><sodipodi:guide
     position="2017.6271,151.86441"
     orientation="0,1"
     id="guide4860"
     inkscape:locked="false" /><sodipodi:guide
     position="1760,68.338983"
     orientation="1,0"
     id="guide4862"
     inkscape:locked="false"
     inkscape:label=""
     inkscape:color="rgb(0,0,255)" /><sodipodi:guide
     position="2340,36.881356"
     orientation="1,0"
     id="guide4864"
     inkscape:locked="false"
     inkscape:label=""
     inkscape:color="rgb(0,0,255)" /></sodipodi:namedview>


































<ellipse
   ry="256.18839"
   rx="256.5719"
   cy="3146.6592"
   cx="240.91086"
   id="ellipse9165"
   style="fill:#ffb503;fill-opacity:1;stroke:#ffb503;stroke-width:13.69999981;stroke-linecap:round;stroke-linejoin:round;stroke-miterlimit:4;stroke-dasharray:none;stroke-dashoffset:0;stroke-opacity:1"
   inkscape:export-filename="C:\Users\Renzo\Documents\GitHub\finalProject\webClients\css\images\corridorAfter.png"
   inkscape:export-xdpi="90"
   inkscape:export-ydpi="90" /><g
   id="g4340">
</g>
<g
   id="g4342">
</g>
<g
   id="g4344">
</g>
<g
   id="g4346">
</g>
<g
   id="g4348">
</g>
<g
   id="g4350">
</g>
<g
   id="g4352">
</g>
<g
   id="g4354">
</g>
<g
   id="g4356">
</g>
<g
   id="g4358">
</g>
<g
   id="g4360">
</g>
<g
   id="g4362">
</g>
<g
   id="g4364">
</g>
<g
   id="g4366">
</g>
<g
   id="g4368">
</g>
<g
   id="g4666"
   inkscape:export-filename="C:\Users\Renzo\Documents\GitHub\finalProject\webClients\css\images\kitchenBefore.png"
   inkscape:export-xdpi="90"
   inkscape:export-ydpi="90"><ellipse
     style="fill:none;fill-opacity:1;stroke:#ffb503;stroke-width:13.69999981;stroke-linecap:round;stroke-linejoin:round;stroke-miterlimit:4;stroke-dasharray:none;stroke-dashoffset:0;stroke-opacity:1"
     id="ellipse4918"
     cx="836.5719"
     cy="255.81161"
     rx="256.5719"
     ry="256.18839" /><g
     id="g4920"
     transform="matrix(0.67891612,0,0,0.67891612,661.36249,82.56686)"
     style="fill:#ffb503;fill-opacity:1;stroke:none;stroke-opacity:1">
	<g
   id="g4922"
   style="fill:#ffb503;fill-opacity:1;stroke:none;stroke-opacity:1">
		<path
   d="M 366.933,307.2 H 145.067 c -4.71,0 -8.533,3.814 -8.533,8.533 v 187.733 c 0,4.719 3.823,8.533 8.533,8.533 h 221.867 c 4.719,0 8.533,-3.814 8.533,-8.533 V 315.733 c 0,-4.719 -3.815,-8.533 -8.534,-8.533 z M 358.4,494.933 H 153.6 V 324.267 h 204.8 z"
   id="path4924"
   inkscape:connector-curvature="0"
   style="fill:#ffb503;fill-opacity:1;stroke:none;stroke-opacity:1" />
	</g>
</g><g
     id="g4926"
     transform="matrix(0.67891612,0,0,0.67891612,661.36249,82.56686)"
     style="fill:#ffb503;fill-opacity:1;stroke:none;stroke-opacity:1">
	<g
   id="g4928"
   style="fill:#ffb503;fill-opacity:1;stroke:none;stroke-opacity:1">
		<path
   d="M 366.933,307.2 H 145.067 c -4.71,0 -8.533,3.814 -8.533,8.533 v 187.733 c 0,4.719 3.823,8.533 8.533,8.533 h 221.867 c 4.719,0 8.533,-3.814 8.533,-8.533 V 315.733 c 0,-4.719 -3.815,-8.533 -8.534,-8.533 z M 358.4,494.933 H 153.6 V 324.267 h 204.8 z"
   id="path4930"
   inkscape:connector-curvature="0"
   style="fill:#ffb503;fill-opacity:1;stroke:none;stroke-opacity:1" />
	</g>
</g><g
     id="g4932"
     transform="matrix(0.67891612,0,0,0.67891612,661.36249,82.56686)"
     style="fill:#ffb503;fill-opacity:1;stroke:none;stroke-opacity:1">
	<g
   id="g4934"
   style="fill:#ffb503;fill-opacity:1;stroke:none;stroke-opacity:1">
		<path
   d="M 145.067,307.2 H 8.533 C 3.823,307.2 0,311.014 0,315.733 V 503.466 C 0,508.186 3.823,512 8.533,512 h 136.533 c 4.71,0 8.533,-3.814 8.533,-8.533 V 315.733 c 0.001,-4.719 -3.822,-8.533 -8.532,-8.533 z m -8.534,187.733 H 17.067 V 324.267 h 119.467 v 170.666 z"
   id="path4936"
   inkscape:connector-curvature="0"
   style="fill:#ffb503;fill-opacity:1;stroke:none;stroke-opacity:1" />
	</g>
</g><g
     id="g4938"
     transform="matrix(0.67891612,0,0,0.67891612,661.36249,82.56686)"
     style="fill:#ffb503;fill-opacity:1;stroke:none;stroke-opacity:1">
	<g
   id="g4940"
   style="fill:#ffb503;fill-opacity:1;stroke:none;stroke-opacity:1">
		<path
   d="M 503.467,307.2 H 366.933 c -4.719,0 -8.533,3.814 -8.533,8.533 v 187.733 c 0,4.719 3.814,8.533 8.533,8.533 h 136.533 c 4.719,0 8.533,-3.814 8.533,-8.533 V 315.733 C 512,311.014 508.186,307.2 503.467,307.2 Z m -8.534,187.733 H 375.467 V 324.267 h 119.467 v 170.666 z"
   id="path4942"
   inkscape:connector-curvature="0"
   style="fill:#ffb503;fill-opacity:1;stroke:none;stroke-opacity:1" />
	</g>
</g><g
     id="g4944"
     transform="matrix(0.67891612,0,0,0.67891612,661.36249,82.56686)"
     style="fill:#ffb503;fill-opacity:1;stroke:none;stroke-opacity:1">
	<g
   id="g4946"
   style="fill:#ffb503;fill-opacity:1;stroke:none;stroke-opacity:1">
		<path
   d="M 332.8,375.467 H 179.2 c -4.71,0 -8.533,3.814 -8.533,8.533 v 85.333 c 0,4.719 3.823,8.533 8.533,8.533 h 153.6 c 4.719,0 8.533,-3.814 8.533,-8.533 V 384 c 0,-4.719 -3.814,-8.533 -8.533,-8.533 z M 324.267,460.8 H 187.733 V 392.533 H 324.266 V 460.8 Z"
   id="path4948"
   inkscape:connector-curvature="0"
   style="fill:#ffb503;fill-opacity:1;stroke:none;stroke-opacity:1" />
	</g>
</g><g
     id="g4950"
     transform="matrix(0.67891612,0,0,0.67891612,661.36249,82.56686)"
     style="fill:#ffb503;fill-opacity:1;stroke:none;stroke-opacity:1">
	<g
   id="g4952"
   style="fill:#ffb503;fill-opacity:1;stroke:none;stroke-opacity:1">
		<rect
   x="264.53299"
   y="341.33301"
   width="17.066999"
   height="17.066999"
   id="rect4954"
   style="fill:#ffb503;fill-opacity:1;stroke:none;stroke-opacity:1" />
	</g>
</g><g
     id="g4956"
     transform="matrix(0.67891612,0,0,0.67891612,661.36249,82.56686)"
     style="fill:#ffb503;fill-opacity:1;stroke:none;stroke-opacity:1">
	<g
   id="g4958"
   style="fill:#ffb503;fill-opacity:1;stroke:none;stroke-opacity:1">
		<rect
   x="230.39999"
   y="341.33301"
   width="17.066999"
   height="17.066999"
   id="rect4960"
   style="fill:#ffb503;fill-opacity:1;stroke:none;stroke-opacity:1" />
	</g>
</g><g
     id="g4962"
     transform="matrix(0.67891612,0,0,0.67891612,661.36249,82.56686)"
     style="fill:#ffb503;fill-opacity:1;stroke:none;stroke-opacity:1">
	<g
   id="g4964"
   style="fill:#ffb503;fill-opacity:1;stroke:none;stroke-opacity:1">
		<rect
   x="196.267"
   y="341.33301"
   width="17.066999"
   height="17.066999"
   id="rect4966"
   style="fill:#ffb503;fill-opacity:1;stroke:none;stroke-opacity:1" />
	</g>
</g><g
     id="g4968"
     transform="matrix(0.67891612,0,0,0.67891612,661.36249,82.56686)"
     style="fill:#ffb503;fill-opacity:1;stroke:none;stroke-opacity:1">
	<g
   id="g4970"
   style="fill:#ffb503;fill-opacity:1;stroke:none;stroke-opacity:1">
		<rect
   x="298.66699"
   y="341.33301"
   width="17.066999"
   height="17.066999"
   id="rect4972"
   style="fill:#ffb503;fill-opacity:1;stroke:none;stroke-opacity:1" />
	</g>
</g><g
     id="g4974"
     transform="matrix(0.67891612,0,0,0.67891612,661.36249,82.56686)"
     style="fill:#ffb503;fill-opacity:1;stroke:none;stroke-opacity:1">
	<g
   id="g4976"
   style="fill:#ffb503;fill-opacity:1;stroke:none;stroke-opacity:1">
		<rect
   x="8.533"
   y="375.46701"
   width="136.533"
   height="17.066999"
   id="rect4978"
   style="fill:#ffb503;fill-opacity:1;stroke:none;stroke-opacity:1" />
	</g>
</g><g
     id="g4980"
     transform="matrix(0.67891612,0,0,0.67891612,661.36249,82.56686)"
     style="fill:#ffb503;fill-opacity:1;stroke:none;stroke-opacity:1">
	<g
   id="g4982"
   style="fill:#ffb503;fill-opacity:1;stroke:none;stroke-opacity:1">
		<rect
   x="59.733002"
   y="341.33301"
   width="34.132999"
   height="17.066999"
   id="rect4984"
   style="fill:#ffb503;fill-opacity:1;stroke:none;stroke-opacity:1" />
	</g>
</g><g
     id="g4986"
     transform="matrix(0.67891612,0,0,0.67891612,661.36249,82.56686)"
     style="fill:#ffb503;fill-opacity:1;stroke:none;stroke-opacity:1">
	<g
   id="g4988"
   style="fill:#ffb503;fill-opacity:1;stroke:none;stroke-opacity:1">
		<rect
   x="59.733002"
   y="409.60001"
   width="34.132999"
   height="17.066999"
   id="rect4990"
   style="fill:#ffb503;fill-opacity:1;stroke:none;stroke-opacity:1" />
	</g>
</g><g
     id="g4992"
     transform="matrix(0.67891612,0,0,0.67891612,661.36249,82.56686)"
     style="fill:#ffb503;fill-opacity:1;stroke:none;stroke-opacity:1">
	<g
   id="g4994"
   style="fill:#ffb503;fill-opacity:1;stroke:none;stroke-opacity:1">
		<rect
   x="366.93301"
   y="375.46701"
   width="136.533"
   height="17.066999"
   id="rect4996"
   style="fill:#ffb503;fill-opacity:1;stroke:none;stroke-opacity:1" />
	</g>
</g><g
     id="g4998"
     transform="matrix(0.67891612,0,0,0.67891612,661.36249,82.56686)"
     style="fill:#ffb503;fill-opacity:1;stroke:none;stroke-opacity:1">
	<g
   id="g5000"
   style="fill:#ffb503;fill-opacity:1;stroke:none;stroke-opacity:1">
		<rect
   x="426.66699"
   y="384"
   width="17.066999"
   height="119.467"
   id="rect5002"
   style="fill:#ffb503;fill-opacity:1;stroke:none;stroke-opacity:1" />
	</g>
</g><g
     id="g5004"
     transform="matrix(0.67891612,0,0,0.67891612,661.36249,82.56686)"
     style="fill:#ffb503;fill-opacity:1;stroke:none;stroke-opacity:1">
	<g
   id="g5006"
   style="fill:#ffb503;fill-opacity:1;stroke:none;stroke-opacity:1">
		<rect
   x="418.133"
   y="341.33301"
   width="34.132999"
   height="17.066999"
   id="rect5008"
   style="fill:#ffb503;fill-opacity:1;stroke:none;stroke-opacity:1" />
	</g>
</g><g
     id="g5010"
     transform="matrix(0.67891612,0,0,0.67891612,661.36249,82.56686)"
     style="fill:#ffb503;fill-opacity:1;stroke:none;stroke-opacity:1">
	<g
   id="g5012"
   style="fill:#ffb503;fill-opacity:1;stroke:none;stroke-opacity:1">
		<rect
   x="392.53299"
   y="426.66699"
   width="17.066999"
   height="25.6"
   id="rect5014"
   style="fill:#ffb503;fill-opacity:1;stroke:none;stroke-opacity:1" />
	</g>
</g><g
     id="g5016"
     transform="matrix(0.67891612,0,0,0.67891612,661.36249,82.56686)"
     style="fill:#ffb503;fill-opacity:1;stroke:none;stroke-opacity:1">
	<g
   id="g5018"
   style="fill:#ffb503;fill-opacity:1;stroke:none;stroke-opacity:1">
		<rect
   x="460.79999"
   y="426.66699"
   width="17.066999"
   height="25.6"
   id="rect5020"
   style="fill:#ffb503;fill-opacity:1;stroke:none;stroke-opacity:1" />
	</g>
</g><g
     id="g5022"
     transform="matrix(0.67891612,0,0,0.67891612,661.36249,82.56686)"
     style="fill:#ffb503;fill-opacity:1;stroke:none;stroke-opacity:1">
	<g
   id="g5024"
   style="fill:#ffb503;fill-opacity:1;stroke:none;stroke-opacity:1">
		<path
   d="M 364.433,139.034 332.8,107.401 V 8.533 C 332.8,3.823 328.986,0 324.267,0 H 187.733 C 183.023,0 179.2,3.823 179.2,8.533 V 107.4 l -31.633,31.633 c -2.441,2.44 -3.174,6.11 -1.852,9.301 1.323,3.183 4.437,5.265 7.885,5.265 h 204.8 c 3.447,0 6.571,-2.082 7.885,-5.265 1.322,-3.191 0.589,-6.86 -1.852,-9.3 z m -190.234,-2.501 19.567,-19.567 c 1.604,-1.596 2.5,-3.772 2.5,-6.033 V 17.067 h 119.467 v 93.867 c 0,2.261 0.896,4.437 2.5,6.033 L 337.8,136.534 H 174.199 Z"
   id="path5026"
   inkscape:connector-curvature="0"
   style="fill:#ffb503;fill-opacity:1;stroke:none;stroke-opacity:1" />
	</g>
</g><g
     id="g5028"
     transform="matrix(0.67891612,0,0,0.67891612,661.36249,82.56686)"
     style="fill:#ffb503;fill-opacity:1;stroke:none;stroke-opacity:1">
	<g
   id="g5030"
   style="fill:#ffb503;fill-opacity:1;stroke:none;stroke-opacity:1">
		<path
   d="m 460.8,187.733 c -18.825,0 -34.133,15.309 -34.133,34.133 v 8.533 h 17.067 v -8.533 c 0,-9.412 7.654,-17.067 17.067,-17.067 9.412,0 17.067,7.654 17.067,17.067 v 93.867 h 17.067 v -93.867 c -0.002,-18.824 -15.31,-34.133 -34.135,-34.133 z"
   id="path5032"
   inkscape:connector-curvature="0"
   style="fill:#ffb503;fill-opacity:1;stroke:none;stroke-opacity:1" />
	</g>
</g><g
     id="g5034"
     transform="matrix(0.67891612,0,0,0.67891612,661.36249,82.56686)"
     style="fill:#ffb503;fill-opacity:1;stroke:none;stroke-opacity:1">
	<g
   id="g5036"
   style="fill:#ffb503;fill-opacity:1;stroke:none;stroke-opacity:1">
		<rect
   x="460.79999"
   y="273.06699"
   width="25.6"
   height="17.066999"
   id="rect5038"
   style="fill:#ffb503;fill-opacity:1;stroke:none;stroke-opacity:1" />
	</g>
</g><g
     id="g5040"
     transform="matrix(0.67891612,0,0,0.67891612,661.36249,82.56686)"
     style="fill:#ffb503;fill-opacity:1;stroke:none;stroke-opacity:1">
	<g
   id="g5042"
   style="fill:#ffb503;fill-opacity:1;stroke:none;stroke-opacity:1">
		<path
   d="m 247.467,256 h -85.333 c -4.71,0 -8.533,3.814 -8.533,8.533 v 51.2 c 0,4.719 3.823,8.533 8.533,8.533 h 85.333 c 4.71,0 8.533,-3.814 8.533,-8.533 v -51.2 C 256,259.814 252.177,256 247.467,256 Z m -8.534,51.2 h -68.267 v -34.133 h 68.267 z"
   id="path5044"
   inkscape:connector-curvature="0"
   style="fill:#ffb503;fill-opacity:1;stroke:none;stroke-opacity:1" />
	</g>
</g><g
     id="g5046"
     transform="matrix(0.67891612,0,0,0.67891612,661.36249,82.56686)"
     style="fill:#ffb503;fill-opacity:1;stroke:none;stroke-opacity:1">
	<g
   id="g5048"
   style="fill:#ffb503;fill-opacity:1;stroke:none;stroke-opacity:1">
		<rect
   x="136.533"
   y="273.06699"
   width="25.6"
   height="17.066999"
   id="rect5050"
   style="fill:#ffb503;fill-opacity:1;stroke:none;stroke-opacity:1" />
	</g>
</g><g
     id="g5052"
     transform="matrix(0.67891612,0,0,0.67891612,661.36249,82.56686)"
     style="fill:#ffb503;fill-opacity:1;stroke:none;stroke-opacity:1">
	<g
   id="g5054"
   style="fill:#ffb503;fill-opacity:1;stroke:none;stroke-opacity:1">
		<rect
   x="247.467"
   y="273.06699"
   width="25.6"
   height="17.066999"
   id="rect5056"
   style="fill:#ffb503;fill-opacity:1;stroke:none;stroke-opacity:1" />
	</g>
</g><g
     id="g5058"
     transform="matrix(0.67891612,0,0,0.67891612,661.36249,82.56686)"
     style="fill:#ffb503;fill-opacity:1;stroke:none;stroke-opacity:1">
	<g
   id="g5060"
   style="fill:#ffb503;fill-opacity:1;stroke:none;stroke-opacity:1">
		<path
   d="M 145.067,0 H 8.533 C 3.823,0 0,3.823 0,8.533 v 102.4 c 0,4.71 3.823,8.533 8.533,8.533 h 136.533 c 4.71,0 8.533,-3.823 8.533,-8.533 V 8.533 C 153.6,3.823 149.777,0 145.067,0 Z m -8.534,102.4 H 17.067 V 17.067 H 136.534 V 102.4 Z"
   id="path5062"
   inkscape:connector-curvature="0"
   style="fill:#ffb503;fill-opacity:1;stroke:none;stroke-opacity:1" />
	</g>
</g><g
     id="g5064"
     transform="matrix(0.67891612,0,0,0.67891612,661.36249,82.56686)"
     style="fill:#ffb503;fill-opacity:1;stroke:none;stroke-opacity:1">
	<g
   id="g5066"
   style="fill:#ffb503;fill-opacity:1;stroke:none;stroke-opacity:1">
		<rect
   x="102.4"
   y="51.200001"
   width="17.066999"
   height="34.132999"
   id="rect5068"
   style="fill:#ffb503;fill-opacity:1;stroke:none;stroke-opacity:1" />
	</g>
</g><g
     id="g5070"
     transform="matrix(0.67891612,0,0,0.67891612,661.36249,82.56686)"
     style="fill:#ffb503;fill-opacity:1;stroke:none;stroke-opacity:1">
	<g
   id="g5072"
   style="fill:#ffb503;fill-opacity:1;stroke:none;stroke-opacity:1">
		<path
   d="M 503.467,0 H 366.933 C 362.214,0 358.4,3.823 358.4,8.533 v 102.4 c 0,4.71 3.814,8.533 8.533,8.533 h 136.533 c 4.719,0 8.533,-3.823 8.533,-8.533 V 8.533 C 512,3.823 508.186,0 503.467,0 Z m -8.534,102.4 H 375.467 V 17.067 H 494.934 V 102.4 Z"
   id="path5074"
   inkscape:connector-curvature="0"
   style="fill:#ffb503;fill-opacity:1;stroke:none;stroke-opacity:1" />
	</g>
</g><g
     id="g5076"
     transform="matrix(0.67891612,0,0,0.67891612,661.36249,82.56686)"
     style="fill:#ffb503;fill-opacity:1;stroke:none;stroke-opacity:1">
	<g
   id="g5078"
   style="fill:#ffb503;fill-opacity:1;stroke:none;stroke-opacity:1">
		<rect
   x="392.53299"
   y="51.200001"
   width="17.066999"
   height="34.132999"
   id="rect5080"
   style="fill:#ffb503;fill-opacity:1;stroke:none;stroke-opacity:1" />
	</g>
</g><g
     id="g5082"
     transform="matrix(0.67891612,0,0,0.67891612,661.36249,82.56686)"
     style="fill:#ffb503;fill-opacity:1;stroke:none;stroke-opacity:1">
	<g
   id="g5084"
   style="fill:#ffb503;fill-opacity:1;stroke:none;stroke-opacity:1">
		<rect
   x="0"
   y="170.66701"
   width="153.60001"
   height="17.066999"
   id="rect5086"
   style="fill:#ffb503;fill-opacity:1;stroke:none;stroke-opacity:1" />
	</g>
</g><g
     id="g5088"
     transform="matrix(0.67891612,0,0,0.67891612,661.36249,82.56686)"
     style="fill:#ffb503;fill-opacity:1;stroke:none;stroke-opacity:1">
	<g
   id="g5090"
   style="fill:#ffb503;fill-opacity:1;stroke:none;stroke-opacity:1">
		<rect
   x="17.066999"
   y="153.60001"
   width="17.066999"
   height="76.800003"
   id="rect5092"
   style="fill:#ffb503;fill-opacity:1;stroke:none;stroke-opacity:1" />
	</g>
</g><g
     id="g5094"
     transform="matrix(0.67891612,0,0,0.67891612,661.36249,82.56686)"
     style="fill:#ffb503;fill-opacity:1;stroke:none;stroke-opacity:1">
	<g
   id="g5096"
   style="fill:#ffb503;fill-opacity:1;stroke:none;stroke-opacity:1">
		<path
   d="m 25.6,221.867 c -14.114,0 -25.6,11.486 -25.6,25.6 0,14.114 11.486,25.6 25.6,25.6 14.114,0 25.6,-11.486 25.6,-25.6 0,-14.114 -11.486,-25.6 -25.6,-25.6 z m 0,34.133 c -4.702,0 -8.533,-3.831 -8.533,-8.533 0,-4.702 3.831,-8.533 8.533,-8.533 4.702,0 8.533,3.831 8.533,8.533 0,4.702 -3.831,8.533 -8.533,8.533 z"
   id="path5098"
   inkscape:connector-curvature="0"
   style="fill:#ffb503;fill-opacity:1;stroke:none;stroke-opacity:1" />
	</g>
</g><g
     id="g5100"
     transform="matrix(0.67891612,0,0,0.67891612,661.36249,82.56686)"
     style="fill:#ffb503;fill-opacity:1;stroke:none;stroke-opacity:1">
	<g
   id="g5102"
   style="fill:#ffb503;fill-opacity:1;stroke:none;stroke-opacity:1">
		<rect
   x="51.200001"
   y="153.60001"
   width="17.066999"
   height="76.800003"
   id="rect5104"
   style="fill:#ffb503;fill-opacity:1;stroke:none;stroke-opacity:1" />
	</g>
</g><g
     id="g5106"
     transform="matrix(0.67891612,0,0,0.67891612,661.36249,82.56686)"
     style="fill:#ffb503;fill-opacity:1;stroke:none;stroke-opacity:1">
	<g
   id="g5108"
   style="fill:#ffb503;fill-opacity:1;stroke:none;stroke-opacity:1">
		<path
   d="m 59.733,221.867 c -14.114,0 -25.6,11.486 -25.6,25.6 0,14.114 11.486,25.6 25.6,25.6 14.114,0 25.6,-11.486 25.6,-25.6 0,-14.114 -11.486,-25.6 -25.6,-25.6 z m 0,34.133 c -4.702,0 -8.533,-3.831 -8.533,-8.533 0,-4.702 3.831,-8.533 8.533,-8.533 4.702,0 8.533,3.831 8.533,8.533 10e-4,4.702 -3.831,8.533 -8.533,8.533 z"
   id="path5110"
   inkscape:connector-curvature="0"
   style="fill:#ffb503;fill-opacity:1;stroke:none;stroke-opacity:1" />
	</g>
</g><g
     id="g5112"
     transform="matrix(0.67891612,0,0,0.67891612,661.36249,82.56686)"
     style="fill:#ffb503;fill-opacity:1;stroke:none;stroke-opacity:1">
	<g
   id="g5114"
   style="fill:#ffb503;fill-opacity:1;stroke:none;stroke-opacity:1">
		<rect
   x="85.333"
   y="153.60001"
   width="17.066999"
   height="76.800003"
   id="rect5116"
   style="fill:#ffb503;fill-opacity:1;stroke:none;stroke-opacity:1" />
	</g>
</g><g
     id="g5118"
     transform="matrix(0.67891612,0,0,0.67891612,661.36249,82.56686)"
     style="fill:#ffb503;fill-opacity:1;stroke:none;stroke-opacity:1">
	<g
   id="g5120"
   style="fill:#ffb503;fill-opacity:1;stroke:none;stroke-opacity:1">
		<path
   d="m 93.867,221.867 c -14.114,0 -25.6,11.486 -25.6,25.6 0,14.114 11.486,25.6 25.6,25.6 14.114,0 25.6,-11.486 25.6,-25.6 0,-14.114 -11.486,-25.6 -25.6,-25.6 z m 0,34.133 c -4.702,0 -8.533,-3.831 -8.533,-8.533 0,-4.702 3.831,-8.533 8.533,-8.533 4.702,0 8.533,3.831 8.533,8.533 0,4.702 -3.831,8.533 -8.533,8.533 z"
   id="path5122"
   inkscape:connector-curvature="0"
   style="fill:#ffb503;fill-opacity:1;stroke:none;stroke-opacity:1" />
	</g>
</g></g><ellipse
   style="fill:#ffb503;fill-opacity:1;stroke:#ffb503;stroke-width:13.69999981;stroke-linecap:round;stroke-linejoin:round;stroke-miterlimit:4;stroke-dasharray:none;stroke-dashoffset:0;stroke-opacity:1"
   id="path4916"
   cx="261.65665"
   cy="266.65909"
   rx="256.5719"
   ry="256.18839" /><g
   id="SVGCleanerId_0"
   transform="matrix(0.67891612,0,0,0.67891612,86.44724,93.414318)"
   style="fill:#ffffff;fill-opacity:1;stroke:none;stroke-opacity:1">
	<g
   id="g4138"
   style="fill:#ffffff;fill-opacity:1;stroke:none;stroke-opacity:1">
		<path
   d="m 366.933,307.2 -221.866,0 c -4.71,0 -8.533,3.814 -8.533,8.533 l 0,187.733 c 0,4.719 3.823,8.533 8.533,8.533 l 221.867,0 c 4.719,0 8.533,-3.814 8.533,-8.533 l 0,-187.733 c 0,-4.719 -3.815,-8.533 -8.534,-8.533 z m -8.533,187.733 -204.8,0 0,-170.666 204.8,0 0,170.666 z"
   id="path4140"
   inkscape:connector-curvature="0"
   style="fill:#ffffff;fill-opacity:1;stroke:none;stroke-opacity:1" />
	</g>
</g><g
   id="g4142"
   transform="matrix(0.67891612,0,0,0.67891612,86.44724,93.414318)"
   style="fill:#ffffff;fill-opacity:1;stroke:none;stroke-opacity:1">
	<g
   id="g4144"
   style="fill:#ffffff;fill-opacity:1;stroke:none;stroke-opacity:1">
		<path
   d="m 366.933,307.2 -221.866,0 c -4.71,0 -8.533,3.814 -8.533,8.533 l 0,187.733 c 0,4.719 3.823,8.533 8.533,8.533 l 221.867,0 c 4.719,0 8.533,-3.814 8.533,-8.533 l 0,-187.733 c 0,-4.719 -3.815,-8.533 -8.534,-8.533 z m -8.533,187.733 -204.8,0 0,-170.666 204.8,0 0,170.666 z"
   id="path4146"
   inkscape:connector-curvature="0"
   style="fill:#ffffff;fill-opacity:1;stroke:none;stroke-opacity:1" />
	</g>
</g><g
   id="g4148"
   transform="matrix(0.67891612,0,0,0.67891612,86.44724,93.414318)"
   style="fill:#ffffff;fill-opacity:1;stroke:none;stroke-opacity:1">
	<g
   id="g4150"
   style="fill:#ffffff;fill-opacity:1;stroke:none;stroke-opacity:1">
		<path
   d="m 145.067,307.2 -136.534,0 C 3.823,307.2 0,311.014 0,315.733 L 0,503.466 C 0,508.186 3.823,512 8.533,512 l 136.533,0 c 4.71,0 8.533,-3.814 8.533,-8.533 l 0,-187.734 c 0.001,-4.719 -3.822,-8.533 -8.532,-8.533 z m -8.534,187.733 -119.466,0 0,-170.666 119.467,0 0,170.666 z"
   id="path4152"
   inkscape:connector-curvature="0"
   style="fill:#ffffff;fill-opacity:1;stroke:none;stroke-opacity:1" />
	</g>
</g><g
   id="g4154"
   transform="matrix(0.67891612,0,0,0.67891612,86.44724,93.414318)"
   style="fill:#ffffff;fill-opacity:1;stroke:none;stroke-opacity:1">
	<g
   id="g4156"
   style="fill:#ffffff;fill-opacity:1;stroke:none;stroke-opacity:1">
		<path
   d="m 503.467,307.2 -136.534,0 c -4.719,0 -8.533,3.814 -8.533,8.533 l 0,187.733 c 0,4.719 3.814,8.533 8.533,8.533 l 136.533,0 c 4.719,0 8.533,-3.814 8.533,-8.533 l 0,-187.733 C 512,311.014 508.186,307.2 503.467,307.2 Z m -8.534,187.733 -119.466,0 0,-170.666 119.467,0 0,170.666 z"
   id="path4158"
   inkscape:connector-curvature="0"
   style="fill:#ffffff;fill-opacity:1;stroke:none;stroke-opacity:1" />
	</g>
</g><g
   id="g4160"
   transform="matrix(0.67891612,0,0,0.67891612,86.44724,93.414318)"
   style="fill:#ffffff;fill-opacity:1;stroke:none;stroke-opacity:1">
	<g
   id="g4162"
   style="fill:#ffffff;fill-opacity:1;stroke:none;stroke-opacity:1">
		<path
   d="m 332.8,375.467 -153.6,0 c -4.71,0 -8.533,3.814 -8.533,8.533 l 0,85.333 c 0,4.719 3.823,8.533 8.533,8.533 l 153.6,0 c 4.719,0 8.533,-3.814 8.533,-8.533 l 0,-85.333 c 0,-4.719 -3.814,-8.533 -8.533,-8.533 z m -8.533,85.333 -136.534,0 0,-68.267 136.533,0 0,68.267 z"
   id="path4164"
   inkscape:connector-curvature="0"
   style="fill:#ffffff;fill-opacity:1;stroke:none;stroke-opacity:1" />
	</g>
</g><g
   id="g4166"
   transform="matrix(0.67891612,0,0,0.67891612,86.44724,93.414318)"
   style="fill:#ffffff;fill-opacity:1;stroke:none;stroke-opacity:1">
	<g
   id="g4168"
   style="fill:#ffffff;fill-opacity:1;stroke:none;stroke-opacity:1">
		<rect
   x="264.53299"
   y="341.33301"
   width="17.066999"
   height="17.066999"
   id="rect4170"
   style="fill:#ffffff;fill-opacity:1;stroke:none;stroke-opacity:1" />
	</g>
</g><g
   id="g4172"
   transform="matrix(0.67891612,0,0,0.67891612,86.44724,93.414318)"
   style="fill:#ffffff;fill-opacity:1;stroke:none;stroke-opacity:1">
	<g
   id="g4174"
   style="fill:#ffffff;fill-opacity:1;stroke:none;stroke-opacity:1">
		<rect
   x="230.39999"
   y="341.33301"
   width="17.066999"
   height="17.066999"
   id="rect4176"
   style="fill:#ffffff;fill-opacity:1;stroke:none;stroke-opacity:1" />
	</g>
</g><g
   id="g4178"
   transform="matrix(0.67891612,0,0,0.67891612,86.44724,93.414318)"
   style="fill:#ffffff;fill-opacity:1;stroke:none;stroke-opacity:1">
	<g
   id="g4180"
   style="fill:#ffffff;fill-opacity:1;stroke:none;stroke-opacity:1">
		<rect
   x="196.267"
   y="341.33301"
   width="17.066999"
   height="17.066999"
   id="rect4182"
   style="fill:#ffffff;fill-opacity:1;stroke:none;stroke-opacity:1" />
	</g>
</g><g
   id="g4184"
   transform="matrix(0.67891612,0,0,0.67891612,86.44724,93.414318)"
   style="fill:#ffffff;fill-opacity:1;stroke:none;stroke-opacity:1">
	<g
   id="g4186"
   style="fill:#ffffff;fill-opacity:1;stroke:none;stroke-opacity:1">
		<rect
   x="298.66699"
   y="341.33301"
   width="17.066999"
   height="17.066999"
   id="rect4188"
   style="fill:#ffffff;fill-opacity:1;stroke:none;stroke-opacity:1" />
	</g>
</g><g
   id="g4190"
   transform="matrix(0.67891612,0,0,0.67891612,86.44724,93.414318)"
   style="fill:#ffffff;fill-opacity:1;stroke:none;stroke-opacity:1">
	<g
   id="g4192"
   style="fill:#ffffff;fill-opacity:1;stroke:none;stroke-opacity:1">
		<rect
   x="8.533"
   y="375.46701"
   width="136.533"
   height="17.066999"
   id="rect4194"
   style="fill:#ffffff;fill-opacity:1;stroke:none;stroke-opacity:1" />
	</g>
</g><g
   id="g4196"
   transform="matrix(0.67891612,0,0,0.67891612,86.44724,93.414318)"
   style="fill:#ffffff;fill-opacity:1;stroke:none;stroke-opacity:1">
	<g
   id="g4198"
   style="fill:#ffffff;fill-opacity:1;stroke:none;stroke-opacity:1">
		<rect
   x="59.733002"
   y="341.33301"
   width="34.132999"
   height="17.066999"
   id="rect4200"
   style="fill:#ffffff;fill-opacity:1;stroke:none;stroke-opacity:1" />
	</g>
</g><g
   id="g4202"
   transform="matrix(0.67891612,0,0,0.67891612,86.44724,93.414318)"
   style="fill:#ffffff;fill-opacity:1;stroke:none;stroke-opacity:1">
	<g
   id="g4204"
   style="fill:#ffffff;fill-opacity:1;stroke:none;stroke-opacity:1">
		<rect
   x="59.733002"
   y="409.60001"
   width="34.132999"
   height="17.066999"
   id="rect4206"
   style="fill:#ffffff;fill-opacity:1;stroke:none;stroke-opacity:1" />
	</g>
</g><g
   id="g4208"
   transform="matrix(0.67891612,0,0,0.67891612,86.44724,93.414318)"
   style="fill:#ffffff;fill-opacity:1;stroke:none;stroke-opacity:1">
	<g
   id="g4210"
   style="fill:#ffffff;fill-opacity:1;stroke:none;stroke-opacity:1">
		<rect
   x="366.93301"
   y="375.46701"
   width="136.533"
   height="17.066999"
   id="rect4212"
   style="fill:#ffffff;fill-opacity:1;stroke:none;stroke-opacity:1" />
	</g>
</g><g
   id="g4214"
   transform="matrix(0.67891612,0,0,0.67891612,86.44724,93.414318)"
   style="fill:#ffffff;fill-opacity:1;stroke:none;stroke-opacity:1">
	<g
   id="g4216"
   style="fill:#ffffff;fill-opacity:1;stroke:none;stroke-opacity:1">
		<rect
   x="426.66699"
   y="384"
   width="17.066999"
   height="119.467"
   id="rect4218"
   style="fill:#ffffff;fill-opacity:1;stroke:none;stroke-opacity:1" />
	</g>
</g><g
   id="g4220"
   transform="matrix(0.67891612,0,0,0.67891612,86.44724,93.414318)"
   style="fill:#ffffff;fill-opacity:1;stroke:none;stroke-opacity:1">
	<g
   id="g4222"
   style="fill:#ffffff;fill-opacity:1;stroke:none;stroke-opacity:1">
		<rect
   x="418.133"
   y="341.33301"
   width="34.132999"
   height="17.066999"
   id="rect4224"
   style="fill:#ffffff;fill-opacity:1;stroke:none;stroke-opacity:1" />
	</g>
</g><g
   id="g4226"
   transform="matrix(0.67891612,0,0,0.67891612,86.44724,93.414318)"
   style="fill:#ffffff;fill-opacity:1;stroke:none;stroke-opacity:1">
	<g
   id="g4228"
   style="fill:#ffffff;fill-opacity:1;stroke:none;stroke-opacity:1">
		<rect
   x="392.53299"
   y="426.66699"
   width="17.066999"
   height="25.6"
   id="rect4230"
   style="fill:#ffffff;fill-opacity:1;stroke:none;stroke-opacity:1" />
	</g>
</g><g
   id="g4232"
   transform="matrix(0.67891612,0,0,0.67891612,86.44724,93.414318)"
   style="fill:#ffffff;fill-opacity:1;stroke:none;stroke-opacity:1">
	<g
   id="g4234"
   style="fill:#ffffff;fill-opacity:1;stroke:none;stroke-opacity:1">
		<rect
   x="460.79999"
   y="426.66699"
   width="17.066999"
   height="25.6"
   id="rect4236"
   style="fill:#ffffff;fill-opacity:1;stroke:none;stroke-opacity:1" />
	</g>
</g><g
   id="g4238"
   transform="matrix(0.67891612,0,0,0.67891612,86.44724,93.414318)"
   style="fill:#ffffff;fill-opacity:1;stroke:none;stroke-opacity:1">
	<g
   id="g4240"
   style="fill:#ffffff;fill-opacity:1;stroke:none;stroke-opacity:1">
		<path
   d="M 364.433,139.034 332.8,107.401 332.8,8.533 C 332.8,3.823 328.986,0 324.267,0 L 187.733,0 c -4.71,0 -8.533,3.823 -8.533,8.533 l 0,98.867 -31.633,31.633 c -2.441,2.44 -3.174,6.11 -1.852,9.301 1.323,3.183 4.437,5.265 7.885,5.265 l 204.8,0 c 3.447,0 6.571,-2.082 7.885,-5.265 1.322,-3.191 0.589,-6.86 -1.852,-9.3 z m -190.234,-2.501 19.567,-19.567 c 1.604,-1.596 2.5,-3.772 2.5,-6.033 l 0,-93.866 119.467,0 0,93.867 c 0,2.261 0.896,4.437 2.5,6.033 l 19.567,19.567 -163.601,0 z"
   id="path4242"
   inkscape:connector-curvature="0"
   style="fill:#ffffff;fill-opacity:1;stroke:none;stroke-opacity:1" />
	</g>
</g><g
   id="g4244"
   transform="matrix(0.67891612,0,0,0.67891612,86.44724,93.414318)"
   style="fill:#ffffff;fill-opacity:1;stroke:none;stroke-opacity:1">
	<g
   id="g4246"
   style="fill:#ffffff;fill-opacity:1;stroke:none;stroke-opacity:1">
		<path
   d="m 460.8,187.733 c -18.825,0 -34.133,15.309 -34.133,34.133 l 0,8.533 17.067,0 0,-8.533 c 0,-9.412 7.654,-17.067 17.067,-17.067 9.412,0 17.067,7.654 17.067,17.067 l 0,93.867 17.067,0 0,-93.867 c -0.002,-18.824 -15.31,-34.133 -34.135,-34.133 z"
   id="path4248"
   inkscape:connector-curvature="0"
   style="fill:#ffffff;fill-opacity:1;stroke:none;stroke-opacity:1" />
	</g>
</g><g
   id="g4250"
   transform="matrix(0.67891612,0,0,0.67891612,86.44724,93.414318)"
   style="fill:#ffffff;fill-opacity:1;stroke:none;stroke-opacity:1">
	<g
   id="g4252"
   style="fill:#ffffff;fill-opacity:1;stroke:none;stroke-opacity:1">
		<rect
   x="460.79999"
   y="273.06699"
   width="25.6"
   height="17.066999"
   id="rect4254"
   style="fill:#ffffff;fill-opacity:1;stroke:none;stroke-opacity:1" />
	</g>
</g><g
   id="g4256"
   transform="matrix(0.67891612,0,0,0.67891612,86.44724,93.414318)"
   style="fill:#ffffff;fill-opacity:1;stroke:none;stroke-opacity:1">
	<g
   id="g4258"
   style="fill:#ffffff;fill-opacity:1;stroke:none;stroke-opacity:1">
		<path
   d="m 247.467,256 -85.333,0 c -4.71,0 -8.533,3.814 -8.533,8.533 l 0,51.2 c 0,4.719 3.823,8.533 8.533,8.533 l 85.333,0 c 4.71,0 8.533,-3.814 8.533,-8.533 l 0,-51.2 C 256,259.814 252.177,256 247.467,256 Z m -8.534,51.2 -68.267,0 0,-34.133 68.267,0 0,34.133 z"
   id="path4260"
   inkscape:connector-curvature="0"
   style="fill:#ffffff;fill-opacity:1;stroke:none;stroke-opacity:1" />
	</g>
</g><g
   id="g4262"
   transform="matrix(0.67891612,0,0,0.67891612,86.44724,93.414318)"
   style="fill:#ffffff;fill-opacity:1;stroke:none;stroke-opacity:1">
	<g
   id="g4264"
   style="fill:#ffffff;fill-opacity:1;stroke:none;stroke-opacity:1">
		<rect
   x="136.533"
   y="273.06699"
   width="25.6"
   height="17.066999"
   id="rect4266"
   style="fill:#ffffff;fill-opacity:1;stroke:none;stroke-opacity:1" />
	</g>
</g><g
   id="g4268"
   transform="matrix(0.67891612,0,0,0.67891612,86.44724,93.414318)"
   style="fill:#ffffff;fill-opacity:1;stroke:none;stroke-opacity:1">
	<g
   id="g4270"
   style="fill:#ffffff;fill-opacity:1;stroke:none;stroke-opacity:1">
		<rect
   x="247.467"
   y="273.06699"
   width="25.6"
   height="17.066999"
   id="rect4272"
   style="fill:#ffffff;fill-opacity:1;stroke:none;stroke-opacity:1" />
	</g>
</g><g
   id="g4274"
   transform="matrix(0.67891612,0,0,0.67891612,86.44724,93.414318)"
   style="fill:#ffffff;fill-opacity:1;stroke:none;stroke-opacity:1">
	<g
   id="g4276"
   style="fill:#ffffff;fill-opacity:1;stroke:none;stroke-opacity:1">
		<path
   d="M 145.067,0 8.533,0 C 3.823,0 0,3.823 0,8.533 l 0,102.4 c 0,4.71 3.823,8.533 8.533,8.533 l 136.533,0 c 4.71,0 8.533,-3.823 8.533,-8.533 l 0,-102.4 C 153.6,3.823 149.777,0 145.067,0 Z m -8.534,102.4 -119.466,0 0,-85.333 119.467,0 0,85.333 z"
   id="path4278"
   inkscape:connector-curvature="0"
   style="fill:#ffffff;fill-opacity:1;stroke:none;stroke-opacity:1" />
	</g>
</g><g
   id="g4280"
   transform="matrix(0.67891612,0,0,0.67891612,86.44724,93.414318)"
   style="fill:#ffffff;fill-opacity:1;stroke:none;stroke-opacity:1">
	<g
   id="g4282"
   style="fill:#ffffff;fill-opacity:1;stroke:none;stroke-opacity:1">
		<rect
   x="102.4"
   y="51.200001"
   width="17.066999"
   height="34.132999"
   id="rect4284"
   style="fill:#ffffff;fill-opacity:1;stroke:none;stroke-opacity:1" />
	</g>
</g><g
   id="g4286"
   transform="matrix(0.67891612,0,0,0.67891612,86.44724,93.414318)"
   style="fill:#ffffff;fill-opacity:1;stroke:none;stroke-opacity:1">
	<g
   id="g4288"
   style="fill:#ffffff;fill-opacity:1;stroke:none;stroke-opacity:1">
		<path
   d="M 503.467,0 366.933,0 C 362.214,0 358.4,3.823 358.4,8.533 l 0,102.4 c 0,4.71 3.814,8.533 8.533,8.533 l 136.533,0 c 4.719,0 8.533,-3.823 8.533,-8.533 l 0,-102.4 C 512,3.823 508.186,0 503.467,0 Z m -8.534,102.4 -119.466,0 0,-85.333 119.467,0 0,85.333 z"
   id="path4290"
   inkscape:connector-curvature="0"
   style="fill:#ffffff;fill-opacity:1;stroke:none;stroke-opacity:1" />
	</g>
</g><g
   id="g4292"
   transform="matrix(0.67891612,0,0,0.67891612,86.44724,93.414318)"
   style="fill:#ffffff;fill-opacity:1;stroke:none;stroke-opacity:1">
	<g
   id="g4294"
   style="fill:#ffffff;fill-opacity:1;stroke:none;stroke-opacity:1">
		<rect
   x="392.53299"
   y="51.200001"
   width="17.066999"
   height="34.132999"
   id="rect4296"
   style="fill:#ffffff;fill-opacity:1;stroke:none;stroke-opacity:1" />
	</g>
</g><g
   id="g4298"
   transform="matrix(0.67891612,0,0,0.67891612,86.44724,93.414318)"
   style="fill:#ffffff;fill-opacity:1;stroke:none;stroke-opacity:1">
	<g
   id="g4300"
   style="fill:#ffffff;fill-opacity:1;stroke:none;stroke-opacity:1">
		<rect
   x="0"
   y="170.66701"
   width="153.60001"
   height="17.066999"
   id="rect4302"
   style="fill:#ffffff;fill-opacity:1;stroke:none;stroke-opacity:1" />
	</g>
</g><g
   id="g4304"
   transform="matrix(0.67891612,0,0,0.67891612,86.44724,93.414318)"
   style="fill:#ffffff;fill-opacity:1;stroke:none;stroke-opacity:1">
	<g
   id="g4306"
   style="fill:#ffffff;fill-opacity:1;stroke:none;stroke-opacity:1">
		<rect
   x="17.066999"
   y="153.60001"
   width="17.066999"
   height="76.800003"
   id="rect4308"
   style="fill:#ffffff;fill-opacity:1;stroke:none;stroke-opacity:1" />
	</g>
</g><g
   id="g4310"
   transform="matrix(0.67891612,0,0,0.67891612,86.44724,93.414318)"
   style="fill:#ffffff;fill-opacity:1;stroke:none;stroke-opacity:1">
	<g
   id="g4312"
   style="fill:#ffffff;fill-opacity:1;stroke:none;stroke-opacity:1">
		<path
   d="m 25.6,221.867 c -14.114,0 -25.6,11.486 -25.6,25.6 0,14.114 11.486,25.6 25.6,25.6 14.114,0 25.6,-11.486 25.6,-25.6 0,-14.114 -11.486,-25.6 -25.6,-25.6 z m 0,34.133 c -4.702,0 -8.533,-3.831 -8.533,-8.533 0,-4.702 3.831,-8.533 8.533,-8.533 4.702,0 8.533,3.831 8.533,8.533 0,4.702 -3.831,8.533 -8.533,8.533 z"
   id="path4314"
   inkscape:connector-curvature="0"
   style="fill:#ffffff;fill-opacity:1;stroke:none;stroke-opacity:1" />
	</g>
</g><g
   id="g4316"
   transform="matrix(0.67891612,0,0,0.67891612,86.44724,93.414318)"
   style="fill:#ffffff;fill-opacity:1;stroke:none;stroke-opacity:1">
	<g
   id="g4318"
   style="fill:#ffffff;fill-opacity:1;stroke:none;stroke-opacity:1">
		<rect
   x="51.200001"
   y="153.60001"
   width="17.066999"
   height="76.800003"
   id="rect4320"
   style="fill:#ffffff;fill-opacity:1;stroke:none;stroke-opacity:1" />
	</g>
</g><g
   id="g4322"
   transform="matrix(0.67891612,0,0,0.67891612,86.44724,93.414318)"
   style="fill:#ffffff;fill-opacity:1;stroke:none;stroke-opacity:1">
	<g
   id="g4324"
   style="fill:#ffffff;fill-opacity:1;stroke:none;stroke-opacity:1">
		<path
   d="m 59.733,221.867 c -14.114,0 -25.6,11.486 -25.6,25.6 0,14.114 11.486,25.6 25.6,25.6 14.114,0 25.6,-11.486 25.6,-25.6 0,-14.114 -11.486,-25.6 -25.6,-25.6 z m 0,34.133 c -4.702,0 -8.533,-3.831 -8.533,-8.533 0,-4.702 3.831,-8.533 8.533,-8.533 4.702,0 8.533,3.831 8.533,8.533 10e-4,4.702 -3.831,8.533 -8.533,8.533 z"
   id="path4326"
   inkscape:connector-curvature="0"
   style="fill:#ffffff;fill-opacity:1;stroke:none;stroke-opacity:1" />
	</g>
</g><g
   id="g4328"
   transform="matrix(0.67891612,0,0,0.67891612,86.44724,93.414318)"
   style="fill:#ffffff;fill-opacity:1;stroke:none;stroke-opacity:1">
	<g
   id="g4330"
   style="fill:#ffffff;fill-opacity:1;stroke:none;stroke-opacity:1">
		<rect
   x="85.333"
   y="153.60001"
   width="17.066999"
   height="76.800003"
   id="rect4332"
   style="fill:#ffffff;fill-opacity:1;stroke:none;stroke-opacity:1" />
	</g>
</g><g
   id="g4334"
   transform="matrix(0.67891612,0,0,0.67891612,86.44724,93.414318)"
   style="fill:#ffffff;fill-opacity:1;stroke:none;stroke-opacity:1">
	<g
   id="g4336"
   style="fill:#ffffff;fill-opacity:1;stroke:none;stroke-opacity:1">
		<path
   d="m 93.867,221.867 c -14.114,0 -25.6,11.486 -25.6,25.6 0,14.114 11.486,25.6 25.6,25.6 14.114,0 25.6,-11.486 25.6,-25.6 0,-14.114 -11.486,-25.6 -25.6,-25.6 z m 0,34.133 c -4.702,0 -8.533,-3.831 -8.533,-8.533 0,-4.702 3.831,-8.533 8.533,-8.533 4.702,0 8.533,3.831 8.533,8.533 0,4.702 -3.831,8.533 -8.533,8.533 z"
   id="path4338"
   inkscape:connector-curvature="0"
   style="fill:#ffffff;fill-opacity:1;stroke:none;stroke-opacity:1" />
	</g>
</g><ellipse
   ry="256.18839"
   rx="256.5719"
   cy="866.65906"
   cx="261.65665"
   id="ellipse6798"
   style="fill:#ffb503;fill-opacity:1;stroke:#ffb503;stroke-width:13.69999981;stroke-linecap:round;stroke-linejoin:round;stroke-miterlimit:4;stroke-dasharray:none;stroke-dashoffset:0;stroke-opacity:1" /><g
   id="g6800"
   style="fill:#ffffff"
   transform="matrix(0.84180791,0,0,0.84180791,-215.91727,232.49468)"><g
     id="g5959"
     transform="translate(326.23729,497.62712)"
     style="fill:#ffffff"><g
       id="g5961"
       style="fill:#ffffff"><path
         id="path5963"
         d="m 472,272 -8,0 0,-24 c -0.021,-15.886 -9.44,-30.254 -24,-36.608 L 440,88 c -0.002,-3.18 -1.886,-6.056 -4.8,-7.328 3.121,-5.002 4.783,-10.776 4.8,-16.672 0,-17.673 -14.327,-32 -32,-32 -17.673,0 -32,14.327 -32,32 0.033,5.634 1.569,11.157 4.448,16 L 99.552,80 C 102.431,75.157 103.967,69.634 104,64 104,46.327 89.673,32 72,32 54.327,32 40,46.327 40,64 40.017,69.896 41.679,75.67 44.8,80.672 41.886,81.944 40.002,84.82 40,88 l 0,123.392 C 25.44,217.746 16.021,232.114 16,248 l 0,24 -8,0 c -4.418,0 -8,3.582 -8,8 l 0,112 c 0,4.418 3.582,8 8,8 l 8,0 0,40 c 0,4.418 3.582,8 8,8 l 32,0 c 4.418,0 8,-3.582 8,-8 l 0,-40 352,0 0,40 c 0,4.418 3.582,8 8,8 l 32,0 c 4.418,0 8,-3.582 8,-8 l 0,-40 8,0 c 4.418,0 8,-3.582 8,-8 l 0,-112 c 0,-4.418 -3.582,-8 -8,-8 z M 408,48 c 8.837,0 16,7.163 16,16 0,8.837 -7.163,16 -16,16 -8.837,0 -16,-7.163 -16,-16 0,-8.837 7.163,-16 16,-16 z M 72,48 c 8.837,0 16,7.163 16,16 0,8.837 -7.163,16 -16,16 -8.837,0 -16,-7.163 -16,-16 0,-8.837 7.163,-16 16,-16 z m -16,48 368,0 0,112 -32.208,0 c 5.294,-6.883 8.179,-15.316 8.208,-24 l 0,-16 c -0.026,-22.08 -17.92,-39.974 -40,-40 l -64,0 c -22.08,0.026 -39.974,17.92 -40,40 l 0,16 c 0.029,8.684 2.914,17.117 8.208,24 l -48.416,0 c 5.294,-6.883 8.179,-15.316 8.208,-24 l 0,-16 c -0.026,-22.08 -17.92,-39.974 -40,-40 l -64,0 c -22.08,0.026 -39.974,17.92 -40,40 l 0,16 c 0.029,8.684 2.914,17.117 8.208,24 L 56,208 56,96 Z m 328,72 0,16 c 0,13.255 -10.745,24 -24,24 l -64,0 c -13.255,0 -24,-10.745 -24,-24 l 0,-16 c 0,-13.255 10.745,-24 24,-24 l 64,0 c 13.255,0 24,10.745 24,24 z m -176,0 0,16 c 0,13.255 -10.745,24 -24,24 l -64,0 c -13.255,0 -24,-10.745 -24,-24 l 0,-16 c 0,-13.255 10.745,-24 24,-24 l 64,0 c 13.255,0 24,10.745 24,24 z M 32,248 c 0,-13.255 10.745,-24 24,-24 l 368,0 c 13.255,0 24,10.745 24,24 l 0,24 -416,0 0,-24 z m 16,184 -16,0 0,-32 16,0 0,32 z m 400,0 -16,0 0,-32 16,0 0,32 z m 16,-48 -448,0 0,-96 448,0 0,96 z"
         inkscape:connector-curvature="0"
         style="fill:#ffffff" /></g></g><g
     id="g5965"
     transform="translate(326.23729,497.62712)"
     style="fill:#ffffff"><g
       id="g5967"
       style="fill:#ffffff"><path
         id="path5969"
         d="m 72,352 -32,0 c -4.418,0 -8,3.582 -8,8 0,4.418 3.582,8 8,8 l 32,0 c 4.418,0 8,-3.582 8,-8 0,-4.418 -3.582,-8 -8,-8 z"
         inkscape:connector-curvature="0"
         style="fill:#ffffff" /></g></g><g
     id="g5971"
     transform="translate(326.23729,497.62712)"
     style="fill:#ffffff"><g
       id="g5973"
       style="fill:#ffffff"><path
         id="path5975"
         d="m 440,352 -336,0 c -4.418,0 -8,3.582 -8,8 0,4.418 3.582,8 8,8 l 336,0 c 4.418,0 8,-3.582 8,-8 0,-4.418 -3.582,-8 -8,-8 z"
         inkscape:connector-curvature="0"
         style="fill:#ffffff" /></g></g></g><g
   id="g4714"><ellipse
     ry="256.18839"
     rx="256.5719"
     cy="866.65906"
     cx="861.65662"
     id="ellipse6811"
     style="fill:none;fill-opacity:1;stroke:#ffb503;stroke-width:13.69999981;stroke-linecap:round;stroke-linejoin:round;stroke-miterlimit:4;stroke-dasharray:none;stroke-dashoffset:0;stroke-opacity:1" /><g
     style="fill:#ffb503;fill-opacity:1"
     transform="translate(0,-10)"
     id="g6842"><g
       id="g6815"
       transform="matrix(0.84180791,0,0,0.84180791,658.71186,661.40113)"
       style="fill:#ffb503;fill-opacity:1;stroke:none;stroke-opacity:1"><g
         id="g6817"
         style="fill:#ffb503;fill-opacity:1;stroke:none;stroke-opacity:1"><path
           id="path6819"
           d="m 472,272 h -8 v -24 c -0.021,-15.886 -9.44,-30.254 -24,-36.608 V 88 c -0.002,-3.18 -1.886,-6.056 -4.8,-7.328 3.121,-5.002 4.783,-10.776 4.8,-16.672 0,-17.673 -14.327,-32 -32,-32 -17.673,0 -32,14.327 -32,32 0.033,5.634 1.569,11.157 4.448,16 H 99.552 C 102.431,75.157 103.967,69.634 104,64 104,46.327 89.673,32 72,32 54.327,32 40,46.327 40,64 40.017,69.896 41.679,75.67 44.8,80.672 41.886,81.944 40.002,84.82 40,88 V 211.392 C 25.44,217.746 16.021,232.114 16,248 v 24 H 8 c -4.418,0 -8,3.582 -8,8 v 112 c 0,4.418 3.582,8 8,8 h 8 v 40 c 0,4.418 3.582,8 8,8 h 32 c 4.418,0 8,-3.582 8,-8 v -40 h 352 v 40 c 0,4.418 3.582,8 8,8 h 32 c 4.418,0 8,-3.582 8,-8 v -40 h 8 c 4.418,0 8,-3.582 8,-8 V 280 c 0,-4.418 -3.582,-8 -8,-8 z M 408,48 c 8.837,0 16,7.163 16,16 0,8.837 -7.163,16 -16,16 -8.837,0 -16,-7.163 -16,-16 0,-8.837 7.163,-16 16,-16 z M 72,48 c 8.837,0 16,7.163 16,16 0,8.837 -7.163,16 -16,16 C 63.163,80 56,72.837 56,64 56,55.163 63.163,48 72,48 Z M 56,96 h 368 v 112 h -32.208 c 5.294,-6.883 8.179,-15.316 8.208,-24 v -16 c -0.026,-22.08 -17.92,-39.974 -40,-40 h -64 c -22.08,0.026 -39.974,17.92 -40,40 v 16 c 0.029,8.684 2.914,17.117 8.208,24 h -48.416 c 5.294,-6.883 8.179,-15.316 8.208,-24 v -16 c -0.026,-22.08 -17.92,-39.974 -40,-40 h -64 c -22.08,0.026 -39.974,17.92 -40,40 v 16 c 0.029,8.684 2.914,17.117 8.208,24 H 56 Z m 328,72 v 16 c 0,13.255 -10.745,24 -24,24 h -64 c -13.255,0 -24,-10.745 -24,-24 v -16 c 0,-13.255 10.745,-24 24,-24 h 64 c 13.255,0 24,10.745 24,24 z m -176,0 v 16 c 0,13.255 -10.745,24 -24,24 h -64 c -13.255,0 -24,-10.745 -24,-24 v -16 c 0,-13.255 10.745,-24 24,-24 h 64 c 13.255,0 24,10.745 24,24 z M 32,248 c 0,-13.255 10.745,-24 24,-24 h 368 c 13.255,0 24,10.745 24,24 v 24 H 32 Z M 48,432 H 32 v -32 h 16 z m 400,0 h -16 v -32 h 16 z m 16,-48 H 16 v -96 h 448 z"
           inkscape:connector-curvature="0"
           style="fill:#ffb503;fill-opacity:1;stroke:none;stroke-opacity:1" /></g></g><g
       id="g6821"
       transform="matrix(0.84180791,0,0,0.84180791,658.71186,661.40113)"
       style="fill:#ffb503;fill-opacity:1;stroke:none;stroke-opacity:1"><g
         id="g6823"
         style="fill:#ffb503;fill-opacity:1;stroke:none;stroke-opacity:1"><path
           id="path6825"
           d="M 72,352 H 40 c -4.418,0 -8,3.582 -8,8 0,4.418 3.582,8 8,8 h 32 c 4.418,0 8,-3.582 8,-8 0,-4.418 -3.582,-8 -8,-8 z"
           inkscape:connector-curvature="0"
           style="fill:#ffb503;fill-opacity:1;stroke:none;stroke-opacity:1" /></g></g><g
       id="g6827"
       transform="matrix(0.84180791,0,0,0.84180791,658.71186,661.40113)"
       style="fill:#ffb503;fill-opacity:1;stroke:none;stroke-opacity:1"><g
         id="g6829"
         style="fill:#ffb503;fill-opacity:1;stroke:none;stroke-opacity:1"><path
           id="path6831"
           d="M 440,352 H 104 c -4.418,0 -8,3.582 -8,8 0,4.418 3.582,8 8,8 h 336 c 4.418,0 8,-3.582 8,-8 0,-4.418 -3.582,-8 -8,-8 z"
           inkscape:connector-curvature="0"
           style="fill:#ffb503;fill-opacity:1;stroke:none;stroke-opacity:1" /></g></g></g></g><ellipse
   style="fill:#ffb503;fill-opacity:1;stroke:#ffb503;stroke-width:13.69999981;stroke-linecap:round;stroke-linejoin:round;stroke-miterlimit:4;stroke-dasharray:none;stroke-dashoffset:0;stroke-opacity:1"
   id="ellipse7562"
   cx="261.65665"
   cy="1446.6592"
   rx="256.5719"
   ry="256.18839" /><g
   transform="matrix(0.83474576,0,0,0.83474576,38.508475,1229.2272)"
   id="g7482"
   style="fill:#fffdf8;fill-opacity:1"><g
     id="g6880"
     transform="translate(1,1)"
     style="fill:#fffdf8;fill-opacity:1"><g
       id="g6882"
       style="fill:#fffdf8;fill-opacity:1"><g
         id="g6884"
         style="fill:#fffdf8;fill-opacity:1"><path
           inkscape:connector-curvature="0"
           id="path6886"
           d="m 485.4,272.067 -8.533,0 0,-179.2 c 0,-42.667 -34.133,-76.8 -76.8,-76.8 -37.77,0 -64.935,28.006 -67.974,69.041 -19.829,3.748 -34.426,20.826 -34.426,41.892 0,5.12 3.413,8.533 8.533,8.533 l 68.267,0 c 5.12,0 8.533,-3.413 8.533,-8.533 0,-20.833 -14.274,-37.769 -33.767,-41.767 2.55,-27.116 18.836,-52.1 50.834,-52.1 33.28,0 59.733,26.453 59.733,59.733 l 0,179.2 -256.825,0 c -3.86,-19.681 -20.878,-34.133 -41.841,-34.133 -8.533,-10.24 -20.48,-17.067 -34.133,-17.067 -16.213,0 -30.72,9.387 -37.547,23.04 -6.827,-3.413 -14.507,-5.973 -22.187,-5.973 -20.963,0 -37.981,14.452 -41.841,34.133 l -0.826,0 c -14.507,0 -25.6,11.093 -25.6,25.6 0,14.507 11.093,25.6 25.6,25.6 l 10.255,0 23.025,91.307 c 6.827,26.453 30.72,45.227 58.027,45.227 l 6.827,0 -11.093,22.187 c -2.56,4.267 -0.853,9.387 3.413,11.093 0.853,0.853 2.56,0.853 3.413,0.853 3.413,0 5.973,-1.707 7.68,-4.267 l 14.933,-29.866 236.8,0 14.507,29.013 c 1.707,3.413 4.267,5.12 7.68,5.12 1.707,0 2.56,0 3.413,-1.707 3.413,-1.707 5.12,-6.827 3.413,-11.093 l -10.689,-21.379 c 26.419,-0.938 49.266,-19.39 55.916,-44.328 l 23.24,-92.16 10.04,0 c 14.507,0 25.6,-11.093 25.6,-25.6 0,-14.506 -11.093,-25.599 -25.6,-25.599 z m -120.32,-153.6 -48.64,0 c 3.413,-10.24 13.653,-17.067 24.747,-17.067 11.094,0 20.48,6.827 23.893,17.067 z M 67.267,255 c 7.68,0 14.507,3.413 20.48,9.387 1.707,2.56 5.12,3.413 8.533,2.56 3.413,-0.853 5.12,-3.413 5.973,-6.827 2.56,-12.8 12.8,-22.187 25.6,-22.187 9.387,0 17.92,4.267 22.187,12.8 1.707,3.413 5.973,5.12 9.387,4.267 0.853,0 1.707,0 2.56,0 11.093,0 20.48,6.827 23.893,17.067 l -142.507,0 C 46.787,261.827 56.173,255 67.267,255 Z M 436.76,410.307 c -5.12,18.773 -22.187,32.427 -41.813,32.427 l -278.187,0 c -19.627,0 -36.693,-13.653 -41.813,-32.427 l -22.187,-87.04 404.48,0 -20.48,87.04 z M 485.4,306.2 l -17.067,0 -426.666,0 -17.067,0 c -5.12,0 -8.533,-3.413 -8.533,-8.533 0,-5.12 3.413,-8.533 8.533,-8.533 l 8.533,0 162.133,0 290.134,0 c 5.12,0 8.533,3.413 8.533,8.533 0,5.12 -3.413,8.533 -8.533,8.533 z"
           style="fill:#fffdf8;fill-opacity:1" /><path
           inkscape:connector-curvature="0"
           id="path6888"
           d="m 306.2,173.933 c 5.12,0 8.533,-3.413 8.533,-8.533 l 0,-4.267 c 0,-5.12 -3.413,-8.533 -8.533,-8.533 -5.12,0 -8.533,3.413 -8.533,8.533 l 0,4.267 c 0,5.12 3.413,8.533 8.533,8.533 z"
           style="fill:#fffdf8;fill-opacity:1" /><path
           inkscape:connector-curvature="0"
           id="path6890"
           d="m 306.2,213.187 c 5.12,0 8.533,-4.267 8.533,-8.533 l 0,-9.387 c 0,-5.12 -3.413,-8.533 -8.533,-8.533 -5.12,0 -8.533,3.413 -8.533,8.533 l 0,9.387 c 0,5.119 3.413,8.533 8.533,8.533 z"
           style="fill:#fffdf8;fill-opacity:1" /><path
           inkscape:connector-curvature="0"
           id="path6892"
           d="m 306.2,246.467 c 5.12,0 8.533,-3.413 8.533,-8.533 l 0,-4.267 c 0,-5.12 -3.413,-8.533 -8.533,-8.533 -5.12,0 -8.533,3.413 -8.533,8.533 l 0,4.267 c 0,5.119 3.413,8.533 8.533,8.533 z"
           style="fill:#fffdf8;fill-opacity:1" /><path
           inkscape:connector-curvature="0"
           id="path6894"
           d="m 340.333,173.933 c 5.12,0 8.533,-3.413 8.533,-8.533 l 0,-4.267 c 0,-5.12 -3.413,-8.533 -8.533,-8.533 -5.12,0 -8.533,3.413 -8.533,8.533 l 0,4.267 c 0,5.12 3.413,8.533 8.533,8.533 z"
           style="fill:#fffdf8;fill-opacity:1" /><path
           inkscape:connector-curvature="0"
           id="path6896"
           d="m 331.8,204.653 c 0,5.12 3.413,8.533 8.533,8.533 5.12,0 8.533,-4.267 8.533,-8.533 l 0,-9.387 c 0,-5.12 -3.413,-8.533 -8.533,-8.533 -5.12,0 -8.533,3.413 -8.533,8.533 l 0,9.387 z"
           style="fill:#fffdf8;fill-opacity:1" /><path
           inkscape:connector-curvature="0"
           id="path6898"
           d="m 331.8,237.933 c 0,5.12 3.413,8.533 8.533,8.533 5.12,0 8.533,-3.413 8.533,-8.533 l 0,-4.267 c 0,-5.12 -3.413,-8.533 -8.533,-8.533 -5.12,0 -8.533,3.413 -8.533,8.533 l 0,4.267 z"
           style="fill:#fffdf8;fill-opacity:1" /><path
           inkscape:connector-curvature="0"
           id="path6900"
           d="m 374.467,173.933 c 5.12,0 8.533,-3.413 8.533,-8.533 l 0,-4.267 c 0,-5.12 -3.413,-8.533 -8.533,-8.533 -5.12,0 -8.533,3.413 -8.533,8.533 l 0,4.267 c -0.001,5.12 3.413,8.533 8.533,8.533 z"
           style="fill:#fffdf8;fill-opacity:1" /><path
           inkscape:connector-curvature="0"
           id="path6902"
           d="m 365.933,204.653 c 0,5.12 3.413,8.533 8.533,8.533 5.12,0 8.534,-4.266 8.534,-8.533 l 0,-9.387 c 0,-5.12 -3.413,-8.533 -8.533,-8.533 -5.12,0 -8.533,3.413 -8.533,8.533 l 0,9.387 z"
           style="fill:#fffdf8;fill-opacity:1" /><path
           inkscape:connector-curvature="0"
           id="path6904"
           d="m 365.933,237.933 c 0,5.12 3.413,8.533 8.533,8.533 5.12,0 8.533,-3.413 8.533,-8.533 l 0,-4.267 c 0,-5.12 -3.413,-8.533 -8.533,-8.533 -5.12,0 -8.533,3.413 -8.533,8.533 l 0,4.267 z"
           style="fill:#fffdf8;fill-opacity:1" /></g></g></g></g><g
   id="g7594"
   inkscape:export-filename="C:\Users\ADMIN\Documents\GitHub\finalProject\webClients\css\images\bathroomBefore.png"
   inkscape:export-xdpi="90"
   inkscape:export-ydpi="90"><ellipse
     style="fill:none;fill-opacity:1;stroke:#ffb503;stroke-width:13.69999981;stroke-linecap:round;stroke-linejoin:round;stroke-miterlimit:4;stroke-dasharray:none;stroke-dashoffset:0;stroke-opacity:1"
     id="ellipse7564"
     cx="881.65662"
     cy="1446.6592"
     rx="256.5719"
     ry="256.18839" /><g
     transform="matrix(0.83474576,0,0,0.83474576,658.50848,1229.2272)"
     id="g7566"
     style="fill:#ffb503;fill-opacity:1"><g
       id="g7568"
       transform="translate(1,1)"
       style="fill:#ffb503;fill-opacity:1"><g
         id="g7570"
         style="fill:#ffb503;fill-opacity:1"><g
           id="g7572"
           style="fill:#ffb503;fill-opacity:1"><path
             inkscape:connector-curvature="0"
             id="path7574"
             d="m 485.4,272.067 -8.533,0 0,-179.2 c 0,-42.667 -34.133,-76.8 -76.8,-76.8 -37.77,0 -64.935,28.006 -67.974,69.041 -19.829,3.748 -34.426,20.826 -34.426,41.892 0,5.12 3.413,8.533 8.533,8.533 l 68.267,0 c 5.12,0 8.533,-3.413 8.533,-8.533 0,-20.833 -14.274,-37.769 -33.767,-41.767 2.55,-27.116 18.836,-52.1 50.834,-52.1 33.28,0 59.733,26.453 59.733,59.733 l 0,179.2 -256.825,0 c -3.86,-19.681 -20.878,-34.133 -41.841,-34.133 -8.533,-10.24 -20.48,-17.067 -34.133,-17.067 -16.213,0 -30.72,9.387 -37.547,23.04 -6.827,-3.413 -14.507,-5.973 -22.187,-5.973 -20.963,0 -37.981,14.452 -41.841,34.133 l -0.826,0 c -14.507,0 -25.6,11.093 -25.6,25.6 0,14.507 11.093,25.6 25.6,25.6 l 10.255,0 23.025,91.307 c 6.827,26.453 30.72,45.227 58.027,45.227 l 6.827,0 -11.093,22.187 c -2.56,4.267 -0.853,9.387 3.413,11.093 0.853,0.853 2.56,0.853 3.413,0.853 3.413,0 5.973,-1.707 7.68,-4.267 l 14.933,-29.866 236.8,0 14.507,29.013 c 1.707,3.413 4.267,5.12 7.68,5.12 1.707,0 2.56,0 3.413,-1.707 3.413,-1.707 5.12,-6.827 3.413,-11.093 l -10.689,-21.379 c 26.419,-0.938 49.266,-19.39 55.916,-44.328 l 23.24,-92.16 10.04,0 c 14.507,0 25.6,-11.093 25.6,-25.6 0,-14.506 -11.093,-25.599 -25.6,-25.599 z m -120.32,-153.6 -48.64,0 c 3.413,-10.24 13.653,-17.067 24.747,-17.067 11.094,0 20.48,6.827 23.893,17.067 z M 67.267,255 c 7.68,0 14.507,3.413 20.48,9.387 1.707,2.56 5.12,3.413 8.533,2.56 3.413,-0.853 5.12,-3.413 5.973,-6.827 2.56,-12.8 12.8,-22.187 25.6,-22.187 9.387,0 17.92,4.267 22.187,12.8 1.707,3.413 5.973,5.12 9.387,4.267 0.853,0 1.707,0 2.56,0 11.093,0 20.48,6.827 23.893,17.067 l -142.507,0 C 46.787,261.827 56.173,255 67.267,255 Z M 436.76,410.307 c -5.12,18.773 -22.187,32.427 -41.813,32.427 l -278.187,0 c -19.627,0 -36.693,-13.653 -41.813,-32.427 l -22.187,-87.04 404.48,0 -20.48,87.04 z M 485.4,306.2 l -17.067,0 -426.666,0 -17.067,0 c -5.12,0 -8.533,-3.413 -8.533,-8.533 0,-5.12 3.413,-8.533 8.533,-8.533 l 8.533,0 162.133,0 290.134,0 c 5.12,0 8.533,3.413 8.533,8.533 0,5.12 -3.413,8.533 -8.533,8.533 z"
             style="fill:#ffb503;fill-opacity:1" /><path
             inkscape:connector-curvature="0"
             id="path7576"
             d="m 306.2,173.933 c 5.12,0 8.533,-3.413 8.533,-8.533 l 0,-4.267 c 0,-5.12 -3.413,-8.533 -8.533,-8.533 -5.12,0 -8.533,3.413 -8.533,8.533 l 0,4.267 c 0,5.12 3.413,8.533 8.533,8.533 z"
             style="fill:#ffb503;fill-opacity:1" /><path
             inkscape:connector-curvature="0"
             id="path7578"
             d="m 306.2,213.187 c 5.12,0 8.533,-4.267 8.533,-8.533 l 0,-9.387 c 0,-5.12 -3.413,-8.533 -8.533,-8.533 -5.12,0 -8.533,3.413 -8.533,8.533 l 0,9.387 c 0,5.119 3.413,8.533 8.533,8.533 z"
             style="fill:#ffb503;fill-opacity:1" /><path
             inkscape:connector-curvature="0"
             id="path7580"
             d="m 306.2,246.467 c 5.12,0 8.533,-3.413 8.533,-8.533 l 0,-4.267 c 0,-5.12 -3.413,-8.533 -8.533,-8.533 -5.12,0 -8.533,3.413 -8.533,8.533 l 0,4.267 c 0,5.119 3.413,8.533 8.533,8.533 z"
             style="fill:#ffb503;fill-opacity:1" /><path
             inkscape:connector-curvature="0"
             id="path7582"
             d="m 340.333,173.933 c 5.12,0 8.533,-3.413 8.533,-8.533 l 0,-4.267 c 0,-5.12 -3.413,-8.533 -8.533,-8.533 -5.12,0 -8.533,3.413 -8.533,8.533 l 0,4.267 c 0,5.12 3.413,8.533 8.533,8.533 z"
             style="fill:#ffb503;fill-opacity:1" /><path
             inkscape:connector-curvature="0"
             id="path7584"
             d="m 331.8,204.653 c 0,5.12 3.413,8.533 8.533,8.533 5.12,0 8.533,-4.267 8.533,-8.533 l 0,-9.387 c 0,-5.12 -3.413,-8.533 -8.533,-8.533 -5.12,0 -8.533,3.413 -8.533,8.533 l 0,9.387 z"
             style="fill:#ffb503;fill-opacity:1" /><path
             inkscape:connector-curvature="0"
             id="path7586"
             d="m 331.8,237.933 c 0,5.12 3.413,8.533 8.533,8.533 5.12,0 8.533,-3.413 8.533,-8.533 l 0,-4.267 c 0,-5.12 -3.413,-8.533 -8.533,-8.533 -5.12,0 -8.533,3.413 -8.533,8.533 l 0,4.267 z"
             style="fill:#ffb503;fill-opacity:1" /><path
             inkscape:connector-curvature="0"
             id="path7588"
             d="m 374.467,173.933 c 5.12,0 8.533,-3.413 8.533,-8.533 l 0,-4.267 c 0,-5.12 -3.413,-8.533 -8.533,-8.533 -5.12,0 -8.533,3.413 -8.533,8.533 l 0,4.267 c -0.001,5.12 3.413,8.533 8.533,8.533 z"
             style="fill:#ffb503;fill-opacity:1" /><path
             inkscape:connector-curvature="0"
             id="path7590"
             d="m 365.933,204.653 c 0,5.12 3.413,8.533 8.533,8.533 5.12,0 8.534,-4.266 8.534,-8.533 l 0,-9.387 c 0,-5.12 -3.413,-8.533 -8.533,-8.533 -5.12,0 -8.533,3.413 -8.533,8.533 l 0,9.387 z"
             style="fill:#ffb503;fill-opacity:1" /><path
             inkscape:connector-curvature="0"
             id="path7592"
             d="m 365.933,237.933 c 0,5.12 3.413,8.533 8.533,8.533 5.12,0 8.533,-3.413 8.533,-8.533 l 0,-4.267 c 0,-5.12 -3.413,-8.533 -8.533,-8.533 -5.12,0 -8.533,3.413 -8.533,8.533 l 0,4.267 z"
             style="fill:#ffb503;fill-opacity:1" /></g></g></g></g></g><ellipse
   ry="256.18839"
   rx="256.5719"
   cy="2026.6592"
   cx="261.65665"
   id="ellipse8373"
   style="fill:#ffb503;fill-opacity:1;stroke:#ffb503;stroke-width:13.69999981;stroke-linecap:round;stroke-linejoin:round;stroke-miterlimit:4;stroke-dasharray:none;stroke-dashoffset:0;stroke-opacity:1"
   inkscape:export-filename="C:\Users\Renzo\Documents\GitHub\finalProject\webClients\css\images\livingAfter.png"
   inkscape:export-xdpi="90"
   inkscape:export-ydpi="90" /><g
   transform="matrix(0.72960796,0,0,0.72960796,76.818465,1826.0747)"
   id="g8265"
   style="fill:#fffdf8;fill-opacity:1"
   inkscape:export-filename="C:\Users\Renzo\Documents\GitHub\finalProject\webClients\css\images\livingAfter.png"
   inkscape:export-xdpi="90"
   inkscape:export-ydpi="90"><g
     id="g7653"
     style="fill:#fffdf8;fill-opacity:1"><g
       id="g7655"
       style="fill:#fffdf8;fill-opacity:1"><path
         inkscape:connector-curvature="0"
         id="path7657"
         d="m 416,27 -149.999,0 c -5.522,0 -10,4.478 -10,10 0,5.522 4.478,10 10,10 L 406,47 l 0,65.667 c 0,5.522 4.478,10 10,10 5.522,0 10,-4.478 10,-10 L 426,37 c 0,-5.522 -4.478,-10 -10,-10 z"
         style="fill:#fffdf8;fill-opacity:1" /></g></g><g
     id="g7659"
     style="fill:#fffdf8;fill-opacity:1"><g
       id="g7661"
       style="fill:#fffdf8;fill-opacity:1"><path
         inkscape:connector-curvature="0"
         id="path7663"
         d="M 233.069,29.93 C 231.21,28.069 228.63,27 226,27 c -2.63,0 -5.21,1.069 -7.07,2.93 -1.86,1.861 -2.93,4.44 -2.93,7.07 0,2.63 1.069,5.21 2.93,7.069 1.86,1.861 4.44,2.931 7.07,2.931 2.63,0 5.21,-1.07 7.069,-2.931 C 234.93,42.21 236,39.63 236,37 c 0,-2.63 -1.07,-5.21 -2.931,-7.07 z"
         style="fill:#fffdf8;fill-opacity:1" /></g></g><g
     id="g7665"
     style="fill:#fffdf8;fill-opacity:1"><g
       id="g7667"
       style="fill:#fffdf8;fill-opacity:1"><path
         inkscape:connector-curvature="0"
         id="path7669"
         d="m 376,67 -240,0 c -5.522,0 -10,4.478 -10,10 l 0,80 c 0,5.522 4.478,10 10,10 l 240,0 c 5.522,0 10,-4.478 10,-10 l 0,-80 c 0,-5.522 -4.478,-10 -10,-10 z m -10,80 -220,0 0,-60 220,0 0,60 z"
         style="fill:#fffdf8;fill-opacity:1" /></g></g><g
     id="g7671"
     style="fill:#fffdf8;fill-opacity:1"><g
       id="g7673"
       style="fill:#fffdf8;fill-opacity:1"><path
         inkscape:connector-curvature="0"
         id="path7675"
         d="m 502,424.938 -44,0 0,-185.938 44,0 c 3.27,0 6.333,-1.599 8.203,-4.281 1.87,-2.682 2.311,-6.109 1.18,-9.178 l -28.139,-76.333 c -1.449,-3.931 -5.194,-6.541 -9.383,-6.541 l -52.056,0 c -4.188,0 -7.934,2.61 -9.383,6.541 L 398.492,187 106,187 l 0,-140 74.5,0 c 5.522,0 10,-4.478 10,-10 0,-5.522 -4.478,-10 -10,-10 L 96,27 c -5.522,0 -10,4.478 -10,10 l 0,141.9 c -7.745,-8.662 -18.995,-14.127 -31.501,-14.127 -23.304,0 -42.263,18.959 -42.263,42.264 0,5.995 1.234,11.798 3.616,17.147 C 5.803,234.314 0,248.121 0,262.586 0,289.22 19.21,311.438 44.499,316.149 L 44.499,331 10,331 c -5.522,0 -10,4.478 -10,10 l 0,134 c 0,5.522 4.478,10 10,10 l 88.998,0 c 3.02,0 5.72,-1.344 7.554,-3.46 4.343,2.208 9.25,3.46 14.446,3.46 l 270.004,0 c 1.378,0 2.733,-0.097 4.066,-0.267 0.729,0.169 1.485,0.267 2.265,0.267 L 502,485 c 5.522,0 10,-4.478 10,-10 l 0,-40.063 c 0,-5.522 -4.478,-9.999 -10,-9.999 z m -73.223,-262.271 38.112,0 20.767,56.333 -39.173,0 c -0.161,-0.008 -0.32,-0.024 -0.483,-0.024 -0.163,0 -0.322,0.017 -0.483,0.024 l -39.506,0 20.766,-56.333 z m -384.279,98.308 0,34.627 C 30.338,291.304 20,278.132 20,262.586 c 0,-11.108 5.413,-21.607 14.479,-28.085 2.19,-1.564 3.657,-3.946 4.068,-6.606 0.412,-2.661 -0.266,-5.375 -1.881,-7.528 -2.898,-3.867 -4.431,-8.477 -4.431,-13.33 0,-12.276 9.987,-22.264 22.263,-22.264 12.276,0 22.263,9.987 22.263,22.264 0,4.854 -1.532,9.463 -4.431,13.331 -1.614,2.153 -2.292,4.867 -1.88,7.527 0.411,2.66 1.878,5.041 4.068,6.606 9.066,6.478 14.479,16.977 14.479,28.085 0,15.546 -10.338,28.718 -24.499,33.016 l 0,-34.627 c 0,-5.522 -4.478,-10 -10,-10 -5.522,0 -10,4.478 -10,10 z M 88.998,465 20,465 l 0,-114 68.998,0 0,114 z m 314.004,-12 c 0,6.617 -5.383,12 -12,12 l -270.004,0 c -6.617,0 -12,-5.383 -12,-12 l 0,-64 c 0,-9.925 8.075,-18 18,-18 9.925,0 18,8.075 18,18 l 0,32 c 0,5.522 4.478,10 10,10 l 202.004,0 c 5.522,0 10,-4.478 10,-10 l 0,-32 c 0,-9.925 8.075,-18 18,-18 9.925,0 18,8.075 18,18 l 0,64 z m -238.057,-66 182.11,0 c -0.035,0.663 -0.053,1.329 -0.053,2 l 0,22 -182.004,0 0,-22 c 0,-0.671 -0.019,-1.337 -0.053,-2 z m -6.993,-20 c -5.025,-7.049 -12.389,-12.315 -20.954,-14.655 l 0,-51.692 c 0,-11.388 9.265,-20.652 20.653,-20.652 l 197.663,0 c 11.388,0 20.652,9.265 20.652,20.652 l 0,51.442 c -8.976,2.197 -16.706,7.592 -21.918,14.905 l -196.096,0 z m 238.015,-14.381 0,-51.967 C 395.967,278.236 377.731,260 355.315,260 l -197.664,0 c -22.416,0 -40.653,18.236 -40.653,40.652 l 0,51.692 c -2.808,0.767 -5.49,1.842 -8,3.198 l 0,-14.542 c 0,-5.522 -4.478,-10 -10,-10 l -34.499,0 0,-14.851 c 25.289,-4.711 44.499,-26.929 44.499,-53.563 0,-14.465 -5.803,-28.271 -15.852,-38.403 2.381,-5.349 3.615,-11.151 3.615,-17.146 0,-0.012 -10e-4,-0.024 -10e-4,-0.036 l 294.358,0 -6.835,18.541 c -1.131,3.068 -0.69,6.495 1.18,9.178 1.87,2.683 4.934,4.281 8.203,4.281 l 44.334,0 0,185.938 -14.998,0 0,-35.939 c 0,-17.142 -11.412,-31.663 -27.035,-36.381 z M 492,465 l -71.342,0 c 1.506,-3.708 2.344,-7.757 2.344,-12 l 0,-8.063 68.998,0 0,20.063 z"
         style="fill:#fffdf8;fill-opacity:1" /></g></g><g
     id="g7677"
     style="fill:#fffdf8;fill-opacity:1"><g
       id="g7679"
       style="fill:#fffdf8;fill-opacity:1"><path
         inkscape:connector-curvature="0"
         id="path7681"
         d="m 295.061,300 -45.333,0 c -5.522,0 -10,4.478 -10,10 0,5.522 4.478,10 10,10 l 45.333,0 c 5.522,0 10,-4.478 10,-10 0,-5.522 -4.478,-10 -10,-10 z"
         style="fill:#fffdf8;fill-opacity:1" /></g></g><g
     id="g7683"
     style="fill:#fffdf8;fill-opacity:1"><g
       id="g7685"
       style="fill:#fffdf8;fill-opacity:1"><path
         inkscape:connector-curvature="0"
         id="path7687"
         d="m 221.74,302.93 c -1.86,-1.861 -4.44,-2.93 -7.08,-2.93 -2.63,0 -5.2,1.069 -7.07,2.93 -1.86,1.86 -2.93,4.44 -2.93,7.07 0,2.63 1.069,5.21 2.93,7.069 1.87,1.86 4.44,2.931 7.07,2.931 2.64,0 5.22,-1.07 7.08,-2.931 1.859,-1.859 2.92,-4.439 2.92,-7.069 0,-2.63 -1.061,-5.21 -2.92,-7.07 z"
         style="fill:#fffdf8;fill-opacity:1" /></g></g></g><ellipse
   style="fill:none;fill-opacity:1;stroke:#ffb503;stroke-width:13.7;stroke-linecap:round;stroke-linejoin:round;stroke-miterlimit:4;stroke-dasharray:none;stroke-dashoffset:0;stroke-opacity:1"
   id="ellipse8375"
   cx="881.65662"
   cy="2026.6592"
   rx="256.5719"
   ry="256.18839"
   inkscape:export-filename="C:\Users\Renzo\Documents\GitHub\finalProject\webClients\css\images\livingBefore.png"
   inkscape:export-xdpi="90"
   inkscape:export-ydpi="90" /><g
   style="fill:#ffb503;fill-opacity:1"
   id="g8377"
   transform="matrix(0.72960796,0,0,0.72960796,696.81847,1826.0747)"
   inkscape:export-filename="C:\Users\Renzo\Documents\GitHub\finalProject\webClients\css\images\livingBefore.png"
   inkscape:export-xdpi="90"
   inkscape:export-ydpi="90"><g
     style="fill:#ffb503;fill-opacity:1"
     id="g8379"><g
       style="fill:#ffb503;fill-opacity:1"
       id="g8381"><path
         style="fill:#ffb503;fill-opacity:1"
         d="m 416,27 -149.999,0 c -5.522,0 -10,4.478 -10,10 0,5.522 4.478,10 10,10 L 406,47 l 0,65.667 c 0,5.522 4.478,10 10,10 5.522,0 10,-4.478 10,-10 L 426,37 c 0,-5.522 -4.478,-10 -10,-10 z"
         id="path8383"
         inkscape:connector-curvature="0" /></g></g><g
     style="fill:#ffb503;fill-opacity:1"
     id="g8385"><g
       style="fill:#ffb503;fill-opacity:1"
       id="g8387"><path
         style="fill:#ffb503;fill-opacity:1"
         d="M 233.069,29.93 C 231.21,28.069 228.63,27 226,27 c -2.63,0 -5.21,1.069 -7.07,2.93 -1.86,1.861 -2.93,4.44 -2.93,7.07 0,2.63 1.069,5.21 2.93,7.069 1.86,1.861 4.44,2.931 7.07,2.931 2.63,0 5.21,-1.07 7.069,-2.931 C 234.93,42.21 236,39.63 236,37 c 0,-2.63 -1.07,-5.21 -2.931,-7.07 z"
         id="path8389"
         inkscape:connector-curvature="0" /></g></g><g
     style="fill:#ffb503;fill-opacity:1"
     id="g8391"><g
       style="fill:#ffb503;fill-opacity:1"
       id="g8393"><path
         style="fill:#ffb503;fill-opacity:1"
         d="m 376,67 -240,0 c -5.522,0 -10,4.478 -10,10 l 0,80 c 0,5.522 4.478,10 10,10 l 240,0 c 5.522,0 10,-4.478 10,-10 l 0,-80 c 0,-5.522 -4.478,-10 -10,-10 z m -10,80 -220,0 0,-60 220,0 0,60 z"
         id="path8395"
         inkscape:connector-curvature="0" /></g></g><g
     style="fill:#ffb503;fill-opacity:1"
     id="g8397"><g
       style="fill:#ffb503;fill-opacity:1"
       id="g8399"><path
         style="fill:#ffb503;fill-opacity:1"
         d="m 502,424.938 -44,0 0,-185.938 44,0 c 3.27,0 6.333,-1.599 8.203,-4.281 1.87,-2.682 2.311,-6.109 1.18,-9.178 l -28.139,-76.333 c -1.449,-3.931 -5.194,-6.541 -9.383,-6.541 l -52.056,0 c -4.188,0 -7.934,2.61 -9.383,6.541 L 398.492,187 106,187 l 0,-140 74.5,0 c 5.522,0 10,-4.478 10,-10 0,-5.522 -4.478,-10 -10,-10 L 96,27 c -5.522,0 -10,4.478 -10,10 l 0,141.9 c -7.745,-8.662 -18.995,-14.127 -31.501,-14.127 -23.304,0 -42.263,18.959 -42.263,42.264 0,5.995 1.234,11.798 3.616,17.147 C 5.803,234.314 0,248.121 0,262.586 0,289.22 19.21,311.438 44.499,316.149 L 44.499,331 10,331 c -5.522,0 -10,4.478 -10,10 l 0,134 c 0,5.522 4.478,10 10,10 l 88.998,0 c 3.02,0 5.72,-1.344 7.554,-3.46 4.343,2.208 9.25,3.46 14.446,3.46 l 270.004,0 c 1.378,0 2.733,-0.097 4.066,-0.267 0.729,0.169 1.485,0.267 2.265,0.267 L 502,485 c 5.522,0 10,-4.478 10,-10 l 0,-40.063 c 0,-5.522 -4.478,-9.999 -10,-9.999 z m -73.223,-262.271 38.112,0 20.767,56.333 -39.173,0 c -0.161,-0.008 -0.32,-0.024 -0.483,-0.024 -0.163,0 -0.322,0.017 -0.483,0.024 l -39.506,0 20.766,-56.333 z m -384.279,98.308 0,34.627 C 30.338,291.304 20,278.132 20,262.586 c 0,-11.108 5.413,-21.607 14.479,-28.085 2.19,-1.564 3.657,-3.946 4.068,-6.606 0.412,-2.661 -0.266,-5.375 -1.881,-7.528 -2.898,-3.867 -4.431,-8.477 -4.431,-13.33 0,-12.276 9.987,-22.264 22.263,-22.264 12.276,0 22.263,9.987 22.263,22.264 0,4.854 -1.532,9.463 -4.431,13.331 -1.614,2.153 -2.292,4.867 -1.88,7.527 0.411,2.66 1.878,5.041 4.068,6.606 9.066,6.478 14.479,16.977 14.479,28.085 0,15.546 -10.338,28.718 -24.499,33.016 l 0,-34.627 c 0,-5.522 -4.478,-10 -10,-10 -5.522,0 -10,4.478 -10,10 z M 88.998,465 20,465 l 0,-114 68.998,0 0,114 z m 314.004,-12 c 0,6.617 -5.383,12 -12,12 l -270.004,0 c -6.617,0 -12,-5.383 -12,-12 l 0,-64 c 0,-9.925 8.075,-18 18,-18 9.925,0 18,8.075 18,18 l 0,32 c 0,5.522 4.478,10 10,10 l 202.004,0 c 5.522,0 10,-4.478 10,-10 l 0,-32 c 0,-9.925 8.075,-18 18,-18 9.925,0 18,8.075 18,18 l 0,64 z m -238.057,-66 182.11,0 c -0.035,0.663 -0.053,1.329 -0.053,2 l 0,22 -182.004,0 0,-22 c 0,-0.671 -0.019,-1.337 -0.053,-2 z m -6.993,-20 c -5.025,-7.049 -12.389,-12.315 -20.954,-14.655 l 0,-51.692 c 0,-11.388 9.265,-20.652 20.653,-20.652 l 197.663,0 c 11.388,0 20.652,9.265 20.652,20.652 l 0,51.442 c -8.976,2.197 -16.706,7.592 -21.918,14.905 l -196.096,0 z m 238.015,-14.381 0,-51.967 C 395.967,278.236 377.731,260 355.315,260 l -197.664,0 c -22.416,0 -40.653,18.236 -40.653,40.652 l 0,51.692 c -2.808,0.767 -5.49,1.842 -8,3.198 l 0,-14.542 c 0,-5.522 -4.478,-10 -10,-10 l -34.499,0 0,-14.851 c 25.289,-4.711 44.499,-26.929 44.499,-53.563 0,-14.465 -5.803,-28.271 -15.852,-38.403 2.381,-5.349 3.615,-11.151 3.615,-17.146 0,-0.012 -10e-4,-0.024 -10e-4,-0.036 l 294.358,0 -6.835,18.541 c -1.131,3.068 -0.69,6.495 1.18,9.178 1.87,2.683 4.934,4.281 8.203,4.281 l 44.334,0 0,185.938 -14.998,0 0,-35.939 c 0,-17.142 -11.412,-31.663 -27.035,-36.381 z M 492,465 l -71.342,0 c 1.506,-3.708 2.344,-7.757 2.344,-12 l 0,-8.063 68.998,0 0,20.063 z"
         id="path8401"
         inkscape:connector-curvature="0" /></g></g><g
     style="fill:#ffb503;fill-opacity:1"
     id="g8403"><g
       style="fill:#ffb503;fill-opacity:1"
       id="g8405"><path
         style="fill:#ffb503;fill-opacity:1"
         d="m 295.061,300 -45.333,0 c -5.522,0 -10,4.478 -10,10 0,5.522 4.478,10 10,10 l 45.333,0 c 5.522,0 10,-4.478 10,-10 0,-5.522 -4.478,-10 -10,-10 z"
         id="path8407"
         inkscape:connector-curvature="0" /></g></g><g
     style="fill:#ffb503;fill-opacity:1"
     id="g8409"><g
       style="fill:#ffb503;fill-opacity:1"
       id="g8411"><path
         style="fill:#ffb503;fill-opacity:1"
         d="m 221.74,302.93 c -1.86,-1.861 -4.44,-2.93 -7.08,-2.93 -2.63,0 -5.2,1.069 -7.07,2.93 -1.86,1.86 -2.93,4.44 -2.93,7.07 0,2.63 1.069,5.21 2.93,7.069 1.87,1.86 4.44,2.931 7.07,2.931 2.64,0 5.22,-1.07 7.08,-2.931 1.859,-1.859 2.92,-4.439 2.92,-7.069 0,-2.63 -1.061,-5.21 -2.92,-7.07 z"
         id="path8413"
         inkscape:connector-curvature="0" /></g></g></g><ellipse
   ry="256.18839"
   rx="256.5719"
   cy="2586.6592"
   cx="901.65662"
   id="ellipse9077"
   style="fill:none;fill-opacity:1;stroke:#ffb503;stroke-width:13.69999981;stroke-linecap:round;stroke-linejoin:round;stroke-miterlimit:4;stroke-dasharray:none;stroke-dashoffset:0;stroke-opacity:1"
   inkscape:export-filename="C:\Users\Renzo\Documents\GitHub\finalProject\webClients\css\images\diningBefore.png"
   inkscape:export-xdpi="90"
   inkscape:export-ydpi="90" /><g
   style="fill:#ffb503;fill-opacity:1"
   id="g9079"
   transform="matrix(0.85169486,0,0,0.85169486,682.94165,2375.4818)"
   inkscape:export-filename="C:\Users\Renzo\Documents\GitHub\finalProject\webClients\css\images\diningBefore.png"
   inkscape:export-xdpi="90"
   inkscape:export-ydpi="90"><g
     style="fill:#ffb503;fill-opacity:1"
     id="g9081"><g
       style="fill:#ffb503;fill-opacity:1"
       id="g9083"><g
         style="fill:#ffb503;fill-opacity:1"
         id="g9085"><path
           style="fill:#ffb503;fill-opacity:1"
           d="m 505.947,123.597 c -4.353,-4.752 -10.546,-7.477 -16.99,-7.477 l -6.837,0 c -17.929,0 -32.631,13.468 -34.198,31.328 l -7.397,84.279 c -0.655,7.469 -6.804,13.102 -14.303,13.102 l -64.026,0 c -20.516,0 -37.207,16.691 -37.207,37.207 l 0,3.697 c 0,12.395 10.083,22.478 22.478,22.478 l 13.723,0 -13.514,44.135 c -0.01,0.033 -0.02,0.066 -0.03,0.099 l -10.33,33.736 c -1.213,3.961 1.015,8.154 4.975,9.367 0.732,0.224 1.472,0.331 2.199,0.331 3.209,0 6.18,-2.077 7.168,-5.306 l 8.712,-28.451 102.87,0 8.712,28.451 c 0.988,3.229 3.958,5.306 7.168,5.306 0.728,0 1.468,-0.107 2.199,-0.331 3.96,-1.213 6.188,-5.407 4.975,-9.367 l -24.517,-80.066 c 4.305,-1.219 8.462,-2.953 12.362,-5.188 3.593,-2.06 4.836,-6.643 2.776,-10.236 -2.06,-3.593 -6.644,-4.836 -10.237,-2.776 -6.044,3.465 -12.939,5.297 -19.94,5.297 l -75.402,0 c -0.025,0 -0.05,0 -0.074,0 l -23.793,0 c -4.123,0 -7.478,-3.354 -7.478,-7.478 l 0,-3.697 c 0,-12.245 9.962,-22.207 22.207,-22.207 l 64.026,0 c 15.333,0 27.906,-11.518 29.246,-26.791 l 7.396,-84.28 c 0.882,-10.056 9.16,-17.64 19.255,-17.64 l 6.837,0 c 2.282,0 4.389,0.927 5.93,2.61 1.542,1.683 2.282,3.862 2.082,6.136 l -10.242,116.711 c -0.252,2.878 -0.813,5.726 -1.666,8.464 -1.232,3.955 0.976,8.16 4.931,9.391 3.96,1.232 8.159,-0.977 9.392,-4.93 1.171,-3.762 1.94,-7.669 2.287,-11.614 l 10.242,-116.711 c 0.56,-6.419 -1.614,-12.827 -5.967,-17.579 z m -129.072,184.615 69.855,0 11.914,38.91 -93.684,0 11.915,-38.91 z"
           id="path9087"
           inkscape:connector-curvature="0" /><path
           style="fill:#ffb503;fill-opacity:1"
           d="m 149.803,244.83 -64.026,0 c -7.499,0 -13.647,-5.632 -14.303,-13.102 L 64.078,147.449 C 62.511,129.589 47.809,116.121 29.88,116.121 l -6.837,0 c -6.444,0 -12.637,2.725 -16.99,7.477 -4.353,4.752 -6.527,11.16 -5.965,17.581 L 10.33,257.89 c 1.209,13.773 7.489,26.501 17.684,35.841 6.405,5.868 14.01,10.077 22.206,12.397 l -24.514,80.055 c -1.213,3.961 1.015,8.154 4.975,9.367 0.732,0.224 1.472,0.331 2.199,0.331 3.209,0 6.18,-2.077 7.168,-5.306 l 8.712,-28.451 102.87,0 8.712,28.451 c 0.988,3.229 3.958,5.306 7.168,5.306 0.728,0 1.468,-0.107 2.199,-0.331 3.96,-1.213 6.188,-5.407 4.975,-9.367 l -10.33,-33.736 c -0.01,-0.033 -0.02,-0.066 -0.03,-0.099 l -13.514,-44.135 13.723,0 c 12.395,0 22.477,-10.083 22.477,-22.478 l 0,-3.697 c 0,-20.517 -16.691,-37.208 -37.207,-37.208 z m -96.45,102.292 11.914,-38.91 69.855,0 11.914,38.91 -93.683,0 z M 172.01,285.734 c 0,4.124 -3.354,7.478 -7.477,7.478 l -23.788,0 c -0.03,0 -0.059,0 -0.089,0 l -75.393,0 c -1.604,0 -3.182,-0.103 -4.736,-0.283 -10e-4,0 -0.003,0 -0.005,0 C 41.758,290.76 26.964,275.864 25.272,256.577 L 15.03,139.867 c -0.2,-2.275 0.54,-4.454 2.082,-6.137 1.541,-1.683 3.647,-2.61 5.93,-2.61 l 6.837,0 c 10.095,0 18.373,7.583 19.255,17.64 l 7.396,84.279 0,-10e-4 c 1.34,15.273 13.913,26.791 29.246,26.791 l 64.026,0 c 12.245,0 22.207,9.962 22.207,22.207 l 0,3.698 z"
           id="path9089"
           inkscape:connector-curvature="0" /><path
           style="fill:#ffb503;fill-opacity:1"
           d="m 312.948,371.141 c -3.095,-11.897 -13.841,-20.206 -26.134,-20.206 l -4.642,0 0,-136.534 92.354,0 c 5.32,0 10.299,-2.365 13.661,-6.488 3.362,-4.124 4.677,-9.478 3.605,-14.69 -3.226,-15.684 -17.188,-27.067 -33.199,-27.067 l -155.928,0 c -4.143,0 -7.5,3.358 -7.5,7.5 0,4.142 3.357,7.5 7.5,7.5 l 155.928,0 c 8.926,0 16.708,6.346 18.506,15.088 0.219,1.064 -0.243,1.829 -0.537,2.191 -0.295,0.361 -0.951,0.967 -2.036,0.967 l -237.054,0 c -1.085,0 -1.741,-0.606 -2.036,-0.967 -0.294,-0.361 -0.756,-1.127 -0.537,-2.19 1.798,-8.743 9.58,-15.089 18.506,-15.089 l 14.084,0 c 4.143,0 7.5,-3.358 7.5,-7.5 0,-4.142 -3.357,-7.5 -7.5,-7.5 l -14.084,0 c -16.012,0 -29.974,11.383 -33.199,27.068 -1.071,5.212 0.243,10.566 3.605,14.689 3.362,4.123 8.341,6.488 13.661,6.488 l 92.355,0 0,136.535 -4.642,0 c -12.293,0 -23.039,8.309 -26.134,20.205 l -1.761,6.767 c -1.127,4.335 -0.203,8.852 2.536,12.396 2.74,3.543 6.88,5.576 11.358,5.576 l 89.63,0 c 4.479,0 8.618,-2.032 11.358,-5.576 2.739,-3.543 3.663,-8.061 2.536,-12.396 l -1.76,-6.767 z m -68.121,-156.74 0,0 22.346,0 0,136.535 -22.346,0 0,-136.535 z m -32.811,166.478 1.552,-5.962 c 1.375,-5.288 6.152,-8.981 11.616,-8.981 l 61.629,0 c 5.464,0 10.241,3.693 11.616,8.981 l 1.552,5.962 -87.965,0 z"
           id="path9091"
           inkscape:connector-curvature="0" /></g></g></g></g><g
   id="g6547"
   inkscape:export-filename="C:\Users\Renzo\Documents\GitHub\finalProject\webClients\css\images\diningAfter.png"
   inkscape:export-xdpi="90"
   inkscape:export-ydpi="90"><ellipse
     ry="256.18839"
     rx="256.5719"
     cy="2586.6592"
     cx="241.65662"
     id="ellipse9093"
     style="fill:#ffb503;fill-opacity:1;stroke:#ffb503;stroke-width:13.69999981;stroke-linecap:round;stroke-linejoin:round;stroke-miterlimit:4;stroke-dasharray:none;stroke-dashoffset:0;stroke-opacity:1" /><g
     style="fill:#ffffff;fill-opacity:1"
     id="g9095"
     transform="matrix(0.85169486,0,0,0.85169486,22.94165,2375.4818)"><g
       style="fill:#ffffff;fill-opacity:1"
       id="g9097"><g
         style="fill:#ffffff;fill-opacity:1"
         id="g9099"><g
           style="fill:#ffffff;fill-opacity:1"
           id="g9101"><path
             style="fill:#ffffff;fill-opacity:1"
             d="m 505.947,123.597 c -4.353,-4.752 -10.546,-7.477 -16.99,-7.477 l -6.837,0 c -17.929,0 -32.631,13.468 -34.198,31.328 l -7.397,84.279 c -0.655,7.469 -6.804,13.102 -14.303,13.102 l -64.026,0 c -20.516,0 -37.207,16.691 -37.207,37.207 l 0,3.697 c 0,12.395 10.083,22.478 22.478,22.478 l 13.723,0 -13.514,44.135 c -0.01,0.033 -0.02,0.066 -0.03,0.099 l -10.33,33.736 c -1.213,3.961 1.015,8.154 4.975,9.367 0.732,0.224 1.472,0.331 2.199,0.331 3.209,0 6.18,-2.077 7.168,-5.306 l 8.712,-28.451 102.87,0 8.712,28.451 c 0.988,3.229 3.958,5.306 7.168,5.306 0.728,0 1.468,-0.107 2.199,-0.331 3.96,-1.213 6.188,-5.407 4.975,-9.367 l -24.517,-80.066 c 4.305,-1.219 8.462,-2.953 12.362,-5.188 3.593,-2.06 4.836,-6.643 2.776,-10.236 -2.06,-3.593 -6.644,-4.836 -10.237,-2.776 -6.044,3.465 -12.939,5.297 -19.94,5.297 l -75.402,0 c -0.025,0 -0.05,0 -0.074,0 l -23.793,0 c -4.123,0 -7.478,-3.354 -7.478,-7.478 l 0,-3.697 c 0,-12.245 9.962,-22.207 22.207,-22.207 l 64.026,0 c 15.333,0 27.906,-11.518 29.246,-26.791 l 7.396,-84.28 c 0.882,-10.056 9.16,-17.64 19.255,-17.64 l 6.837,0 c 2.282,0 4.389,0.927 5.93,2.61 1.542,1.683 2.282,3.862 2.082,6.136 l -10.242,116.711 c -0.252,2.878 -0.813,5.726 -1.666,8.464 -1.232,3.955 0.976,8.16 4.931,9.391 3.96,1.232 8.159,-0.977 9.392,-4.93 1.171,-3.762 1.94,-7.669 2.287,-11.614 l 10.242,-116.711 c 0.56,-6.419 -1.614,-12.827 -5.967,-17.579 z m -129.072,184.615 69.855,0 11.914,38.91 -93.684,0 11.915,-38.91 z"
             id="path9103"
             inkscape:connector-curvature="0" /><path
             style="fill:#ffffff;fill-opacity:1"
             d="m 149.803,244.83 -64.026,0 c -7.499,0 -13.647,-5.632 -14.303,-13.102 L 64.078,147.449 C 62.511,129.589 47.809,116.121 29.88,116.121 l -6.837,0 c -6.444,0 -12.637,2.725 -16.99,7.477 -4.353,4.752 -6.527,11.16 -5.965,17.581 L 10.33,257.89 c 1.209,13.773 7.489,26.501 17.684,35.841 6.405,5.868 14.01,10.077 22.206,12.397 l -24.514,80.055 c -1.213,3.961 1.015,8.154 4.975,9.367 0.732,0.224 1.472,0.331 2.199,0.331 3.209,0 6.18,-2.077 7.168,-5.306 l 8.712,-28.451 102.87,0 8.712,28.451 c 0.988,3.229 3.958,5.306 7.168,5.306 0.728,0 1.468,-0.107 2.199,-0.331 3.96,-1.213 6.188,-5.407 4.975,-9.367 l -10.33,-33.736 c -0.01,-0.033 -0.02,-0.066 -0.03,-0.099 l -13.514,-44.135 13.723,0 c 12.395,0 22.477,-10.083 22.477,-22.478 l 0,-3.697 c 0,-20.517 -16.691,-37.208 -37.207,-37.208 z m -96.45,102.292 11.914,-38.91 69.855,0 11.914,38.91 -93.683,0 z M 172.01,285.734 c 0,4.124 -3.354,7.478 -7.477,7.478 l -23.788,0 c -0.03,0 -0.059,0 -0.089,0 l -75.393,0 c -1.604,0 -3.182,-0.103 -4.736,-0.283 -10e-4,0 -0.003,0 -0.005,0 C 41.758,290.76 26.964,275.864 25.272,256.577 L 15.03,139.867 c -0.2,-2.275 0.54,-4.454 2.082,-6.137 1.541,-1.683 3.647,-2.61 5.93,-2.61 l 6.837,0 c 10.095,0 18.373,7.583 19.255,17.64 l 7.396,84.279 0,-10e-4 c 1.34,15.273 13.913,26.791 29.246,26.791 l 64.026,0 c 12.245,0 22.207,9.962 22.207,22.207 l 0,3.698 z"
             id="path9105"
             inkscape:connector-curvature="0" /><path
             style="fill:#ffffff;fill-opacity:1"
             d="m 312.948,371.141 c -3.095,-11.897 -13.841,-20.206 -26.134,-20.206 l -4.642,0 0,-136.534 92.354,0 c 5.32,0 10.299,-2.365 13.661,-6.488 3.362,-4.124 4.677,-9.478 3.605,-14.69 -3.226,-15.684 -17.188,-27.067 -33.199,-27.067 l -155.928,0 c -4.143,0 -7.5,3.358 -7.5,7.5 0,4.142 3.357,7.5 7.5,7.5 l 155.928,0 c 8.926,0 16.708,6.346 18.506,15.088 0.219,1.064 -0.243,1.829 -0.537,2.191 -0.295,0.361 -0.951,0.967 -2.036,0.967 l -237.054,0 c -1.085,0 -1.741,-0.606 -2.036,-0.967 -0.294,-0.361 -0.756,-1.127 -0.537,-2.19 1.798,-8.743 9.58,-15.089 18.506,-15.089 l 14.084,0 c 4.143,0 7.5,-3.358 7.5,-7.5 0,-4.142 -3.357,-7.5 -7.5,-7.5 l -14.084,0 c -16.012,0 -29.974,11.383 -33.199,27.068 -1.071,5.212 0.243,10.566 3.605,14.689 3.362,4.123 8.341,6.488 13.661,6.488 l 92.355,0 0,136.535 -4.642,0 c -12.293,0 -23.039,8.309 -26.134,20.205 l -1.761,6.767 c -1.127,4.335 -0.203,8.852 2.536,12.396 2.74,3.543 6.88,5.576 11.358,5.576 l 89.63,0 c 4.479,0 8.618,-2.032 11.358,-5.576 2.739,-3.543 3.663,-8.061 2.536,-12.396 l -1.76,-6.767 z m -68.121,-156.74 0,0 22.346,0 0,136.535 -22.346,0 0,-136.535 z m -32.811,166.478 1.552,-5.962 c 1.375,-5.288 6.152,-8.981 11.616,-8.981 l 61.629,0 c 5.464,0 10.241,3.693 11.616,8.981 l 1.552,5.962 -87.965,0 z"
             id="path9107"
             inkscape:connector-curvature="0" /></g></g></g></g></g><g
   id="g9133"
   transform="translate(-60.745763,0)"
   inkscape:export-filename="C:\Users\Renzo\Documents\GitHub\finalProject\webClients\css\images\corridorBefore.png"
   inkscape:export-xdpi="90"
   inkscape:export-ydpi="90"><rect
     ry="0"
     y="3092.177"
     x="869.46515"
     height="105.13744"
     width="71.51033"
     id="rect7628"
     style="fill:none;fill-opacity:1;stroke:#ffb503;stroke-width:12.89999962;stroke-linecap:round;stroke-linejoin:round;stroke-miterlimit:4;stroke-dasharray:none;stroke-dashoffset:0;stroke-opacity:1" /><path
     sodipodi:nodetypes="cc"
     inkscape:connector-curvature="0"
     id="path7630"
     d="M 869.62711,3092.5085 762.23729,2984.0339"
     style="fill:none;fill-rule:evenodd;stroke:#ffb503;stroke-width:12.89999962;stroke-linecap:round;stroke-linejoin:round;stroke-miterlimit:4;stroke-dasharray:none;stroke-opacity:1" /><path
     style="fill:none;fill-rule:evenodd;stroke:#ffb503;stroke-width:12.89999962;stroke-linecap:round;stroke-linejoin:miter;stroke-miterlimit:4;stroke-dasharray:none;stroke-opacity:1"
     d="M 940.23729,3092.5085 1047.6271,2984.0339"
     id="path7632"
     inkscape:connector-curvature="0"
     sodipodi:nodetypes="cc" /><path
     style="fill:none;fill-rule:evenodd;stroke:#ffb503;stroke-width:12.89999962;stroke-linecap:round;stroke-linejoin:miter;stroke-miterlimit:4;stroke-dasharray:none;stroke-opacity:1"
     d="M 869.62711,3198.0339 762.23729,3306.5085"
     id="path7640"
     inkscape:connector-curvature="0"
     sodipodi:nodetypes="cc" /><path
     sodipodi:nodetypes="cc"
     inkscape:connector-curvature="0"
     id="path7642"
     d="m 940.23729,3198.0339 107.38981,108.4746"
     style="fill:none;fill-rule:evenodd;stroke:#ffb503;stroke-width:12.89999962;stroke-linecap:round;stroke-linejoin:miter;stroke-miterlimit:4;stroke-dasharray:none;stroke-opacity:1" /><path
     sodipodi:nodetypes="ccccc"
     inkscape:connector-curvature="0"
     id="path7644"
     d="m 845.45512,3219.779 0,-116.0247 -35.59404,-32.6672 -1.02441,184.8066 z"
     style="fill:none;fill-rule:evenodd;stroke:#ffb503;stroke-width:13.10840797;stroke-linecap:butt;stroke-linejoin:round;stroke-miterlimit:4;stroke-dasharray:none;stroke-opacity:1" /><path
     style="fill:none;fill-rule:evenodd;stroke:#ffb503;stroke-width:12.89999962;stroke-linecap:butt;stroke-linejoin:round;stroke-miterlimit:4;stroke-dasharray:none;stroke-opacity:1"
     d="m 980.8613,3238.1695 0.76703,-147.7793 35.79657,-31.4577 0.2633,214.0146 z"
     id="path7646"
     inkscape:connector-curvature="0"
     sodipodi:nodetypes="ccccc" /><ellipse
     ry="1.5011917"
     rx="0.63916826"
     cy="3168.8723"
     cx="821.74335"
     id="path7648"
     style="fill:none;fill-opacity:1;stroke:#ffb503;stroke-width:6.62171459;stroke-linecap:round;stroke-linejoin:round;stroke-miterlimit:4;stroke-dasharray:none;stroke-dashoffset:0;stroke-opacity:1" /><ellipse
     style="fill:none;fill-opacity:1;stroke:#ffb503;stroke-width:5.82750797;stroke-linecap:round;stroke-linejoin:round;stroke-miterlimit:4;stroke-dasharray:none;stroke-dashoffset:0;stroke-opacity:1"
     id="ellipse7650"
     cx="991.07349"
     cy="3172.2412"
     rx="0.76508516"
     ry="0.97132921" /><ellipse
     ry="256.18839"
     rx="256.5719"
     cy="3146.6592"
     cx="901.65662"
     id="ellipse9111"
     style="fill:none;fill-opacity:1;stroke:#ffb503;stroke-width:13.69999981;stroke-linecap:round;stroke-linejoin:round;stroke-miterlimit:4;stroke-dasharray:none;stroke-dashoffset:0;stroke-opacity:1" /></g><rect
   ry="0"
   y="3092.177"
   x="208.71939"
   height="105.13744"
   width="71.51033"
   id="rect9147"
   style="fill:none;fill-opacity:1;stroke:#ffffff;stroke-width:12.89999962;stroke-linecap:round;stroke-linejoin:round;stroke-miterlimit:4;stroke-dasharray:none;stroke-dashoffset:0;stroke-opacity:1" /><path
   sodipodi:nodetypes="cc"
   inkscape:connector-curvature="0"
   id="path9149"
   d="M 208.88135,3092.5085 101.49153,2984.0339"
   style="fill:none;fill-rule:evenodd;stroke:#ffffff;stroke-width:12.89999962;stroke-linecap:round;stroke-linejoin:round;stroke-miterlimit:4;stroke-dasharray:none;stroke-opacity:1" /><path
   style="fill:none;fill-rule:evenodd;stroke:#ffffff;stroke-width:12.89999962;stroke-linecap:round;stroke-linejoin:miter;stroke-miterlimit:4;stroke-dasharray:none;stroke-opacity:1"
   d="M 279.49153,3092.5085 386.88134,2984.0339"
   id="path9151"
   inkscape:connector-curvature="0"
   sodipodi:nodetypes="cc" /><path
   style="fill:none;fill-rule:evenodd;stroke:#ffffff;stroke-width:12.89999962;stroke-linecap:round;stroke-linejoin:miter;stroke-miterlimit:4;stroke-dasharray:none;stroke-opacity:1"
   d="M 208.88135,3198.0339 101.49153,3306.5085"
   id="path9153"
   inkscape:connector-curvature="0"
   sodipodi:nodetypes="cc" /><path
   sodipodi:nodetypes="cc"
   inkscape:connector-curvature="0"
   id="path9155"
   d="m 279.49153,3198.0339 107.38981,108.4746"
   style="fill:none;fill-rule:evenodd;stroke:#ffffff;stroke-width:12.89999962;stroke-linecap:round;stroke-linejoin:miter;stroke-miterlimit:4;stroke-dasharray:none;stroke-opacity:1" /><path
   sodipodi:nodetypes="ccccc"
   inkscape:connector-curvature="0"
   id="path9157"
   d="m 184.70936,3219.779 0,-116.0247 -35.59404,-32.6672 -1.02441,184.8066 z"
   style="fill:none;fill-rule:evenodd;stroke:#ffffff;stroke-width:13.10840797;stroke-linecap:butt;stroke-linejoin:round;stroke-miterlimit:4;stroke-dasharray:none;stroke-opacity:1" /><path
   style="fill:none;fill-rule:evenodd;stroke:#ffffff;stroke-width:12.89999962;stroke-linecap:butt;stroke-linejoin:round;stroke-miterlimit:4;stroke-dasharray:none;stroke-opacity:1"
   d="m 320.11554,3238.1695 0.76703,-147.7793 35.79657,-31.4577 0.2633,214.0146 z"
   id="path9159"
   inkscape:connector-curvature="0"
   sodipodi:nodetypes="ccccc" /><ellipse
   ry="1.5011917"
   rx="0.63916826"
   cy="3168.8723"
   cx="160.99759"
   id="ellipse9161"
   style="fill:none;fill-opacity:1;stroke:#ffffff;stroke-width:6.62171459;stroke-linecap:round;stroke-linejoin:round;stroke-miterlimit:4;stroke-dasharray:none;stroke-dashoffset:0;stroke-opacity:1" /><ellipse
   style="fill:none;fill-opacity:1;stroke:#ffffff;stroke-width:5.82750797;stroke-linecap:round;stroke-linejoin:round;stroke-miterlimit:4;stroke-dasharray:none;stroke-dashoffset:0;stroke-opacity:1"
   id="ellipse9163"
   cx="330.32773"
   cy="3172.2412"
   rx="0.76508516"
   ry="0.97132921" /><g
   transform="matrix(6.4716039,0,0,6.4716039,1621.8051,1546.0593)"
   id="g9731"><path
     inkscape:connector-curvature="0"
     id="path9179"
     d="M 62.863,21.452 33.238,4.702 C 33.228,4.697 33.217,4.694 33.208,4.689 33.154,4.66 33.098,4.638 33.041,4.616 33.005,4.602 32.97,4.586 32.934,4.574 32.879,4.557 32.823,4.548 32.766,4.538 32.727,4.531 32.689,4.521 32.65,4.517 32.591,4.511 32.533,4.513 32.474,4.514 32.437,4.515 32.4,4.513 32.364,4.516 32.306,4.521 32.249,4.535 32.191,4.547 32.153,4.555 32.115,4.561 32.078,4.572 32.029,4.586 31.981,4.608 31.932,4.628 31.887,4.646 31.842,4.664 31.8,4.686 31.788,4.692 31.775,4.696 31.762,4.703 L 2.137,21.452 c -0.721,0.408 -0.975,1.323 -0.567,2.044 0.276,0.488 0.784,0.762 1.307,0.762 0.25,0 0.503,-0.063 0.737,-0.195 l 4.741,-2.68 0,37.609 c 0,0.828 0.671,1.5 1.5,1.5 l 6.74,0 31.813,0 6.74,0 c 0.828,0 1.5,-0.672 1.5,-1.5 l 0,-37.609 4.74,2.68 c 0.233,0.132 0.486,0.195 0.737,0.195 0.522,0 1.031,-0.274 1.307,-0.762 0.407,-0.722 0.152,-1.637 -0.569,-2.044 z m -15.957,23.461 -28.812,0 0,-4 28.813,0 0,4 z m 0,-7 -28.812,0 0,-4 28.813,0 0,4 z m -28.812,10 28.813,0 0,4 -28.813,0 0,-4 z m 28.812,-17 -28.812,0 0,-2.58 28.813,0 0,2.58 z m -28.812,26.579 0,-2.579 28.813,0 0,2.579 -28.813,0 z m 35.552,0 -3.74,0 0,-30.659 c 0,-0.829 -0.672,-1.5 -1.5,-1.5 l -31.812,0 c -0.829,0 -1.5,0.671 -1.5,1.5 l 0,30.659 -3.74,0 0,-37.805 L 32.5,7.73 l 21.146,11.956 0,37.806 z" /></g><g
   id="g4842"
   transform="matrix(0.53974182,0,0,0.53974182,1709.4764,-735.27359)"
   style="stroke:#ffb503;stroke-opacity:1;stroke-width:17.8603911;stroke-miterlimit:4;stroke-dasharray:none"
   inkscape:export-filename="C:\Users\Renzo\Documents\GitHub\finalProject\webClients\css\images\workOption.png"
   inkscape:export-xdpi="90"
   inkscape:export-ydpi="90"><path
     inkscape:connector-curvature="0"
     id="path4732"
     d="M 2762.865,374.73176 V 200.50508 h 301.9609 v 514.78848"
     style="fill:none;stroke:#ffb503;stroke-width:17.8603911;stroke-linecap:round;stroke-linejoin:miter;stroke-miterlimit:4;stroke-dasharray:none;stroke-opacity:1" /><path
     inkscape:connector-curvature="0"
     id="path4736"
     d="m 3064.8731,378.36972 h 213.6448 V 715.5001 h -552.6783"
     style="fill:none;stroke:#ffb503;stroke-width:17.8603911;stroke-linecap:round;stroke-linejoin:round;stroke-miterlimit:4;stroke-dasharray:none;stroke-opacity:1" /><path
     sodipodi:nodetypes="ssscs"
     inkscape:connector-curvature="0"
     id="path4740"
     d="m 2859.3504,546.94578 c 0,36.51371 -25.3653,66.11393 -56.6549,66.11396 -31.2897,3e-5 -56.655,-29.60021 -56.655,-66.11396 0,-36.51375 58.8133,-137.23019 58.8133,-137.23019 0,0 54.4966,100.71648 54.4966,137.23019 z"
     style="fill:none;fill-opacity:1;stroke:#ffb503;stroke-width:17.8603911;stroke-linecap:round;stroke-linejoin:round;stroke-miterlimit:4;stroke-dasharray:none;stroke-opacity:1" /><path
     inkscape:connector-curvature="0"
     id="path4743"
     d="M 2804.8538,714.99276 V 536.50249"
     style="fill:none;stroke:#ffb503;stroke-width:17.8603911;stroke-linecap:round;stroke-linejoin:miter;stroke-miterlimit:4;stroke-dasharray:none;stroke-opacity:1" /><rect
     y="614.46619"
     x="3133.2776"
     height="100.82738"
     width="75.896935"
     id="rect4745"
     style="fill:none;fill-opacity:1;stroke:#ffb503;stroke-width:17.8603911;stroke-linecap:round;stroke-linejoin:round;stroke-miterlimit:4;stroke-dasharray:none;stroke-opacity:1" /><path
     inkscape:connector-curvature="0"
     id="path4747"
     d="m 2802.7722,267.9322 h 76.1073"
     style="fill:none;stroke:#ffb503;stroke-width:17.8603911;stroke-linecap:round;stroke-linejoin:miter;stroke-miterlimit:4;stroke-dasharray:none;stroke-opacity:1" /><path
     style="fill:none;stroke:#ffb503;stroke-width:17.8603911;stroke-linecap:round;stroke-linejoin:miter;stroke-miterlimit:4;stroke-dasharray:none;stroke-opacity:1"
     d="m 2942.7722,267.9322 h 76.1073"
     id="path4749"
     inkscape:connector-curvature="0" /><path
     style="fill:none;stroke:#ffb503;stroke-width:17.8603911;stroke-linecap:round;stroke-linejoin:miter;stroke-miterlimit:4;stroke-dasharray:none;stroke-opacity:1"
     d="m 2802.7722,347.9322 h 76.1073"
     id="path4751"
     inkscape:connector-curvature="0" /><path
     inkscape:connector-curvature="0"
     id="path4753"
     d="m 2942.7722,347.9322 h 76.1073"
     style="fill:none;stroke:#ffb503;stroke-width:17.8603911;stroke-linecap:round;stroke-linejoin:miter;stroke-miterlimit:4;stroke-dasharray:none;stroke-opacity:1" /><path
     style="fill:none;stroke:#ffb503;stroke-width:17.8603911;stroke-linecap:round;stroke-linejoin:miter;stroke-miterlimit:4;stroke-dasharray:none;stroke-opacity:1"
     d="m 2942.7722,447.9322 h 76.1073"
     id="path4757"
     inkscape:connector-curvature="0" /><path
     inkscape:connector-curvature="0"
     id="path4759"
     d="m 2942.7722,547.9322 h 76.1073"
     style="fill:none;stroke:#ffb503;stroke-width:17.8603911;stroke-linecap:round;stroke-linejoin:miter;stroke-miterlimit:4;stroke-dasharray:none;stroke-opacity:1" /><path
     inkscape:connector-curvature="0"
     id="path4765"
     d="m 3090.6145,437.62712 h 59.2023"
     style="fill:none;stroke:#ffb503;stroke-width:17.8603911;stroke-linecap:round;stroke-linejoin:miter;stroke-miterlimit:4;stroke-dasharray:none;stroke-opacity:1" /><path
     style="fill:none;stroke:#ffb503;stroke-width:17.8603911;stroke-linecap:round;stroke-linejoin:miter;stroke-miterlimit:4;stroke-dasharray:none;stroke-opacity:1"
     d="m 3186.6145,437.62712 h 59.2023"
     id="path4767"
     inkscape:connector-curvature="0" /><path
     style="fill:none;stroke:#ffb503;stroke-width:17.8603911;stroke-linecap:round;stroke-linejoin:miter;stroke-miterlimit:4;stroke-dasharray:none;stroke-opacity:1"
     d="m 3090.6145,437.62712 h 59.2023"
     id="path4769"
     inkscape:connector-curvature="0" /><path
     style="fill:none;stroke:#ffb503;stroke-width:17.8603911;stroke-linecap:round;stroke-linejoin:miter;stroke-miterlimit:4;stroke-dasharray:none;stroke-opacity:1"
     d="m 3090.6145,517.62712 h 59.2023"
     id="path4779"
     inkscape:connector-curvature="0" /><path
     inkscape:connector-curvature="0"
     id="path4781"
     d="m 3186.6145,517.62712 h 59.2023"
     style="fill:none;stroke:#ffb503;stroke-width:17.8603911;stroke-linecap:round;stroke-linejoin:miter;stroke-miterlimit:4;stroke-dasharray:none;stroke-opacity:1" /><path
     inkscape:connector-curvature="0"
     id="path4783"
     d="m 3090.6145,517.62712 h 59.2023"
     style="fill:none;stroke:#ffb503;stroke-width:17.8603911;stroke-linecap:round;stroke-linejoin:miter;stroke-miterlimit:4;stroke-dasharray:none;stroke-opacity:1" /></g><g
   id="g5185"
   transform="matrix(0.53746393,0,0,0.53746393,1233.9845,-812.83408)"
   style="stroke:#ffb503;stroke-opacity:1;stroke-width:18.48868258;stroke-miterlimit:4;stroke-dasharray:none"
   inkscape:export-filename="C:\Users\Renzo\Documents\GitHub\finalProject\webClients\css\images\houseOption.png"
   inkscape:export-xdpi="90"
   inkscape:export-ydpi="90"><g
     transform="translate(-114.3453,89.42284)"
     id="g4856"
     style="stroke:#ffb503;stroke-opacity:1;stroke-width:18.48868258;stroke-miterlimit:4;stroke-dasharray:none"><path
       sodipodi:nodetypes="ssscs"
       inkscape:connector-curvature="0"
       id="path4821"
       d="m 2468.8419,575.14917 c 0,36.51371 -25.3653,66.11393 -56.6549,66.11396 -31.2897,3e-5 -56.655,-29.60021 -56.655,-66.11396 0,-36.51375 58.8133,-137.23019 58.8133,-137.23019 0,0 54.4966,100.71648 54.4966,137.23019 z"
       style="fill:none;fill-opacity:1;stroke:#ffb503;stroke-width:18.48868258;stroke-linecap:round;stroke-linejoin:round;stroke-miterlimit:4;stroke-dasharray:none;stroke-opacity:1" /><path
       inkscape:connector-curvature="0"
       id="path4823"
       d="M 2414.3453,743.19615 V 564.70588"
       style="fill:none;stroke:#ffb503;stroke-width:18.48868258;stroke-linecap:round;stroke-linejoin:miter;stroke-miterlimit:4;stroke-dasharray:none;stroke-opacity:1" /></g><path
     sodipodi:nodetypes="ccccccc"
     inkscape:connector-curvature="0"
     id="path4852"
     d="M 2370.5085,838.61899 H 2100 l 2.0183,-180.2302 h -100 L 2000,838.61899 h -200 l 2.8543,-300.75435"
     style="fill:none;stroke:#ffb503;stroke-width:18.48868179;stroke-linecap:round;stroke-linejoin:miter;stroke-miterlimit:4;stroke-dasharray:none;stroke-opacity:1" /><path
     inkscape:connector-curvature="0"
     id="path4866"
     d="m 1760,503.32203 290,-185.49152 290,185.49152"
     style="fill:none;stroke:#ffb503;stroke-width:18.48868258;stroke-linecap:round;stroke-linejoin:miter;stroke-miterlimit:4;stroke-dasharray:none;stroke-opacity:1" /></g><ellipse
   style="fill:none;fill-opacity:1;stroke:#ffb503;stroke-width:13.69999981;stroke-linecap:round;stroke-linejoin:round;stroke-miterlimit:4;stroke-dasharray:none;stroke-dashoffset:0;stroke-opacity:1"
   id="ellipse4868"
   cx="2350.877"
   cy="-490.49347"
   rx="256.5719"
   ry="256.18839"
   inkscape:export-filename="C:\Users\Renzo\Documents\GitHub\finalProject\webClients\css\images\houseOption.png"
   inkscape:export-xdpi="90"
   inkscape:export-ydpi="90" /><ellipse
   ry="256.18839"
   rx="256.5719"
   cy="-490.49347"
   cx="3310.877"
   id="ellipse5187"
   style="fill:none;fill-opacity:1;stroke:#ffb503;stroke-width:13.69999981;stroke-linecap:round;stroke-linejoin:round;stroke-miterlimit:4;stroke-dasharray:none;stroke-dashoffset:0;stroke-opacity:1"
   inkscape:export-filename="C:\Users\Renzo\Documents\GitHub\finalProject\webClients\css\images\workOption.png"
   inkscape:export-xdpi="90"
   inkscape:export-ydpi="90" /></svg>